<?xml version="1.0" encoding="utf-8"?>
<svg viewBox="0 0 500 500" xmlns="http://www.w3.org/2000/svg">
  <defs>
    <style id="bx-google-fonts">@import url(https://fonts.googleapis.com/css?family=Roboto:100,100italic,300,300italic,400,400italic,500,500italic,700,700italic,900,900italic);</style>
    <radialGradient id="gradient-0" gradientUnits="userSpaceOnUse" cx="345.882" cy="259.749" r="129.762" gradientTransform="matrix(1.017048, 0, 0, 1, -11.269141, 17.697815)">
      <stop offset="0" style="stop-color: rgb(255, 255, 255);"/>
      <stop offset="1" style="stop-color: rgb(93, 188, 255);"/>
    </radialGradient>
  </defs>
  <path d="M 426.205 105.941 C 425.188 105.941 409.923 95.437 406.881 93.941 C 392.371 86.807 380.055 85.941 362.131 85.941 C 348.823 85.941 334.908 107.941 326.535 107.941 C 319.032 107.941 302.749 99.812 293.989 96.941 C 266.578 87.957 226.864 124.992 226.864 149.941 C 230.472 159.847 241.393 182.798 241.393 182.798 C 241.172 183.359 240.421 184.264 240.421 184.264 C 241.599 184.843 231.345 192.632 228.85 197.538 C 223.778 207.511 210.504 223.695 214.707 236.093 C 218.028 245.887 222.389 255.592 225.635 265.168 C 226.484 267.672 230.936 274.172 232.064 275.281 C 233.022 276.224 236.88 275.603 235.921 276.545 C 224.131 288.137 208.535 327.231 214.707 345.44 C 217.727 354.347 227.763 364.743 235.921 370.091 C 237.852 371.356 248.778 376.395 248.778 378.94 C 248.778 381.994 241.904 386.136 239.778 390.317 C 234.617 400.467 227.307 413.64 234.635 424.448 C 248.065 444.255 267.528 454.155 291.848 454.155 C 295.818 454.155 321.973 445.219 322.704 445.938 C 326.998 450.161 342.518 452.389 349.704 454.155 C 357.795 456.144 365.04 458.815 373.489 460.476 C 416.592 468.952 447.2 443.2 462.201 413.703 C 469.342 399.659 457.81 374.313 454.486 361.242 C 453.923 359.025 448.229 342.743 449.986 341.016 C 472.484 318.895 464.972 276.701 457.7 248.103 C 455.462 239.298 451.509 230.706 449.343 222.188 C 448.609 219.3 446.823 215.967 445.486 213.339 C 444.796 211.98 441.369 209.547 442.915 209.547 C 446.786 209.547 450.291 201.513 452.558 198.17 C 460.387 186.622 460.2 156.313 453.844 143.812 C 452.416 141.004 445.338 116.001 442.915 116.001 C 442.042 116.001 424.916 106.948 424.916 103.992 Z" style="stroke: black; stroke-width: 3; fill: url(#gradient-0);"/>
  <rect x="252.161" y="117.21" width="193.411" height="309.079" style="fill: rgb(216, 216, 216); stroke: rgb(0, 0, 0);"/>
  <path d="M 419.376 139.491 C 419.376 140.351 408.515 139.491 405.938 139.491 C 396.314 139.491 388.58 138.733 378.314 138.733 C 355.071 138.733 330.151 142.523 308.137 142.523 C 304.77 142.523 286.486 145.556 286.486 145.556 C 286.486 173.349 286.486 200.749 286.486 228.958 C 286.486 238.64 287.98 249.571 287.98 257.771 C 287.98 260.319 287.98 273.838 287.98 270.659 C 294.97 274.208 306.155 270.659 313.363 270.659 C 333.803 270.659 361.628 275.045 381.301 268.384 C 389.572 265.584 402.587 266.11 411.164 266.11 C 416.002 266.11 424.64 266.11 424.603 266.11 C 413.796 244.161 417.137 200.425 417.137 174.367 C 417.137 169.567 418.63 143.282 418.63 143.282" style="stroke: black; fill: rgb(255, 255, 255);"/>
  <path d="M 130.547 327.753 C 131.331 327.753 112.931 331.342 108.097 331.342 C 89.923 331.342 72.993 331.258 55.953 327.037 C 51.934 326.042 39.295 329.189 39.295 329.189 C 39.295 329.403 39.315 309.876 37.846 305.514 C 32.806 290.534 38.569 269.948 38.569 253.855 C 38.569 252.261 38.569 236.635 38.569 236.635 C 39.295 236.635 60.405 237.354 61.746 237.354 C 86.232 237.354 115.022 235.918 137.067 235.918 C 136.425 236.505 135.616 253.475 135.616 256.724 C 135.616 273.6 137.067 290.937 137.067 306.948 C 137.067 307.97 135.616 327.037 135.616 327.037" style="stroke: black; fill: none;"/>
  <path d="M 110.942 305.535 C 111.553 306.135 114.608 291.895 112.855 291.895 C 99.428 291.895 82.79 292.069 69.324 294.717 C 68.756 294.829 55.93 295.657 55.93 295.657 C 55.93 295.187 56.409 306.946 56.409 306.946 C 55.01 306.504 59.244 306.005 60.714 306.005 C 64.145 306.005 67.339 305.535 70.759 305.535 C 81.495 305.535 91.672 306.946 102.331 306.946 C 102.587 306.946 111.898 306.946 111.898 306.946 Z" style="stroke: black; fill: none;"/>
  <path d="M 290.774 180.754 C 290.774 181.224 290.576 192.624 290.295 193.453 C 289.293 196.411 289.817 200.165 289.817 203.33 C 289.817 212.421 289.817 222.38 289.817 231.081 C 289.817 233.82 288.016 241.373 293.644 238.606 C 294.627 238.122 300.819 237.028 300.819 236.254 C 300.819 223.79 295.74 203.911 301.297 192.983 C 301.902 191.794 302.961 176.991 301.297 176.991 C 299.416 176.991 291.492 178.166 289.817 179.813 Z" style="stroke: black; fill: none;"/>
  <path d="M 79.134 287.16 C 79.134 287.631 78.655 297.006 78.655 297.978 C 78.655 308.401 78.655 319.548 78.655 330.431 C 78.655 330.76 77.468 346.894 77.699 346.894 C 80.545 346.894 84.804 347.398 86.787 346.423 C 88.079 345.788 91.093 348.313 91.093 346.894 C 91.093 330.853 94.92 315.528 94.92 299.859 C 94.92 296.497 94.441 293.08 94.441 289.982 C 94.441 288.257 96.196 284.808 94.441 284.808 C 93.472 284.808 78.655 286.219 78.655 286.219 Z" style="stroke: black; fill: none;" transform="matrix(0, 1, -1, 0, 403.392469, 229.728479)"/>
  <path d="M 328.87 248.613 C 329.348 248.613 337.538 249.083 338.916 249.083 C 349.813 249.083 361.275 250.024 372.401 250.024 C 376.387 250.024 380.373 250.024 384.36 250.024 C 386.121 250.024 389.621 247.822 389.621 249.553 C 389.621 250.233 389.143 254.836 389.143 256.608 C 389.143 258.49 391.056 262.253 389.143 262.253 C 373.598 262.253 358.543 260.372 343.221 260.372 C 341.483 260.372 327.913 260.395 327.913 259.901 C 327.913 259.369 328.391 249.553 328.391 249.553 Z" style="stroke: black; fill: none;"/>
  <text x="274.386" y="248.151" style="font-size: 14px; white-space: pre;" transform="matrix(0.756823, 0, 0, 0.744137, 130.096924, 74.808037)">Network</text>
  <text x="285" y="135" style="font-size: 14px; white-space: pre;" transform="matrix(0.756823, 0, 0, 0.744137, -144.756027, 203.692444)">JDK</text>
  <text x="365" y="160" style="font-size: 14px; white-space: pre;" transform="matrix(0.744137, 0, 0, 0.756823, -215.884598, 196.601181)">Middleware</text>
  <text x="230" y="387" style="font-size: 14px; white-space: pre;" transform="matrix(0, -0.744137, 0.756823, 0, 5.014324, 393.687256)">Storage</text>
  <path d="M 381.47 151.943 C 381.47 151.943 391.406 139.293 386.768 139.293 C 372.895 139.293 347.982 137.897 336.061 143.758 C 332.225 145.643 323.195 143.758 323.195 143.758 C 323.195 143.013 320.555 154.92 322.438 154.92 C 336.33 154.92 352.534 153.431 367.091 153.431 C 368.314 153.431 380.713 152.687 380.713 152.687 Z" style="stroke: black; fill: none;"/>
  <text x="273" y="112" style="font-size: 14px; white-space: pre;" transform="matrix(0.756823, 0, 0, 0.744137, 121.880096, 67.855339)">Monitoring</text>
  <text x="34.938" y="344.177" style="font-size: 14px; white-space: pre;">Container Image</text>
  <path d="M 232.539 217.764 C 232.539 218.306 236.095 226.974 236.095 226.974 C 236.095 225.475 231.859 226.018 230.761 225.349 C 225.467 222.122 216.62 223.182 210.316 223.182 C 192.677 223.182 171.126 228.301 156.091 240.519 C 151.04 244.623 145.829 249.235 141.868 254.064 C 141.108 254.99 138.757 263.273 139.201 263.273" style="stroke: black; fill: none; stroke-width: 3;"/>
  <path d="M 227.246 231.038 C 227.878 230.053 234.831 227.245 234.831 227.245" style="stroke: black; fill: none; stroke-width: 3;"/>
  <rect x="245.576" y="202.595" width="22.754" height="127.677" style="stroke: rgb(0, 0, 0); fill: rgb(255, 255, 255);"/>
  <path d="M 301.619 228.589 C 302.04 228.589 308.782 227.008 308.782 227.008 C 308.361 226.614 304.568 231.124 304.568 231.354 C 304.568 234.489 288.71 245 284.342 246.365 C 283.352 246.675 271.279 251.896 270.858 251.501" style="stroke: black; fill: none;"/>
  <path d="M 320.159 312.574 C 320.791 312.574 328.376 314.47 328.376 314.47" style="stroke: black; fill: none;"/>
  <path d="M 88.221 265.169 C 88.221 265.169 106.542 255.056 109.079 255.056 C 109.079 255.056 90.117 243.679 90.117 243.679 C 90.117 243.679 64.834 253.792 64.834 253.792 C 65.466 253.792 92.013 266.238 92.013 265.169 C 90.132 267.051 88.853 291.084 88.853 291.084 C 86.957 290.452 64.835 277.795 64.834 281.603 C 64.834 281.603 66.731 253.792 67.363 253.792" style="stroke: black; fill: none;"/>
  <path d="M 108.447 256.953 C 108.447 256.321 109.711 280.971 109.711 280.971 C 107.815 285.839 89.485 287.596 88.853 292.348" style="stroke: black; fill: none;"/>
  <path d="M 80.004 248.736 C 80.004 248.104 95.806 258.849 95.806 258.849 C 99.567 261.67 98.966 286.66 98.966 286.66" style="stroke: black; fill: none;"/>
  <path d="M 100.23 250.632 C 100.23 248.901 84.432 258.217 84.428 258.217 C 83.677 258.217 76.212 260.745 76.212 260.745 C 76.212 260.113 75.58 284.763 75.58 284.763" style="stroke: black; fill: none;"/>
  <path d="M 90.117 253.792 C 90.117 253.16 84.586 248.578 81.268 251.896 C 76.996 256.168 90.749 253.792 90.749 253.792 Z" style="stroke: black; fill: none;"/>
  <path d="M 86.749 253.16 C 86.117 253.16 92.438 239.556 92.438 243.047 C 92.438 248.422 86.749 253.792 86.749 253.792 Z" style="stroke: black; fill: none;"/>
  <path d="M 67.363 267.698 C 66.731 267.698 89.485 277.179 89.485 277.179 C 94.149 277.178 109.079 270.858 109.079 270.858" style="stroke: black; fill: none;"/>
  <text x="274.65" y="251.896" style="font-size: 24px; white-space: pre;" transform="matrix(0, -1, 1, 0, 14.856354, 570.174683)">CaaS</text>
  <path d="M 398.005 246.086 C 398.789 246.086 380.389 249.675 375.555 249.675 C 357.38 249.675 340.451 249.591 323.411 245.37 C 319.392 244.375 306.753 247.522 306.753 247.522 C 306.753 247.736 306.773 228.209 305.304 223.847 C 300.264 208.867 306.027 188.281 306.027 172.188 C 306.027 170.594 306.027 154.968 306.027 154.968 C 306.753 154.968 327.863 155.687 329.204 155.687 C 353.69 155.687 382.479 154.251 404.525 154.251 C 403.883 154.838 403.074 171.808 403.074 175.057 C 403.074 191.933 404.525 209.27 404.525 225.281 C 404.525 226.303 403.074 245.37 403.074 245.37" style="stroke: black; fill: none;"/>
  <path d="M 378.4 223.868 C 379.01 224.468 382.066 210.228 380.313 210.228 C 366.885 210.228 350.247 210.402 336.781 213.05 C 336.214 213.162 323.388 213.99 323.388 213.99 C 323.388 213.52 323.867 225.279 323.867 225.279 C 322.468 224.837 326.702 224.338 328.172 224.338 C 331.603 224.338 334.797 223.868 338.216 223.868 C 348.953 223.868 359.13 225.279 369.789 225.279 C 370.044 225.279 379.356 225.279 379.356 225.279 Z" style="stroke: black; fill: none;"/>
  <path d="M 346.591 205.493 C 346.591 205.964 346.113 215.339 346.113 216.311 C 346.113 226.734 346.113 237.881 346.113 248.764 C 346.113 249.093 344.926 265.227 345.156 265.227 C 348.003 265.227 352.262 265.731 354.245 264.756 C 355.536 264.121 358.551 266.646 358.551 265.227 C 358.551 249.186 362.378 233.861 362.378 218.192 C 362.378 214.83 361.898 211.413 361.898 208.315 C 361.898 206.59 363.654 203.141 361.898 203.141 C 360.93 203.141 346.113 204.552 346.113 204.552 Z" style="stroke: black; fill: none;" transform="matrix(0, 1, -1, 0, 589.18346, -119.396487)"/>
  <text x="285" y="135" style="font-size: 14px; white-space: pre;" transform="matrix(0.756823, 0, 0, 0.744137, 122.701714, 122.025635)">JDK</text>
  <text x="365" y="160" style="font-size: 14px; white-space: pre;" transform="matrix(0.744137, 0, 0, 0.756823, 51.573143, 114.934357)">Middleware</text>
  <path d="M 355.679 183.502 C 355.679 183.502 374 173.389 376.536 173.389 C 376.536 173.389 357.575 162.012 357.575 162.012 C 357.575 162.012 332.292 172.125 332.292 172.125 C 332.924 172.125 359.471 184.571 359.471 183.502 C 357.59 185.384 356.311 209.417 356.311 209.417 C 354.415 208.785 332.293 196.128 332.292 199.936 C 332.292 199.936 334.189 172.125 334.82 172.125" style="stroke: black; fill: none;"/>
  <path d="M 375.905 175.286 C 375.905 174.654 377.169 199.304 377.169 199.304 C 375.273 204.172 356.943 205.929 356.311 210.681" style="stroke: black; fill: none;"/>
  <path d="M 347.462 167.069 C 347.462 166.437 363.264 177.182 363.264 177.182 C 367.025 180.003 366.424 204.993 366.424 204.993" style="stroke: black; fill: none;"/>
  <path d="M 367.688 168.965 C 367.688 167.234 351.89 176.55 351.885 176.55 C 351.135 176.55 343.669 179.078 343.669 179.078 C 343.669 178.446 343.038 203.096 343.038 203.096" style="stroke: black; fill: none;"/>
  <path d="M 357.575 172.125 C 357.575 171.493 352.044 166.911 348.726 170.229 C 344.454 174.501 358.207 172.125 358.207 172.125 Z" style="stroke: black; fill: none;"/>
  <path d="M 354.207 171.493 C 353.575 171.493 359.896 157.889 359.896 161.38 C 359.896 166.755 354.207 172.125 354.207 172.125 Z" style="stroke: black; fill: none;"/>
  <path d="M 334.82 186.031 C 334.189 186.031 356.943 195.512 356.943 195.512 C 361.607 195.511 376.536 189.191 376.536 189.191" style="stroke: black; fill: none;"/>
  <path d="M 423.16 278.461 C 423.16 279.321 412.299 278.461 409.722 278.461 C 400.098 278.461 392.364 277.703 382.098 277.703 C 358.855 277.703 333.935 281.493 311.921 281.493 C 308.554 281.493 290.27 284.526 290.27 284.526 C 290.27 312.319 290.27 339.719 290.27 367.928 C 290.27 377.61 291.764 388.541 291.764 396.741 C 291.764 399.289 291.764 412.808 291.764 409.629 C 298.754 413.178 309.939 409.629 317.147 409.629 C 337.587 409.629 365.412 414.015 385.085 407.354 C 393.356 404.554 406.371 405.08 414.948 405.08 C 419.786 405.08 428.424 405.08 428.387 405.08 C 417.58 383.131 420.921 339.395 420.921 313.337 C 420.921 308.537 422.414 282.252 422.414 282.252" style="stroke: black; fill: rgb(255, 255, 255);"/>
  <path d="M 294.558 319.724 C 294.558 320.194 294.36 331.594 294.079 332.423 C 293.077 335.381 293.601 339.135 293.601 342.3 C 293.601 351.391 293.601 361.35 293.601 370.051 C 293.601 372.79 291.8 380.343 297.428 377.576 C 298.411 377.092 304.603 375.998 304.603 375.224 C 304.603 362.76 299.524 342.881 305.081 331.953 C 305.686 330.764 306.745 315.961 305.081 315.961 C 303.2 315.961 295.276 317.136 293.601 318.783 Z" style="stroke: black; fill: none;"/>
  <path d="M 332.654 387.583 C 333.132 387.583 341.322 388.053 342.7 388.053 C 353.597 388.053 365.059 388.994 376.185 388.994 C 380.171 388.994 384.157 388.994 388.144 388.994 C 389.905 388.994 393.405 386.792 393.405 388.523 C 393.405 389.203 392.927 393.806 392.927 395.578 C 392.927 397.46 394.84 401.223 392.927 401.223 C 377.382 401.223 362.327 399.342 347.005 399.342 C 345.267 399.342 331.697 399.365 331.697 398.871 C 331.697 398.339 332.175 388.523 332.175 388.523 Z" style="stroke: black; fill: none;"/>
  <text x="274.386" y="248.151" style="font-size: 14px; white-space: pre;" transform="matrix(0.756823, 0, 0, 0.744137, 133.880875, 213.778595)">Network</text>
  <text x="230" y="387" style="font-size: 14px; white-space: pre;" transform="matrix(0, -0.744137, 0.756823, 0, 8.798274, 532.657837)">Storage</text>
  <path d="M 385.254 290.913 C 385.254 290.913 395.19 278.263 390.552 278.263 C 376.679 278.263 351.766 276.867 339.845 282.728 C 336.009 284.613 326.979 282.728 326.979 282.728 C 326.979 281.983 324.339 293.89 326.222 293.89 C 340.114 293.89 356.318 292.401 370.875 292.401 C 372.098 292.401 384.497 291.657 384.497 291.657 Z" style="stroke: black; fill: none;"/>
  <text x="273" y="112" style="font-size: 14px; white-space: pre;" transform="matrix(0.756823, 0, 0, 0.744137, 125.66404, 206.825897)">Monitoring</text>
  <path d="M 401.789 385.056 C 402.573 385.056 384.173 388.645 379.339 388.645 C 361.164 388.645 344.235 388.561 327.195 384.34 C 323.176 383.345 310.537 386.492 310.537 386.492 C 310.537 386.706 310.557 367.179 309.088 362.817 C 304.048 347.837 309.811 327.251 309.811 311.158 C 309.811 309.564 309.811 293.938 309.811 293.938 C 310.537 293.938 331.647 294.657 332.988 294.657 C 357.474 294.657 386.263 293.221 408.309 293.221 C 407.667 293.808 406.858 310.778 406.858 314.027 C 406.858 330.903 408.309 348.24 408.309 364.251 C 408.309 365.273 406.858 384.34 406.858 384.34" style="stroke: black; fill: none;"/>
  <path d="M 310.046 304.983 C 310.046 304.465 309.172 310.678 309.172 310.678 C 308.735 310.678 303.957 304.742 303.49 304.465 C 296.288 300.2 289.974 297.058 282.511 294.112 C 280.999 293.515 268.962 293.594 269.399 293.594" style="stroke: black; fill: none;"/>
  <path d="M 382.184 362.838 C 382.794 363.438 385.85 349.198 384.097 349.198 C 370.669 349.198 354.031 349.372 340.565 352.02 C 339.998 352.132 327.172 352.96 327.172 352.96 C 327.172 352.49 327.651 364.249 327.651 364.249 C 326.252 363.807 330.486 363.308 331.956 363.308 C 335.387 363.308 338.581 362.838 342 362.838 C 352.737 362.838 362.914 364.249 373.573 364.249 C 373.828 364.249 383.14 364.249 383.14 364.249 Z" style="stroke: black; fill: none;"/>
  <path d="M 350.375 344.463 C 350.375 344.934 349.897 354.309 349.897 355.281 C 349.897 365.704 349.897 376.851 349.897 387.734 C 349.897 388.063 348.71 404.197 348.94 404.197 C 351.787 404.197 356.046 404.701 358.029 403.726 C 359.32 403.091 362.335 405.616 362.335 404.197 C 362.335 388.156 366.162 372.831 366.162 357.162 C 366.162 353.8 365.682 350.383 365.682 347.285 C 365.682 345.56 367.438 342.111 365.682 342.111 C 364.714 342.111 349.897 343.522 349.897 343.522 Z" style="stroke: black; fill: none;" transform="matrix(0, 1, -1, 0, 731.937494, 15.789529)"/>
  <text x="285" y="135" style="font-size: 14px; white-space: pre;" transform="matrix(0.756823, 0, 0, 0.744137, 126.485664, 260.996185)">JDK</text>
  <text x="365" y="160" style="font-size: 14px; white-space: pre;" transform="matrix(0.744137, 0, 0, 0.756823, 55.357098, 253.904907)">Middleware</text>
  <path d="M 359.463 322.472 C 359.463 322.472 377.784 312.359 380.32 312.359 C 380.32 312.359 361.359 300.982 361.359 300.982 C 361.359 300.982 336.076 311.095 336.076 311.095 C 336.708 311.095 363.255 323.541 363.255 322.472 C 361.374 324.354 360.095 348.387 360.095 348.387 C 358.199 347.755 336.077 335.098 336.076 338.906 C 336.076 338.906 337.973 311.095 338.604 311.095" style="stroke: black; fill: none;"/>
  <path d="M 379.689 314.256 C 379.689 313.624 380.953 338.274 380.953 338.274 C 379.057 343.142 360.727 344.899 360.095 349.651" style="stroke: black; fill: none;"/>
  <path d="M 351.246 306.039 C 351.246 305.407 367.048 316.152 367.048 316.152 C 370.809 318.973 370.208 343.963 370.208 343.963" style="stroke: black; fill: none;"/>
  <path d="M 371.472 307.935 C 371.472 306.204 355.674 315.52 355.669 315.52 C 354.919 315.52 347.453 318.048 347.453 318.048 C 347.453 317.416 346.822 342.066 346.822 342.066" style="stroke: black; fill: none;"/>
  <path d="M 361.359 311.095 C 361.359 310.463 355.828 305.881 352.51 309.199 C 348.238 313.471 361.991 311.095 361.991 311.095 Z" style="stroke: black; fill: none;"/>
  <path d="M 357.991 310.463 C 357.359 310.463 363.68 296.859 363.68 300.35 C 363.68 305.725 357.991 311.095 357.991 311.095 Z" style="stroke: black; fill: none;"/>
  <path d="M 338.604 325.001 C 337.973 325.001 360.727 334.482 360.727 334.482 C 365.391 334.481 380.32 328.161 380.32 328.161" style="stroke: black; fill: none;"/>
  <text x="305.475" y="135.287" style="font-size: 14px; white-space: pre;">Container Instance#1</text>
  <text x="302.03" y="422.245" style="font-size: 14px; white-space: pre;">Container Instance#2</text>
</svg>