<?xml version="1.0" encoding="utf-8"?>
<svg viewBox="0 0 500 500" xmlns="http://www.w3.org/2000/svg">
  <defs>
    <pattern id="pattern-0" x="0" y="0" width="20" height="20" patternUnits="userSpaceOnUse" viewBox="0 0 100 100">
      <path d="M 0 0 L 50 0 L 50 100 L 0 100 Z" style="fill: black;"/>
      <ellipse cx="52.908" cy="51.075" rx="35.901" ry="32.931" style="fill: rgb(216, 216, 216);"/>
    </pattern>
  </defs>
  <ellipse cx="254.108" cy="194.379" rx="69.844" ry="42.348" style="stroke-width: 5; stroke: rgb(0, 0, 0); fill: rgb(79, 179, 16);"/>
  <path d="M 433.298 457.948 C 404.223 463.005 411.276 461.647 384.63 462.373 C 350.303 463.308 362.499 462.119 334.696 463.005 C 321.948 463.411 288.333 464.454 257.585 463.638 C 214.769 462.501 214.291 465.382 175.415 463.006 C 139.661 460.821 137.244 462.886 114.106 456.685 C 100.748 453.105 93.881 452.087 75.551 447.204 C 68.511 442.78 48.777 433.401 45.212 428.242 C 31.069 407.778 30.932 417.845 29.409 389.686 C 28.501 372.888 30.488 361.655 38.892 349.233 C 48.247 335.405 53.69 328.233 77.447 322.687 C 79.332 322.247 81.359 301.858 82.503 296.141 C 85.493 281.192 85.903 280.498 95.776 268.963 C 107.484 255.284 111.889 251.504 125.483 244.943 C 139.748 238.058 143.117 236.974 172.256 234.832 C 181.085 215.042 183.507 215.786 197.539 209.549 C 212.892 202.725 220.697 195.647 258.848 197.541 C 297.63 199.467 295.912 198.71 316.999 210.182 C 331.149 217.88 336.591 230.408 336.591 230.408 C 362.428 235.286 362.01 232.275 376.411 236.727 C 396.228 242.853 398.535 239.768 414.337 256.321 C 428.349 270.999 429.506 286.027 429.506 286.027 L 426.346 316.368 C 447.63 320.997 444.75 315.605 463.004 327.112 C 480.806 338.333 480.091 335.838 490.816 358.084 C 500.358 377.875 497.456 381.697 491.449 404.222 C 487.236 420.021 479.45 427.61 464.902 443.412 L 433.298 457.948 Z" style="stroke-linecap: round; stroke-linejoin: round; stroke-width: 7; stroke: rgb(0, 0, 0); fill: rgb(255, 255, 255);"/>
  <ellipse cx="232.618" cy="139.705" rx="9.797" ry="19.91" transform="matrix(1, 0, 0, 1.000002, 0.632065, 138.421676)"/>
  <ellipse cx="272.754" cy="140.653" rx="9.797" ry="19.91" transform="matrix(1, 0, 0, 1.000002, 0.63205, 138.421675)"/>
  <path d="M 197.539 348.602 C 197.539 348.602 243.963 390.95 313.206 350.414" style="fill: none; stroke: rgb(0, 0, 0); stroke-width: 9;"/>
  <path d="M 185.53 375.781 C 185.53 375.781 207.652 356.753 188.84 325.216" style="fill: none; stroke: black; stroke-width: 9; stroke-linecap: round;"/>
  <path d="M 320.568 328.377 C 323.798 321.857 301.824 352.237 327.744 375.782" style="fill: none; stroke: black; stroke-width: 9; stroke-linecap: round;"/>
  <path d="M 488.919 386.526 C 488.919 386.526 478.175 430.769 459.65 440.251 C 441.125 449.733 436.404 453.525 416.822 456.685 C 397.24 459.845 354.696 458.808 358.083 456.053 C 361.47 453.298 380.005 450.363 399.61 445.94 C 419.215 441.517 428.391 438.988 441.651 432.667 C 454.911 426.346 461.413 419.393 468.998 410.544 C 476.583 401.695 482.624 396.008 488.919 386.526 Z" style="fill: rgb(145, 146, 143);"/>
  <path d="M 420.025 300.565 L 420.025 300.565 Z" style="fill: rgb(255, 255, 255);"/>
  <path d="M 423.817 300.565 C 423.817 300.565 419.393 321.423 419.393 322.055 C 419.393 322.687 430.769 320.791 440.882 324.584 C 450.995 328.377 454.156 331.536 454.156 331.536 C 454.156 331.536 444.564 328.274 430.769 327.744 C 414.335 327.112 408.647 330.273 408.015 329.641 C 407.383 329.009 418.128 316.367 423.817 300.565 Z" style="fill: rgb(145, 146, 143);"/>
  <path d="M 312.89 167.2 C 312.89 178.021 302.278 186.794 289.188 186.794 C 284.63 186.794 280.373 185.73 276.759 183.887 C 270.52 186.566 263.601 188.056 256.318 188.056 C 247.681 188.056 239.556 185.96 232.469 182.271 C 228.98 183.942 224.929 184.898 220.607 184.898 C 207.517 184.898 196.905 176.125 196.905 165.304 C 196.905 158.585 200.996 152.656 207.231 149.126 C 206.676 146.277 206.386 143.339 206.386 140.336 C 206.386 113.981 228.741 92.616 256.318 92.616 C 283.895 92.616 306.25 113.981 306.25 140.336 C 306.25 144.486 305.696 148.513 304.654 152.352 C 309.697 155.945 312.89 161.264 312.89 167.2 Z" style="stroke: rgb(0, 0, 0); stroke-width: 5; fill: rgb(234, 194, 16);"/>
  <ellipse transform="matrix(0.999998, 0, 0, 1, -200.657419, -6.618042)" cx="421.266" cy="171.921" rx="8.533" ry="7.585" style="fill: rgb(255, 98, 0);"/>
  <ellipse cx="287.292" cy="164.672" rx="8.533" ry="7.585" style="fill: rgb(255, 98, 0);"/>
  <path d="M 313.21 130.821 C 313.21 146.588 299.269 159.373 282.068 159.373 C 269.882 159.373 268.228 161.814 254.214 155.419 C 243.621 160.379 239.208 160.357 227.199 160.357 C 210.819 160.357 197.541 147.575 197.541 131.804 C 197.541 116.037 210.819 103.255 227.199 103.255 C 238.796 103.255 236.973 101.786 253.711 108.168 C 271.963 103.224 269.471 102.272 282.068 102.272 C 299.269 102.272 313.21 115.054 313.21 130.821 Z" style="fill: rgb(255, 255, 255); stroke-linecap: round; stroke: rgb(0, 0, 0); stroke-width: 5;"/>
  <path d="M 287.292 178.577 C 279.075 179.209 276.464 179.177 269.595 183.633 C 264.841 186.717 264.574 186.146 262.642 190.586 C 259.605 197.565 259.412 196.406 261.378 200.067 C 264.448 205.784 266.36 205.666 270.859 207.02 C 278.147 209.213 282.236 200.067 282.236 200.067 C 284.284 206.215 276.075 206.775 285.396 212.076 C 292.423 216.072 297.405 207.02 297.405 207.02 C 298.791 211.178 296.93 214.806 303.093 217.765 C 309.806 220.988 312.394 216.6 314.47 212.077 C 317.324 205.859 317.772 205.316 316.366 198.803 C 314.723 191.19 314.355 191.236 310.677 186.793 C 306.529 181.782 301.197 180.473 301.197 180.473 L 287.292 178.577 Z" style="stroke: rgb(0, 0, 0); stroke-width: 5; fill: rgb(234, 194, 16);"/>
  <ellipse transform="matrix(1.000003, 0, 0, 1.000001, -205.086863, -9.146072)" cx="444.024" cy="141.582" rx="5.373" ry="8.849"/>
  <ellipse transform="matrix(1, 0, 0, 1.000001, -173.798065, -9.145905)" cx="444.024" cy="141.582" rx="5.373" ry="8.849"/>
  <ellipse transform="matrix(0.999999, 0, 0, 1, -210.770149, -11.673935)" cx="464.25" cy="169.393" rx="10.429" ry="8.849" style="stroke: rgb(0, 0, 0); stroke-width: 5.00001; fill: rgb(234, 194, 16);"/>
  <path style="fill: none; stroke: black; stroke-linecap: round; stroke-width: 2;" d="M 243.623 175.784 L 265.745 175.784"/>
  <path d="M 217.73 220.008 C 209.513 219.376 206.902 219.408 200.032 214.952 C 195.278 211.868 195.011 212.439 193.079 207.999 C 190.043 201.02 189.85 202.179 191.816 198.518 C 194.885 192.801 196.798 192.919 201.297 191.565 C 208.584 189.372 212.674 198.518 212.674 198.518 C 214.721 192.37 206.513 191.81 215.833 186.509 C 222.86 182.513 227.842 191.565 227.842 191.565 C 229.229 187.407 227.368 183.779 233.531 180.82 C 240.243 177.597 242.832 181.985 244.907 186.508 C 247.761 192.726 248.209 193.269 246.803 199.782 C 245.161 207.395 244.793 207.349 241.114 211.792 C 236.967 216.803 231.635 218.112 231.635 218.112 L 217.73 220.008 Z" style="stroke: rgb(0, 0, 0); stroke-width: 5; fill: rgb(234, 194, 16);" transform="matrix(-1, 0, 0, -1, 438.059004, 397.604986)"/>
  <path d="M 246.208 74.301 C 246.208 73.654 252.43 80.948 253.161 82.071 C 256.615 87.379 256.321 94.408 256.321 100.201 C 257.585 97.61 257.958 92.581 258.217 91.784 C 260.074 86.078 264.928 81.672 268.962 77.54" style="fill: none; stroke-linecap: round; stroke: rgb(0, 0, 0); stroke-width: 5;"/>
  <path d="M 238.623 83.767 C 238.623 83.135 244.543 85.895 245.576 86.928 C 249.434 90.786 252.528 91.521 252.528 98.305" style="stroke: black; fill: none; stroke-width: 5; stroke-linecap: round;"/>
  <path d="M 449.732 165.936 Z" style="stroke: black; fill: none;"/>
  <path d="M 164.784 456.685 C 164.784 456.685 170.475 432.036 151.317 413.705 C 132.159 395.374 116.694 392.214 94.584 385.262 C 72.474 378.31 22.977 376.186 35.845 378.309 C 48.713 380.432 65.984 382.103 85.589 388.422 C 105.194 394.741 110.578 395.374 123.838 401.695 C 137.098 408.016 142.335 411.809 149.288 423.186 C 156.241 434.563 158.489 447.203 164.784 456.685 Z" style="fill: rgb(145, 146, 143);" transform="matrix(-1, 0, 0, -1, 199.138989, 836.259018)"/>
  <path d="M 62.277 338.173 C 62.277 338.173 66.07 314.155 66.07 313.523 C 66.07 312.891 74.286 312.891 84.399 309.098 C 94.512 305.305 94.513 298.353 94.513 298.353 C 94.513 298.353 88.081 305.408 74.286 305.938 C 57.852 306.57 52.164 306.569 57.853 309.729 C 63.542 312.889 61.645 321.107 62.277 338.173 Z" style="fill: rgb(145, 146, 143);" transform="matrix(-1, 0, 0, -1, 148.572997, 640.319001)"/>
</svg>