<?xml version="1.0" encoding="utf-8"?>
<svg viewBox="0 0 500 500" xmlns="http://www.w3.org/2000/svg">
  <defs>
    <style id="bx-google-fonts">@import url(https://fonts.googleapis.com/css?family=Abel:400|Roboto:100,300,500,700,900,100italic,300italic,400,400italic,500italic,700italic,900italic);</style>
    <radialGradient id="gradient-0" gradientUnits="userSpaceOnUse" cx="230.505" cy="293.678" r="147.172" gradientTransform="matrix(0.649133, 0, 0, 0.738876, -15.518209, 121.600601)">
      <stop offset="0" style="stop-color: rgb(255, 255, 255);"/>
      <stop offset="1" style="stop-color: rgb(77, 181, 255);"/>
    </radialGradient>
    <radialGradient id="gradient-1" gradientUnits="userSpaceOnUse" cx="236.185" cy="152.682" r="153.445" gradientTransform="matrix(-0.085875, 0.926457, -2.959162, -0.217735, 694.683898, -26.182358)">
      <stop offset="0" style="stop-color: rgb(255, 255, 255);"/>
      <stop offset="1" style="stop-color: rgb(46, 185, 39);"/>
    </radialGradient>
    <radialGradient id="gradient-2" gradientUnits="userSpaceOnUse" cx="230.505" cy="293.678" r="147.172" gradientTransform="matrix(0.421513, 0, 0, 0.590317, 300.109526, 99.707351)">
      <stop offset="0" style="stop-color: rgb(255, 255, 255);"/>
      <stop offset="1" style="stop-color: rgb(77, 181, 255);"/>
    </radialGradient>
    <linearGradient id="gradient-3" gradientUnits="userSpaceOnUse" x1="293.469" y1="84.212" x2="293.469" y2="104.784" gradientTransform="matrix(1, 0, 0, 0.969276, 0, 3.219399)">
      <stop offset="0" style="stop-color: rgba(0, 0, 0, 1)"/>
      <stop offset="1" style="stop-color: rgba(0, 0, 0, 1)"/>
    </linearGradient>
    <linearGradient id="gradient-4" gradientUnits="userSpaceOnUse" x1="293.469" y1="84.212" x2="293.469" y2="104.784" gradientTransform="matrix(0.010942, 0.99994, -1.536218, 0.016817, 433.531108, -206.23087)">
      <stop offset="0" style="stop-color: rgb(255, 0, 0);"/>
      <stop offset="1" style="stop-color: rgb(0, 255, 25);"/>
    </linearGradient>
  </defs>
  <path d="M 81.612 159.908 C 81.009 159.908 80.249 145.029 81.612 143.814 C 88.04 138.087 92.554 128.164 99.675 121.819 C 106.577 115.67 119.514 112.163 130.384 112.163 C 133.325 112.163 140.713 111.462 143.028 112.7 C 144.567 113.523 147.845 116.444 147.845 114.846 C 147.845 96.319 188.01 92.187 203.843 87.486 C 212.618 84.88 241.433 90.63 244.786 96.606 C 246.513 99.683 251.029 101.292 252.615 104.117 C 252.811 104.466 255.52 110.017 255.624 110.017 C 255.658 110.017 262.146 104.207 262.85 103.58 C 269.084 98.026 294.529 100.112 302.59 102.506 C 313.993 105.893 330.653 109.271 338.115 115.918 C 346.915 123.758 347.749 132.753 347.749 144.888 C 347.749 148.003 347.304 152.657 345.944 155.081 C 345.177 156.448 342.422 159.372 344.137 159.372 C 356.896 159.372 362.073 174.166 367.017 182.977 C 367.709 184.209 368.768 193.22 367.619 194.243 C 363.143 198.231 363.129 215.701 353.169 215.701 C 346.344 215.701 337.361 221.266 329.686 217.847 C 327.921 217.062 321.311 217.359 320.052 216.238 C 319.224 215.5 317.042 213.585 317.042 214.629 C 317.042 216.843 306.806 218.868 306.806 219.993 C 306.806 221.44 300.987 222.495 299.579 223.749 C 293.936 228.776 276.378 230.565 266.463 232.332 C 245.63 236.044 221.61 235.887 200.832 231.26 C 196.171 230.22 186.412 223.212 184.575 223.212 C 181.1 223.212 169.481 225.644 165.307 227.504 C 153.201 232.896 126.187 222.947 115.33 220.529 C 108.102 218.919 101.817 212.245 97.267 208.191 C 94.913 206.092 96.674 199.615 94.256 197.462 C 93.431 196.726 96.249 185.123 95.461 185.123 C 87.574 185.123 81.92 179.496 77.398 175.466 C 76.414 174.59 81.009 159.908 81.009 159.908 Z" style="fill: url(#gradient-1); stroke-width: 3; stroke: rgb(0, 0, 0);"/>
  <path d="M 111.956 143.824 C 111.956 143.824 117.993 135.733 117.994 135.733 C 120.366 137.977 128.058 132.561 128.058 135.733 C 128.058 137.119 123.391 143.479 122.02 144.775 C 120.616 146.104 110.447 144.775 110.447 144.775 C 110.95 144.775 115.981 166.667 115.981 166.667 C 117.116 166.131 123.529 166.191 123.529 166.191 C 124.535 166.191 122.02 145.251 122.02 144.775" style="stroke: black; fill: none;"/>
  <path d="M 124.032 166.191 C 123.529 166.191 129.064 162.86 129.064 162.86 C 130.071 164.764 129.064 147.782 129.064 143.348 C 129.064 141.865 128.058 135.733 128.058 135.258" style="stroke: black; fill: none;"/>
  <path d="M 118.498 149.535 C 118.498 149.535 120.244 153.342 116.484 153.342 C 116.381 153.342 113.969 149.059 113.969 149.059 C 114.472 149.059 120.007 148.583 120.007 148.583 Z" style="stroke: black; fill: none;"/>
  <path d="M 116.484 154.294 C 116.484 154.77 120.51 153.015 120.51 154.294 C 120.51 155.722 122.02 158.577 120.51 158.577 C 119.232 158.577 116.987 161.213 116.987 160.004 C 116.987 158.957 115.981 155.246 115.981 155.246 Z" style="stroke: black; fill: none;"/>
  <path d="M 124.032 148.107 C 124.032 147.631 128.058 144.775 128.058 144.775" style="stroke: black; fill: none;"/>
  <path d="M 124.032 153.342 C 124.032 152.867 129.567 150.011 129.567 150.011" style="stroke: black; fill: none;"/>
  <path d="M 124.535 158.101 C 124.535 157.625 129.064 154.294 129.064 154.294" style="stroke: black; fill: none;"/>
  <path d="M 112.459 150.011 C 112.459 150.486 105.414 152.977 105.414 153.342 C 105.414 154.928 103.737 158.101 105.414 158.101 C 105.952 158.101 111.956 158.283 111.956 156.673 C 111.956 156.323 111.956 152.39 111.956 152.39" style="stroke: black; fill: none;"/>
  <path d="M 105.414 158.101 C 105.414 158.577 108.936 167.833 108.936 165.715 C 110.382 167.083 112.459 165.239 112.459 165.239 C 111.956 165.239 111.956 158.577 111.956 158.101" style="stroke: black; fill: none;"/>
  <path d="M 111.956 166.191 C 112.459 166.191 114.975 164.764 114.975 164.764" style="stroke: black; fill: none;"/>
  <text x="126.748" y="186.794" style="font-family: Abel; white-space: pre;" transform="matrix(0.796103, 0, 0, 0.752935, 10.54882, 36.017399)">DC1</text>
  <path d="M 162.088 132.211 C 162.088 132.211 168.125 124.12 168.126 124.121 C 170.498 126.365 178.19 120.948 178.19 124.121 C 178.19 125.506 173.523 131.866 172.152 133.163 C 170.748 134.491 160.579 133.163 160.579 133.163 C 161.082 133.163 166.113 155.055 166.113 155.055 C 167.248 154.518 173.661 154.579 173.661 154.579 C 174.667 154.579 172.152 133.639 172.152 133.163" style="stroke: black; fill: none;"/>
  <path d="M 174.164 154.579 C 173.661 154.579 179.196 151.248 179.196 151.248 C 180.203 153.151 179.196 136.169 179.196 131.735 C 179.196 130.252 178.19 124.121 178.19 123.645" style="stroke: black; fill: none;"/>
  <path d="M 168.63 137.922 C 168.63 137.922 170.376 141.73 166.616 141.73 C 166.513 141.73 164.101 137.446 164.101 137.446 C 164.604 137.446 170.139 136.971 170.139 136.971 Z" style="stroke: black; fill: none;"/>
  <path d="M 166.616 142.682 C 166.616 143.157 170.642 141.402 170.642 142.682 C 170.642 144.109 172.152 146.964 170.642 146.964 C 169.365 146.964 167.12 149.6 167.12 148.392 C 167.12 147.344 166.113 143.633 166.113 143.633 Z" style="stroke: black; fill: none;"/>
  <path d="M 174.164 136.495 C 174.164 136.019 178.19 133.163 178.19 133.163" style="stroke: black; fill: none;"/>
  <path d="M 174.164 141.73 C 174.164 141.254 179.7 138.398 179.7 138.398" style="stroke: black; fill: none;"/>
  <path d="M 174.667 146.488 C 174.667 146.013 179.196 142.682 179.196 142.682" style="stroke: black; fill: none;"/>
  <path d="M 162.591 138.398 C 162.591 138.874 155.547 141.365 155.547 141.73 C 155.547 143.316 153.869 146.488 155.547 146.488 C 156.084 146.488 162.088 146.671 162.088 145.061 C 162.088 144.711 162.088 140.777 162.088 140.777" style="stroke: black; fill: none;"/>
  <path d="M 155.547 146.488 C 155.547 146.964 159.069 156.22 159.069 154.103 C 160.514 155.47 162.591 153.627 162.591 153.627 C 162.088 153.627 162.088 146.964 162.088 146.488" style="stroke: black; fill: none;"/>
  <path d="M 162.088 154.579 C 162.591 154.579 165.107 153.151 165.107 153.151" style="stroke: black; fill: none;"/>
  <text x="189.72" y="171.371" style="font-family: Abel; white-space: pre; font-size: 16px;" transform="matrix(0.796103, 0, 0, 0.752935, 10.54882, 36.017399)">DC2</text>
  <path d="M 202.841 143.157 C 202.841 143.157 208.878 135.066 208.879 135.066 C 211.251 137.31 218.943 131.894 218.943 135.066 C 218.943 136.452 214.277 142.812 212.905 144.108 C 211.501 145.437 201.332 144.108 201.332 144.108 C 201.835 144.108 206.867 166 206.867 166 C 208.001 165.464 214.414 165.524 214.414 165.524 C 215.421 165.524 212.905 144.584 212.905 144.108" style="stroke: black; fill: none;"/>
  <path d="M 214.918 165.524 C 214.414 165.524 219.95 162.193 219.95 162.193 C 220.956 164.097 219.95 147.115 219.95 142.681 C 219.95 141.198 218.943 135.066 218.943 134.591" style="stroke: black; fill: none;"/>
  <path d="M 209.383 148.868 C 209.383 148.868 211.13 152.675 207.37 152.675 C 207.266 152.675 204.854 148.392 204.854 148.392 C 205.357 148.392 210.892 147.916 210.892 147.916 Z" style="stroke: black; fill: none;"/>
  <path d="M 207.37 153.627 C 207.37 154.103 211.396 152.348 211.396 153.627 C 211.396 155.055 212.905 157.91 211.396 157.91 C 210.118 157.91 207.873 160.546 207.873 159.337 C 207.873 158.29 206.867 154.579 206.867 154.579 Z" style="stroke: black; fill: none;"/>
  <path d="M 214.918 147.44 C 214.918 146.964 218.943 144.108 218.943 144.108" style="stroke: black; fill: none;"/>
  <path d="M 214.918 152.675 C 214.918 152.199 220.453 149.344 220.453 149.344" style="stroke: black; fill: none;"/>
  <path d="M 215.421 157.434 C 215.421 156.958 219.95 153.627 219.95 153.627" style="stroke: black; fill: none;"/>
  <path d="M 203.345 149.344 C 203.345 149.819 196.3 152.31 196.3 152.675 C 196.3 154.261 194.622 157.434 196.3 157.434 C 196.837 157.434 202.841 157.616 202.841 156.006 C 202.841 155.656 202.841 151.723 202.841 151.723" style="stroke: black; fill: none;"/>
  <path d="M 196.3 157.434 C 196.3 157.91 199.822 167.166 199.822 165.048 C 201.268 166.416 203.345 164.572 203.345 164.572 C 202.841 164.572 202.841 157.91 202.841 157.434" style="stroke: black; fill: none;"/>
  <path d="M 202.841 165.524 C 203.345 165.524 205.86 164.097 205.86 164.097" style="stroke: black; fill: none;"/>
  <text x="240.911" y="185.908" style="font-family: Abel; white-space: pre; font-size: 16px;" transform="matrix(0.796103, 0, 0, 0.752935, 10.54882, 36.017399)">DC3</text>
  <path d="M 247.626 136.966 C 247.626 136.966 253.663 128.875 253.664 128.876 C 256.036 131.119 263.728 125.703 263.728 128.876 C 263.728 130.261 259.061 136.621 257.69 137.918 C 256.286 139.246 246.117 137.918 246.117 137.918 C 246.62 137.918 251.651 159.809 251.651 159.809 C 252.786 159.273 259.199 159.333 259.199 159.333 C 260.205 159.333 257.69 138.394 257.69 137.918" style="stroke: black; fill: none;"/>
  <path d="M 259.702 159.333 C 259.199 159.333 264.734 156.002 264.734 156.002 C 265.741 157.906 264.734 140.924 264.734 136.49 C 264.734 135.007 263.728 128.876 263.728 128.4" style="stroke: black; fill: none;"/>
  <path d="M 254.168 142.677 C 254.168 142.677 255.914 146.485 252.154 146.485 C 252.051 146.485 249.639 142.201 249.639 142.201 C 250.142 142.201 255.677 141.725 255.677 141.725 Z" style="stroke: black; fill: none;"/>
  <path d="M 252.154 147.436 C 252.154 147.912 256.18 146.157 256.18 147.436 C 256.18 148.864 257.69 151.719 256.18 151.719 C 254.903 151.719 252.658 154.355 252.658 153.147 C 252.658 152.099 251.651 148.388 251.651 148.388 Z" style="stroke: black; fill: none;"/>
  <path d="M 259.702 141.249 C 259.702 140.774 263.728 137.918 263.728 137.918" style="stroke: black; fill: none;"/>
  <path d="M 259.702 146.485 C 259.702 146.009 265.238 143.153 265.238 143.153" style="stroke: black; fill: none;"/>
  <path d="M 260.205 151.243 C 260.205 150.767 264.734 147.436 264.734 147.436" style="stroke: black; fill: none;"/>
  <path d="M 248.129 143.153 C 248.129 143.629 241.085 146.119 241.085 146.485 C 241.085 148.07 239.407 151.243 241.085 151.243 C 241.622 151.243 247.626 151.425 247.626 149.816 C 247.626 149.466 247.626 145.532 247.626 145.532" style="stroke: black; fill: none;"/>
  <path d="M 241.085 151.243 C 241.085 151.719 244.607 160.975 244.607 158.858 C 246.052 160.225 248.129 158.382 248.129 158.382 C 247.626 158.382 247.626 151.719 247.626 151.243" style="stroke: black; fill: none;"/>
  <path d="M 247.626 159.333 C 248.129 159.333 250.645 157.906 250.645 157.906" style="stroke: black; fill: none;"/>
  <text x="240.911" y="185.908" style="font-family: Abel; white-space: pre; font-size: 16px;" transform="matrix(0.796103, 0, 0, 0.752935, 55.333458, 29.826576)">DC4</text>
  <path d="M 130.071 162.86 C 130.574 162.86 127.052 164.069 127.052 165.239 C 127.052 166.76 132.427 168.246 133.592 167.143 C 136.63 164.27 130.574 162.384 130.574 162.384 Z" style="stroke: black; fill: none;"/>
  <path d="M 178.88 151.914 C 178.376 151.914 178.34 160.515 183.409 155.722 C 187.501 151.85 179.886 150.962 179.886 150.962 Z" style="stroke: black; fill: none;"/>
  <path d="M 220.141 161.909 C 220.644 161.909 215.451 162.707 217.625 164.764 C 223.371 170.198 221.65 161.433 221.65 161.433 Z" style="stroke: black; fill: none;"/>
  <path d="M 264.925 155.722 C 264.925 156.198 261.439 160.004 264.925 160.004 C 269.701 160.004 272.91 155.246 266.937 155.246 Z" style="stroke: black; fill: none;"/>
  <path d="M 133.089 164.764 C 132.586 164.764 145.341 167.453 140.637 171.902 C 138.275 174.136 123.328 187.416 127.052 190.939 C 128.274 192.094 132.443 195.221 135.103 195.221 C 136.835 195.221 142.147 195.146 142.147 195.221 C 143.506 192.654 136.895 193.585 140.134 196.649 C 143.804 200.12 143.154 193.318 143.154 193.318" style="stroke: black; fill: none;"/>
  <path d="M 181.899 154.294 C 182.402 154.294 196.632 160.824 190.956 166.191 C 185.502 171.35 179.928 177.097 174.854 181.896 C 172.316 184.296 170.958 187.485 169.319 189.035 C 167.483 190.772 170.325 193.539 170.325 192.366 C 169.826 191.422 168.358 188.516 166.803 189.986 C 165.9 190.841 164.016 193.318 165.293 193.318 C 168.13 193.318 177.696 189.986 169.319 189.986" style="stroke: black; fill: none;"/>
  <path d="M 221.147 164.288 C 221.147 163.812 226.557 164.228 226.682 164.288 C 228.702 165.243 238.001 172.62 233.224 177.137 C 228.954 181.175 220.058 180.071 216.116 183.8 C 215.839 184.061 207.523 192.366 212.593 192.366" style="stroke: black; fill: none;"/>
  <path d="M 142.86 191.415 C 142.86 191.89 139.555 199.981 140.332 199.981 C 162.89 199.981 182.863 199.981 204.973 199.981 C 208.793 199.981 221.718 201.232 224.113 198.077 C 224.883 197.062 229.532 188.559 229.53 188.559 C 209.334 188.559 185.194 184.813 163.805 189.51 C 159.402 190.478 149.737 187.11 147.193 190.463 C 147.001 190.716 142.86 190.939 142.86 190.939 Z" style="stroke: black; fill: none;"/>
  <path d="M 212.09 189.51 C 211.587 189.51 206.289 192.366 207.562 192.366 C 209.963 192.366 214.606 196.065 214.606 193.794 C 214.606 190.939 211.587 189.035 211.587 189.035 Z" style="stroke: black; fill: none;"/>
  <path d="M 376.57 376.565 C 376.57 376.565 371.609 379.388 370.826 379.834 C 367.197 381.899 352.773 388.778 352.773 390.575 C 352.773 390.575 332.258 378.9 332.258 378.9 C 331.848 378.9 335.735 376.336 336.361 376.098 C 340.557 374.506 347.769 371.986 350.721 368.625 C 351.733 367.474 355.669 365.824 354.825 365.824 C 356.85 363.518 370.949 372.502 372.467 374.23 C 373.477 375.38 377.801 376.565 377.801 376.565 Z" style="stroke: black; fill: none;"/>
  <path d="M 332.668 379.367 C 332.668 378.9 332.668 389.604 332.668 391.042 C 332.668 403.358 331.848 415.605 331.848 427.937 C 331.848 431.828 331.848 435.721 331.848 439.612 C 331.848 440.318 332.258 447.051 332.258 444.282 C 332.259 448.763 352.773 453.623 352.773 453.623 C 351.952 454.557 352.773 429.759 352.773 425.602 C 352.773 423.067 352.42 417.999 353.183 416.262 C 353.976 414.456 353.183 409.309 353.183 407.388 C 353.183 406.333 353.594 390.575 353.594 390.108" style="stroke: black; fill: none;"/>
  <path d="M 351.952 453.623 C 352.362 450.859 368.249 446.281 370.826 443.348 C 371.446 442.642 376.57 440.546 376.57 440.546 C 376.57 442.414 376.57 431.62 376.57 430.272 C 376.57 417.634 376.98 404.978 376.98 392.443 C 376.98 390.966 378.211 377.499 377.801 377.499" style="stroke: black; fill: none;"/>
  <path d="M 356.466 397.581 C 356.876 397.114 363.03 394.297 363.03 394.312 C 363.03 397.114 365.492 402.718 363.03 402.718 C 362.445 402.718 356.876 405.33 356.876 405.053 C 356.876 402.818 356.431 398.981 357.286 398.981 Z" style="stroke: black; fill: none;"/>
  <path d="M 366.723 393.845 C 366.312 393.845 372.057 388.138 372.057 390.575 C 372.057 393.533 374.655 399.448 372.057 399.448 C 370.023 399.448 366.312 404.098 366.312 401.784 C 366.312 400.624 366.545 394.109 366.723 394.312 Z" style="stroke: black; fill: none;"/>
  <path d="M 359.748 419.997 C 359.748 420.464 360.159 427.964 360.159 428.87 C 360.159 436.543 359.999 439.612 362.21 439.612 C 364.554 439.612 366.335 437.744 368.364 437.744 C 369.466 437.744 371.646 438.532 371.646 437.277 C 371.646 432.753 369.185 427.552 369.185 422.8 C 369.185 419.686 371.119 411.258 369.185 413.459 C 367.889 414.934 359.887 418.129 360.569 418.129 Z" style="stroke: black; fill: none;"/>
  <path d="M 335.131 391.042 C 332.311 390.575 346.155 392.91 343.336 392.91 C 342.081 392.91 341.486 400.85 341.285 400.85 C 341.17 400.85 334.31 398.636 334.31 398.514 C 334.31 396.338 335.541 392.443 335.541 392.443 Z" style="stroke: black; fill: none;"/>
  <path d="M 345.798 394.312 C 345.798 393.845 342.34 401.317 344.567 401.317 C 346.392 401.317 349.901 404.795 349.901 402.718 C 349.901 401 351.522 395.69 350.721 394.779 C 350.146 394.124 346.087 393.24 346.618 393.845 Z" style="stroke: black; fill: none;"/>
  <path d="M 335.951 407.388 C 335.541 407.388 348.67 407.402 348.67 407.855 C 348.67 410.849 350.07 416.729 347.439 416.729 C 345.709 416.729 334.72 414.041 334.72 412.992 C 334.72 412.018 334.967 406.454 335.951 406.454 Z" style="stroke: black; fill: none;"/>
  <path d="M 337.592 394.779 C 337.592 394.312 340.875 395.713 340.875 395.713" style="stroke: black; fill: none;"/>
  <path d="M 345.798 396.647 C 345.798 396.18 349.901 397.114 349.901 397.114" style="stroke: black; fill: none;"/>
  <path d="M 362.21 427.937 C 362.62 427.47 369.595 426.069 369.595 426.069" style="stroke: black; fill: none;"/>
  <path d="M 364.671 416.729 C 364.671 417.195 367.544 437.744 367.544 437.744" style="stroke: black; fill: none;"/>
  <path d="M 357.696 400.85 C 357.696 400.382 363.03 398.981 363.03 398.981" style="stroke: black; fill: none;"/>
  <path d="M 367.954 397.581 C 368.364 396.997 372.057 396.18 372.057 396.18" style="stroke: black; fill: none;"/>
  <path d="M 38.114 400.105 C 38.114 400.105 48.372 404.098 48.372 403.841 C 48.372 402.414 48.519 399.302 49.193 397.77 C 49.393 397.315 50.684 391.995 50.423 391.698 C 48.001 388.942 36.473 391.698 36.473 391.698 C 36.473 391.231 37.704 401.988 37.704 400.105 Z" style="stroke: black; fill: none;"/>
  <path d="M 30.319 404.775 C 30.319 405.242 44.972 409.445 46.32 409.445 C 47.85 409.445 51.953 411.78 50.423 411.78 C 47.948 411.78 46.043 418.786 45.5 418.786 C 42.22 418.786 38.999 414.115 36.473 414.115 C 33.043 414.115 30.374 411.78 28.268 411.78 C 27.165 411.78 23.882 411.313 24.985 411.313 C 27.893 411.313 31.55 404.775 31.55 404.775 Z" style="stroke: black; fill: none;"/>
  <path d="M 35.653 407.578 C 35.653 407.11 32.781 410.379 32.781 410.379" style="stroke: black; fill: none;"/>
  <path d="M 40.577 408.512 C 40.166 408.512 35.323 413.181 36.884 413.181" style="stroke: black; fill: none;"/>
  <path d="M 47.141 410.379 C 46.73 410.379 42.222 416.445 42.628 415.984" style="stroke: black; fill: none;"/>
  <path d="M 30.319 408.045 C 30.729 408.045 47.552 413.648 47.552 413.648" style="stroke: black; fill: none;"/>
  <path d="M 27.447 410.379 C 27.036 410.379 31.733 411.522 31.96 411.78 C 32.991 412.954 45.91 415.517 45.91 415.517" style="stroke: black; fill: none;"/>
  <path d="M 45.089 403.841 C 45.089 403.841 49.962 407.169 50.423 406.643 C 51.928 404.93 53.17 390.297 52.885 390.297 C 48.292 390.297 44.365 388.897 39.755 388.897 C 39.465 388.897 35.243 390.764 35.243 390.764 C 35.243 390.297 35.76 401.506 36.063 401.506 C 36.334 401.506 40.987 401.506 40.987 401.506 C 40.577 401.973 40.577 409.445 40.577 407.577 C 40.577 406.21 43.859 407.52 43.859 407.11 C 43.859 404.933 43.448 402.907 43.448 402.907 Z" style="stroke: black; fill: none;"/>
  <path d="M 240.722 377.608 C 240.312 377.608 235.552 378.075 234.978 378.075 C 233.794 378.075 220.618 380.459 220.618 381.344 C 220.618 390.533 222.259 398.166 222.259 407.03 C 222.259 408.165 222.266 415.903 223.079 415.903 C 225.341 415.903 243.594 418.005 243.594 413.569 C 243.594 406.169 245.157 391.996 241.543 387.882 C 240.566 386.77 241.543 378.542 241.543 378.542 Z" style="stroke: black; fill: none;"/>
  <path d="M 223.49 383.68 C 223.49 384.146 224.311 403.724 224.311 404.695 C 224.311 406.563 222.669 410.299 224.311 410.299 C 227.084 410.299 231.63 410.299 233.747 410.299 C 234.546 410.299 239.902 409.984 239.902 409.832 C 239.902 403.137 239.491 394.084 239.491 386.014 C 239.491 385.245 239.846 380.41 239.491 380.41 C 238.013 380.41 224.721 382.746 224.721 382.746 Z" style="stroke: black; fill: none;"/>
  <path d="M 231.696 411.7 C 231.286 411.7 227.046 415.436 230.875 415.436 C 234.598 415.436 235.462 410.766 231.696 410.766 Z" style="stroke: black; fill: none;"/>
  <text x="74.918" y="468.317" style="white-space: pre; font-size: 16px;" transform="matrix(0.649133, 0, 0, 0.738876, 285.267792, 117.590652)">Company A</text>
  <defs>
    <style id="bx-google-fonts">@import url(https://fonts.googleapis.com/css?family=Abel:400|Roboto:100,100italic,300,300italic,400,400italic,500,500italic,700,700italic,900,900italic);</style>
  </defs>
  <text x="-109.311" y="436.929" style="white-space: pre; font-size: 16px;" transform="matrix(0.649133, 0, 0, 0.738876, 76.05484, 109.373833)">Home Computer</text>
  <text x="210.836" y="434.403" style="white-space: pre; font-size: 16px;" transform="matrix(0.649133, 0, 0, 0.738876, 65.309761, 114.430336)">Mobile Device</text>
  <text x="136.86" y="49.004" style="font-size: 36; font-family: Roboto; white-space: pre;">Hybrid Cloud</text>
  <path d="M 84.401 322.665 C 85.222 321.731 71.507 320.663 68.81 322.198 C 62.654 325.701 64.023 328.58 60.194 332.94 C 57.382 336.141 51.964 330.151 47.885 332.473 C 43.449 334.997 38.576 341.492 42.961 346.483 C 49.727 354.184 55.171 347.128 62.245 351.153 C 73.128 357.346 80.709 360.96 90.966 349.285 C 93.277 346.653 97.746 351.743 99.171 352.554 C 103.696 355.129 109.091 357.146 114.352 356.29 C 121.783 355.082 125.408 346.319 133.226 349.285 C 151.089 356.062 167.082 365.313 184.512 352.087 C 188.063 349.393 194.269 353.073 197.231 354.423 C 206.628 358.701 229.645 358.714 229.645 343.681 C 229.645 321.403 209.025 336.596 199.283 329.203 C 194.62 325.665 190.268 319.089 184.923 317.061 C 177.219 314.138 171.893 320.797 165.639 320.797 C 160.075 320.797 154.799 316.963 150.868 314.726 C 145.853 311.871 137.043 324.604 130.354 320.797 C 120.432 315.151 116.84 314.011 106.557 319.863 C 102.694 322.061 98.615 314.809 94.658 317.061 C 90.442 319.46 88.977 322.665 84.811 322.665 L 84.401 322.665 Z" style="stroke: rgb(83, 163, 255); stroke-width: 3; fill: url(#gradient-0);"/>
  <text x="78.711" y="313.206" transform="matrix(0.649133, 0, 0, 0.738876, 65.309761, 115.062401)" style="white-space: pre;">Internet</text>
  <ellipse cx="67.095" cy="215.075" rx="8.206" ry="5.604" style="stroke: rgb(0, 0, 0); stroke-width: 2; fill: rgb(255, 255, 255);" transform="matrix(1.000001, 0, 0, 1.000005, 65.309683, 114.429737)"/>
  <path d="M 36.807 391.619 C 36.807 391.152 36.734 385.327 36.807 385.08 C 38.129 380.565 39.616 372.542 42.961 368.735 C 46.867 364.288 51.524 359.993 56.911 358.46 C 59.25 357.794 64.883 359.193 66.758 357.059 C 71.741 351.388 73.808 343.43 79.477 336.977 C 83.851 331.998 92.147 337.939 97.12 335.11 C 101.381 332.685 105.637 329.094 110.659 326.236 C 112.494 325.192 124.609 329.038 124.609 329.038" style="stroke: black; fill: none;"/>
  <path d="M 226.362 377.608 C 226.362 377.141 220.712 369.416 219.797 367.333 C 215.85 358.346 225.196 347.523 216.515 342.582 C 212.282 340.173 195.44 337.148 191.898 341.181 C 191.204 341.969 183.649 345.336 182.05 343.516 C 177.395 338.217 173.325 332.651 168.921 327.637 C 168.091 326.692 161.551 326.219 160.715 327.17 C 155.434 333.182 147.568 324.835 143.893 324.835 C 142.036 324.835 139.79 326.703 139.79 326.703" style="stroke: black; fill: none;"/>
  <path d="M 310.197 105.366 C 310.197 109.075 306.925 112.081 302.889 112.081 C 301.484 112.081 300.171 111.717 299.056 111.085 C 297.133 112.003 295 112.513 292.754 112.513 C 290.091 112.513 287.585 111.795 285.4 110.531 C 284.325 111.104 283.076 111.431 281.743 111.431 C 277.707 111.431 274.435 108.425 274.435 104.716 C 274.435 102.414 275.696 100.381 277.618 99.172 C 277.447 98.196 277.358 97.189 277.358 96.16 C 277.358 87.127 284.251 79.805 292.754 79.805 C 301.257 79.805 308.15 87.127 308.15 96.16 C 308.15 97.582 307.979 98.962 307.658 100.277 C 309.213 101.509 310.197 103.331 310.197 105.366 Z" style="stroke: rgb(0, 0, 0); fill: rgb(234, 194, 16); stroke-width: 2;"/>
  <ellipse cx="253.3" cy="100.924" rx="2.631" ry="2.599" style="fill: rgb(255, 98, 0); stroke-width: 2;" transform="matrix(0.999994, 0, 0, 1, 28.444325, 3.792381)"/>
  <ellipse cx="302.304" cy="104.5" rx="2.631" ry="2.599" style="fill: rgb(255, 98, 0); stroke-width: 2;"/>
  <path d="M 311.302 94.163 C 311.302 99.566 307.004 103.948 301.7 103.948 C 297.943 103.948 297.432 104.784 293.111 102.593 C 289.845 104.293 288.484 104.285 284.782 104.285 C 279.731 104.285 275.637 99.905 275.637 94.499 C 275.637 89.095 279.731 84.716 284.782 84.716 C 288.358 84.716 287.796 84.212 292.956 86.399 C 298.584 84.704 297.815 84.378 301.7 84.378 C 307.004 84.378 311.302 88.759 311.302 94.163 Z" style="stroke-linecap: round; stroke-width: 2; stroke: url(#gradient-3); fill: url(#gradient-4);"/>
  <path d="M 318.899 101.377 C 315.831 101.601 314.856 101.591 312.292 103.185 C 310.517 104.288 310.418 104.083 309.696 105.671 C 308.563 108.168 308.49 107.752 309.225 109.061 C 310.37 111.107 311.085 111.065 312.764 111.549 C 315.484 112.331 317.011 109.061 317.011 109.061 C 317.775 111.261 314.711 111.46 318.191 113.356 C 320.814 114.785 322.674 111.549 322.674 111.549 C 323.192 113.036 322.497 114.333 324.798 115.391 C 327.304 116.544 328.27 114.974 329.045 113.356 C 330.11 111.134 330.277 110.939 329.753 108.61 C 329.139 105.887 329.002 105.904 327.628 104.313 C 326.081 102.524 324.089 102.054 324.089 102.054 L 318.899 101.377 Z" style="stroke: rgb(0, 0, 0); fill: rgb(234, 194, 16); stroke-width: 2;"/>
  <ellipse cx="37.447" cy="66.298" rx="1.657" ry="3.033" style="stroke-width: 2;" transform="matrix(1, 0, 0, 1.000001, 249.949638, 27.153428)"/>
  <ellipse cx="297.043" cy="93.452" rx="1.657" ry="3.033" style="stroke-width: 2;"/>
  <ellipse cx="291.878" cy="102.117" rx="3.215" ry="3.033" style="stroke: rgb(0, 0, 0); fill: rgb(234, 194, 16); stroke-width: 2;"/>
  <path style="fill: none; stroke: black; stroke-linecap: round; stroke-width: 2;" d="M 288.839 108.308 L 295.66 108.308"/>
  <path d="M 265.092 112.917 C 262.322 112.651 261.442 112.664 259.126 110.791 C 257.524 109.493 257.434 109.734 256.783 107.866 C 255.759 104.932 255.694 105.418 256.357 103.879 C 257.391 101.474 258.036 101.524 259.553 100.955 C 262.008 100.032 263.387 103.879 263.387 103.879 C 264.077 101.294 261.31 101.058 264.452 98.829 C 266.82 97.148 268.499 100.955 268.499 100.955 C 268.967 99.206 268.34 97.68 270.418 96.436 C 272.68 95.081 273.552 96.926 274.252 98.828 C 275.214 101.443 275.365 101.671 274.89 104.411 C 274.338 107.613 274.214 107.592 272.974 109.462 C 271.575 111.569 269.778 112.12 269.778 112.12 L 265.092 112.917 Z" style="stroke: rgb(0, 0, 0); fill: rgb(234, 194, 16); stroke-width: 2;" transform="matrix(-1, 0, 0, -1, 531.05896, 207.998007)"/>
  <path d="M 288.354 72.876 C 288.354 72.592 290.883 75.785 291.18 76.277 C 292.584 78.6 292.465 81.68 292.465 84.215 C 292.979 83.082 293.129 80.878 293.236 80.53 C 293.99 78.031 295.963 76.103 297.601 74.294" style="fill: none; stroke-linecap: round; stroke: rgb(0, 0, 0); stroke-width: 2;"/>
  <path d="M 285.273 77.019 C 285.273 76.743 287.678 77.952 288.099 78.404 C 289.666 80.093 290.923 80.415 290.923 83.385" style="stroke: black; fill: none; stroke-linecap: round; stroke-width: 2;"/>
  <path d="M 347.97 370.724 C 347.338 370.724 330.469 367.662 330.272 367.564 C 319.973 362.414 308.875 359.625 304.357 346.074 C 298.633 328.902 319.052 310.836 304.357 296.141 C 294.416 286.198 273.631 293.857 265.169 285.396 C 263.196 283.422 258.217 282.44 258.217 279.707 C 258.217 273.92 256.111 264.958 258.849 259.481 C 262.605 251.969 258.393 246.475 256.32 238.623 C 255.049 233.806 259.106 219.946 220.925 198.171" style="stroke: black; fill: none;"/>
  <path d="M 223.16 196.649 C 222.657 196.649 218.014 196.065 220.141 198.077 C 220.701 198.607 227.185 200.34 227.185 199.505 C 227.185 196.285 223.16 195.697 223.16 195.697 Z" style="stroke: black; fill: none;"/>
  <text x="177.945" y="291.084" style="white-space: pre; font-size: 16px;">VPN</text>
  <path d="M 146.342 282.235 C 148.87 281.603 140.578 286.585 146.342 292.348 C 151.578 297.584 164.862 279.707 148.87 279.707 L 146.342 282.235 Z" style="stroke: black; fill: rgb(204, 204, 204); stroke-width: 2;"/>
  <path d="M 148.87 280.971 C 149.502 278.245 154.558 275.337 154.558 272.754 C 154.558 266.692 176.596 240.519 177.313 240.519 C 179.34 240.519 192.482 232.064 192.482 241.151 C 192.482 248.685 186.895 244.842 184.265 247.472 C 176.637 255.1 172.694 267.892 165.936 274.65 C 165.052 275.534 156.455 286.028 156.455 286.028" style="stroke: black; stroke-width: 2; fill: rgb(204, 204, 204);"/>
  <path d="M 190.46 240.819 C 190.963 240.819 190.656 228.467 190.656 223.419 C 190.656 217.402 184.862 211.681 184.862 208.681 C 184.862 208.548 170.325 196.649 170.325 196.649" style="stroke: black; fill: none;"/>
  <path d="M 149.502 287.292 C 148.87 287.292 140.021 293.738 140.021 294.876 C 140.021 300.503 134.964 312.407 134.964 315.735 C 134.964 319.969 133.068 328.187 133.068 323.952" style="stroke: black; fill: none;"/>
  <path d="M 156.455 287.924 C 155.823 287.924 156.474 280.339 153.926 280.339 C 150.212 280.339 146.342 284.763 146.342 284.763" style="stroke: black; fill: none;"/>
  <path d="M 171.332 197.125 C 171.332 196.649 164.793 196.176 167.81 199.029 C 170.184 201.274 171.835 197.601 171.835 197.601 Z" style="stroke: black; fill: none;"/>
  <path d="M 263.282 204.148 C 263.282 204.623 260.001 212.715 260.772 212.715 C 283.172 212.715 303.005 212.715 324.96 212.715 C 328.752 212.715 341.587 213.965 343.965 210.81 C 344.729 209.795 349.346 201.293 349.344 201.293 C 329.29 201.293 305.319 197.547 284.08 202.243 C 279.709 203.211 270.111 199.843 267.585 203.196 C 267.394 203.45 263.282 203.672 263.282 203.672 Z" style="stroke: black; fill: rgb(239, 142, 142);"/>
  <text x="78.711" y="313.206" transform="matrix(0.649133, 0, 0, 0.738876, 118.546616, -33.648533)" style="white-space: pre;">Intranet</text>
  <path d="M 268.962 158.351 C 268.962 157.719 285.22 165.128 286.66 166.568 C 292.26 172.168 280.971 181.489 280.971 185.53 C 280.971 190.291 287.924 200.699 287.924 200.699" style="stroke: black; fill: none;"/>
  <path d="M 220.925 163.407 C 221.557 162.775 239.644 165.498 241.783 166.568 C 248.348 169.85 241.524 182.11 245.576 186.162 C 250.717 191.303 259.934 185.351 265.169 190.586 C 266.657 192.074 270.226 201.331 270.226 201.331" style="stroke: black; fill: none;"/>
  <text x="78.711" y="313.206" transform="matrix(0.649133, 0, 0, 0.738876, 220.339249, -20.375214)" style="white-space: pre;">Public Gateway</text>
  <path d="M 90.088 262.641 C 90.088 263.273 90.509 263.695 90.72 263.905 Z" style="stroke: black; fill: none;"/>
  <path d="M 457.965 317.673 C 457.965 317.673 453.004 320.496 452.221 320.942 C 448.591 323.007 434.168 329.886 434.168 331.683 C 434.168 331.683 413.652 320.008 413.652 320.008 C 413.242 320.008 417.129 317.444 417.755 317.206 C 421.952 315.614 429.164 313.094 432.116 309.733 C 433.128 308.582 437.064 306.932 436.219 306.932 C 438.245 304.626 452.344 313.61 453.862 315.338 C 454.872 316.488 459.195 317.673 459.195 317.673 Z" style="stroke: black; fill: none;"/>
  <path d="M 414.061 320.475 C 414.061 320.008 414.061 330.712 414.061 332.15 C 414.061 344.466 413.242 356.713 413.242 369.045 C 413.242 372.936 413.242 376.829 413.242 380.72 C 413.242 381.426 413.652 388.159 413.652 385.39 C 413.654 389.871 434.168 394.731 434.168 394.731 C 433.346 395.665 434.168 370.867 434.168 366.71 C 434.168 364.175 433.814 359.107 434.577 357.37 C 435.37 355.564 434.577 350.417 434.577 348.496 C 434.577 347.441 434.989 331.683 434.989 331.216" style="stroke: black; fill: none;"/>
  <path d="M 433.346 394.731 C 433.755 391.967 449.643 387.389 452.221 384.456 C 452.84 383.75 457.965 381.654 457.965 381.654 C 457.965 383.522 457.965 372.728 457.965 371.38 C 457.965 358.742 458.375 346.086 458.375 333.551 C 458.375 332.074 459.604 318.607 459.195 318.607" style="stroke: black; fill: none;"/>
  <path d="M 437.861 338.689 C 438.271 338.222 444.424 335.405 444.424 335.42 C 444.424 338.222 446.887 343.826 444.424 343.826 C 443.84 343.826 438.271 346.438 438.271 346.161 C 438.271 343.926 437.825 340.089 438.681 340.089 Z" style="stroke: black; fill: none;"/>
  <path d="M 448.117 334.953 C 447.706 334.953 453.452 329.246 453.452 331.683 C 453.452 334.641 456.049 340.556 453.452 340.556 C 451.418 340.556 447.706 345.206 447.706 342.892 C 447.706 341.732 447.939 335.217 448.117 335.42 Z" style="stroke: black; fill: none;"/>
  <path d="M 441.143 361.105 C 441.143 361.572 441.553 369.072 441.553 369.978 C 441.553 377.651 441.393 380.72 443.604 380.72 C 445.948 380.72 447.729 378.852 449.758 378.852 C 450.861 378.852 453.04 379.64 453.04 378.385 C 453.04 373.861 450.579 368.66 450.579 363.908 C 450.579 360.794 452.513 352.366 450.579 354.567 C 449.284 356.042 441.281 359.237 441.963 359.237 Z" style="stroke: black; fill: none;"/>
  <path d="M 416.526 332.15 C 413.706 331.683 427.549 334.018 424.729 334.018 C 423.476 334.018 422.88 341.958 422.68 341.958 C 422.564 341.958 415.704 339.744 415.704 339.622 C 415.704 337.446 416.935 333.551 416.935 333.551 Z" style="stroke: black; fill: none;"/>
  <path d="M 427.193 335.42 C 427.193 334.953 423.734 342.425 425.961 342.425 C 427.786 342.425 431.294 345.903 431.294 343.826 C 431.294 342.108 432.917 336.798 432.116 335.887 C 431.54 335.232 427.482 334.348 428.013 334.953 Z" style="stroke: black; fill: none;"/>
  <path d="M 417.346 348.496 C 416.935 348.496 430.064 348.51 430.064 348.963 C 430.064 351.957 431.465 357.837 428.833 357.837 C 427.103 357.837 416.115 355.149 416.115 354.1 C 416.115 353.126 416.362 347.562 417.346 347.562 Z" style="stroke: black; fill: none;"/>
  <path d="M 418.987 335.887 C 418.987 335.42 422.268 336.821 422.268 336.821" style="stroke: black; fill: none;"/>
  <path d="M 427.193 337.755 C 427.193 337.288 431.294 338.222 431.294 338.222" style="stroke: black; fill: none;"/>
  <path d="M 443.604 369.045 C 444.015 368.578 450.99 367.177 450.99 367.177" style="stroke: black; fill: none;"/>
  <path d="M 446.065 357.837 C 446.065 358.303 448.939 378.852 448.939 378.852" style="stroke: black; fill: none;"/>
  <path d="M 439.09 341.958 C 439.09 341.49 444.424 340.089 444.424 340.089" style="stroke: black; fill: none;"/>
  <path d="M 449.349 338.689 C 449.758 338.105 453.452 337.288 453.452 337.288" style="stroke: black; fill: none;"/>
  <text x="74.918" y="468.317" style="white-space: pre; font-size: 16px;" transform="matrix(0.664548, 0, 0, 0.739448, 364.874725, 58.437386)">Company B</text>
  <path d="M 364.991 260.346 C 365.524 259.6 356.619 258.746 354.867 259.973 C 350.87 262.771 351.759 265.071 349.273 268.555 C 347.447 271.112 343.928 266.327 341.28 268.182 C 338.399 270.198 335.235 275.387 338.082 279.375 C 342.476 285.528 346.011 279.89 350.604 283.106 C 357.671 288.054 362.594 290.941 369.254 281.614 C 370.755 279.511 373.657 283.577 374.582 284.225 C 377.521 286.283 381.024 287.894 384.44 287.21 C 389.265 286.245 391.619 279.244 396.696 281.614 C 408.295 287.028 418.68 294.419 429.998 283.852 C 432.304 281.7 436.334 284.64 438.257 285.718 C 444.359 289.136 459.305 289.147 459.305 277.136 C 459.305 259.338 445.916 271.476 439.59 265.569 C 436.562 262.743 433.736 257.489 430.265 255.869 C 425.263 253.533 421.804 258.853 417.743 258.853 C 414.13 258.853 410.704 255.79 408.152 254.003 C 404.895 251.722 399.174 261.895 394.831 258.853 C 388.388 254.343 386.056 253.432 379.378 258.107 C 376.87 259.863 374.221 254.069 371.652 255.869 C 368.914 257.785 367.963 260.346 365.258 260.346 L 364.991 260.346 Z" style="stroke: rgb(83, 163, 255); stroke-width: 3; fill: url(#gradient-2);"/>
  <text x="78.711" y="313.206" transform="matrix(0.649133, 0, 0, 0.738876, 344.193237, 47.255569)" style="white-space: pre;">Internet</text>
  <ellipse cx="67.094" cy="263.589" rx="8.206" ry="6.868" style="stroke: rgb(0, 0, 0); stroke-width: 2; fill: rgb(255, 255, 255);" transform="matrix(1.000002, 0, 0, 1, 311.846852, 3.476807)"/>
  <path d="M 303.093 212.708 C 302.461 216.508 298.021 225.966 302.461 230.406 C 315.755 243.699 349.32 233.925 365.036 241.783 C 368.857 243.694 377.045 248.174 377.045 252.528 C 377.045 254.115 378.309 260.745 378.309 260.745" style="stroke: black; fill: none;"/>
  <path d="M 411.808 375.781 C 411.176 375.781 401.745 372.848 401.063 372.62 C 396.417 371.072 382.101 362.965 382.101 356.819 C 382.101 349.56 382.822 342.735 385.894 336.593 C 388.513 331.353 398.9 325.314 394.742 316.999 C 392.22 311.953 384.706 302.538 380.837 298.669 C 378.101 295.933 380.837 271.49 380.837 271.49" style="stroke: black; fill: none;"/>
</svg>