<?xml version="1.0" encoding="utf-8"?>
<svg viewBox="0 0 500 500" xmlns="http://www.w3.org/2000/svg">
  <defs>
    <style id="bx-google-fonts">@import url(https://fonts.googleapis.com/css?family=Abel:400|Roboto:100,300,500,700,900,100italic,300italic,400,400italic,500italic,700italic,900italic);</style>
    <radialGradient id="gradient-0" gradientUnits="userSpaceOnUse" cx="230.505" cy="293.678" r="147.172" gradientTransform="matrix(0.649133, 0, 0, 0.738876, -15.518139, 120.968521)">
      <stop offset="0" style="stop-color: rgb(255, 255, 255);"/>
      <stop offset="1" style="stop-color: rgb(77, 181, 255);"/>
    </radialGradient>
    <radialGradient id="gradient-1" gradientUnits="userSpaceOnUse" cx="236.185" cy="152.682" r="153.445" gradientTransform="matrix(-0.090145, 1.091547, -3.10631, -0.256534, 731.748426, -65.956945)">
      <stop offset="0" style="stop-color: rgb(255, 255, 255);"/>
      <stop offset="1" style="stop-color: rgb(46, 185, 39);"/>
    </radialGradient>
  </defs>
  <path d="M 88.191 153.294 C 87.559 153.294 86.761 135.762 88.191 134.332 C 94.939 127.584 99.678 115.892 107.153 108.418 C 114.398 101.172 127.978 97.041 139.388 97.041 C 142.476 97.041 150.231 96.214 152.662 97.673 C 154.277 98.642 157.718 102.085 157.718 100.201 C 157.718 78.373 199.881 73.505 216.5 67.966 C 225.711 64.895 255.96 71.671 259.48 78.711 C 261.293 82.337 266.033 84.232 267.697 87.56 C 267.903 87.972 270.747 94.512 270.857 94.512 C 270.892 94.512 277.703 87.666 278.442 86.928 C 284.985 80.385 311.695 82.842 320.158 85.663 C 332.128 89.653 349.617 93.632 357.45 101.465 C 366.687 110.702 367.563 121.299 367.563 135.596 C 367.563 139.267 367.095 144.75 365.667 147.606 C 364.862 149.216 361.971 152.662 363.771 152.662 C 377.165 152.662 382.599 170.092 387.789 180.473 C 388.515 181.924 389.626 192.541 388.421 193.746 C 383.722 198.445 383.707 219.029 373.252 219.029 C 366.088 219.029 356.658 225.586 348.601 221.557 C 346.749 220.631 339.81 220.982 338.488 219.661 C 337.619 218.792 335.328 216.536 335.328 217.765 C 335.328 220.374 324.583 222.759 324.583 224.085 C 324.583 225.79 318.475 227.033 316.998 228.51 C 311.074 234.433 292.643 236.541 282.235 238.623 C 260.366 242.996 235.151 242.812 213.34 237.359 C 208.447 236.135 198.202 227.878 196.274 227.878 C 192.627 227.878 180.43 230.743 176.048 232.934 C 163.34 239.288 134.983 227.566 123.587 224.717 C 115.998 222.82 109.401 214.956 104.625 210.18 C 102.153 207.708 104.002 200.076 101.464 197.539 C 100.598 196.672 103.557 183.001 102.729 183.001 C 94.45 183.001 88.514 176.371 83.767 171.624 C 82.735 170.592 87.559 153.294 87.559 153.294 Z" style="fill: url(#gradient-1); stroke-width: 3; stroke: rgb(0, 0, 0);"/>
  <path d="M 127.38 143.181 C 127.38 143.181 134.963 132.435 134.964 132.436 C 137.944 135.416 147.606 128.222 147.606 132.436 C 147.606 134.276 141.744 142.723 140.021 144.445 C 138.258 146.209 125.484 144.445 125.484 144.445 C 126.116 144.445 132.436 173.52 132.436 173.52 C 133.861 172.808 141.917 172.888 141.917 172.888 C 143.181 172.888 140.021 145.077 140.021 144.445" style="stroke: black; fill: none;"/>
  <path d="M 142.549 172.888 C 141.917 172.888 148.87 168.464 148.87 168.464 C 150.134 170.992 148.87 148.438 148.87 142.549 C 148.87 140.579 147.606 132.436 147.606 131.804" style="stroke: black; fill: none;"/>
  <path d="M 135.597 150.766 C 135.597 150.766 137.791 155.823 133.068 155.823 C 132.938 155.823 129.908 150.134 129.908 150.134 C 130.54 150.134 137.493 149.502 137.493 149.502 Z" style="stroke: black; fill: none;"/>
  <path d="M 133.068 157.087 C 133.068 157.719 138.125 155.388 138.125 157.087 C 138.125 158.983 140.021 162.775 138.125 162.775 C 136.52 162.775 133.7 166.276 133.7 164.671 C 133.7 163.28 132.436 158.351 132.436 158.351 Z" style="stroke: black; fill: none;"/>
  <path d="M 142.549 148.87 C 142.549 148.238 147.606 144.445 147.606 144.445" style="stroke: black; fill: none;"/>
  <path d="M 142.549 155.823 C 142.549 155.191 149.502 151.398 149.502 151.398" style="stroke: black; fill: none;"/>
  <path d="M 143.181 162.143 C 143.181 161.511 148.87 157.087 148.87 157.087" style="stroke: black; fill: none;"/>
  <path d="M 128.012 151.398 C 128.012 152.03 119.163 155.338 119.163 155.823 C 119.163 157.929 117.056 162.143 119.163 162.143 C 119.838 162.143 127.38 162.385 127.38 160.247 C 127.38 159.782 127.38 154.558 127.38 154.558" style="stroke: black; fill: none;"/>
  <path d="M 119.163 162.143 C 119.163 162.775 123.587 175.068 123.587 172.256 C 125.403 174.072 128.012 171.624 128.012 171.624 C 127.38 171.624 127.38 162.775 127.38 162.143" style="stroke: black; fill: none;"/>
  <path d="M 127.38 172.888 C 128.012 172.888 131.172 170.992 131.172 170.992" style="stroke: black; fill: none;"/>
  <text x="126.748" y="186.794" style="font-family: Abel; white-space: pre;">DC1</text>
  <path d="M 190.352 127.758 C 190.352 127.758 197.935 117.012 197.936 117.013 C 200.916 119.993 210.578 112.799 210.578 117.013 C 210.578 118.853 204.716 127.3 202.993 129.022 C 201.23 130.786 188.456 129.022 188.456 129.022 C 189.088 129.022 195.408 158.097 195.408 158.097 C 196.833 157.385 204.889 157.465 204.889 157.465 C 206.153 157.465 202.993 129.654 202.993 129.022" style="stroke: black; fill: none;"/>
  <path d="M 205.521 157.465 C 204.889 157.465 211.842 153.041 211.842 153.041 C 213.106 155.569 211.842 133.015 211.842 127.126 C 211.842 125.156 210.578 117.013 210.578 116.381" style="stroke: black; fill: none;"/>
  <path d="M 198.569 135.343 C 198.569 135.343 200.763 140.4 196.04 140.4 C 195.91 140.4 192.88 134.711 192.88 134.711 C 193.512 134.711 200.465 134.079 200.465 134.079 Z" style="stroke: black; fill: none;"/>
  <path d="M 196.04 141.664 C 196.04 142.296 201.097 139.965 201.097 141.664 C 201.097 143.56 202.993 147.352 201.097 147.352 C 199.492 147.352 196.672 150.853 196.672 149.248 C 196.672 147.857 195.408 142.928 195.408 142.928 Z" style="stroke: black; fill: none;"/>
  <path d="M 205.521 133.447 C 205.521 132.815 210.578 129.022 210.578 129.022" style="stroke: black; fill: none;"/>
  <path d="M 205.521 140.4 C 205.521 139.768 212.474 135.975 212.474 135.975" style="stroke: black; fill: none;"/>
  <path d="M 206.153 146.72 C 206.153 146.088 211.842 141.664 211.842 141.664" style="stroke: black; fill: none;"/>
  <path d="M 190.984 135.975 C 190.984 136.607 182.135 139.915 182.135 140.4 C 182.135 142.506 180.028 146.72 182.135 146.72 C 182.81 146.72 190.352 146.962 190.352 144.824 C 190.352 144.359 190.352 139.135 190.352 139.135" style="stroke: black; fill: none;"/>
  <path d="M 182.135 146.72 C 182.135 147.352 186.559 159.645 186.559 156.833 C 188.375 158.649 190.984 156.201 190.984 156.201 C 190.352 156.201 190.352 147.352 190.352 146.72" style="stroke: black; fill: none;"/>
  <path d="M 190.352 157.465 C 190.984 157.465 194.144 155.569 194.144 155.569" style="stroke: black; fill: none;"/>
  <text x="189.72" y="171.371" style="font-family: Abel; white-space: pre; font-size: 16px;">DC2</text>
  <path d="M 241.543 142.295 C 241.543 142.295 249.126 131.549 249.127 131.55 C 252.107 134.53 261.769 127.336 261.769 131.55 C 261.769 133.39 255.907 141.837 254.184 143.559 C 252.421 145.323 239.647 143.559 239.647 143.559 C 240.279 143.559 246.599 172.634 246.599 172.634 C 248.024 171.922 256.08 172.002 256.08 172.002 C 257.344 172.002 254.184 144.191 254.184 143.559" style="stroke: black; fill: none;"/>
  <path d="M 256.712 172.002 C 256.08 172.002 263.033 167.578 263.033 167.578 C 264.297 170.106 263.033 147.552 263.033 141.663 C 263.033 139.693 261.769 131.55 261.769 130.918" style="stroke: black; fill: none;"/>
  <path d="M 249.76 149.88 C 249.76 149.88 251.954 154.937 247.231 154.937 C 247.101 154.937 244.071 149.248 244.071 149.248 C 244.703 149.248 251.656 148.616 251.656 148.616 Z" style="stroke: black; fill: none;"/>
  <path d="M 247.231 156.201 C 247.231 156.833 252.288 154.502 252.288 156.201 C 252.288 158.097 254.184 161.889 252.288 161.889 C 250.683 161.889 247.863 165.39 247.863 163.785 C 247.863 162.394 246.599 157.465 246.599 157.465 Z" style="stroke: black; fill: none;"/>
  <path d="M 256.712 147.984 C 256.712 147.352 261.769 143.559 261.769 143.559" style="stroke: black; fill: none;"/>
  <path d="M 256.712 154.937 C 256.712 154.305 263.665 150.512 263.665 150.512" style="stroke: black; fill: none;"/>
  <path d="M 257.344 161.257 C 257.344 160.625 263.033 156.201 263.033 156.201" style="stroke: black; fill: none;"/>
  <path d="M 242.175 150.512 C 242.175 151.144 233.326 154.452 233.326 154.937 C 233.326 157.043 231.219 161.257 233.326 161.257 C 234.001 161.257 241.543 161.499 241.543 159.361 C 241.543 158.896 241.543 153.672 241.543 153.672" style="stroke: black; fill: none;"/>
  <path d="M 233.326 161.257 C 233.326 161.889 237.75 174.182 237.75 171.37 C 239.566 173.186 242.175 170.738 242.175 170.738 C 241.543 170.738 241.543 161.889 241.543 161.257" style="stroke: black; fill: none;"/>
  <path d="M 241.543 172.002 C 242.175 172.002 245.335 170.106 245.335 170.106" style="stroke: black; fill: none;"/>
  <text x="240.911" y="185.908" style="font-family: Abel; white-space: pre; font-size: 16px;">DC3</text>
  <path d="M 297.798 134.073 C 297.798 134.073 305.381 123.327 305.382 123.328 C 308.362 126.308 318.024 119.114 318.024 123.328 C 318.024 125.168 312.162 133.615 310.439 135.337 C 308.676 137.101 295.902 135.337 295.902 135.337 C 296.534 135.337 302.854 164.412 302.854 164.412 C 304.279 163.7 312.335 163.78 312.335 163.78 C 313.599 163.78 310.439 135.969 310.439 135.337" style="stroke: black; fill: none;"/>
  <path d="M 312.967 163.78 C 312.335 163.78 319.288 159.356 319.288 159.356 C 320.552 161.884 319.288 139.33 319.288 133.441 C 319.288 131.471 318.024 123.328 318.024 122.696" style="stroke: black; fill: none;"/>
  <path d="M 306.015 141.658 C 306.015 141.658 308.209 146.715 303.486 146.715 C 303.356 146.715 300.326 141.026 300.326 141.026 C 300.958 141.026 307.911 140.394 307.911 140.394 Z" style="stroke: black; fill: none;"/>
  <path d="M 303.486 147.979 C 303.486 148.611 308.543 146.28 308.543 147.979 C 308.543 149.875 310.439 153.667 308.543 153.667 C 306.938 153.667 304.118 157.168 304.118 155.563 C 304.118 154.172 302.854 149.243 302.854 149.243 Z" style="stroke: black; fill: none;"/>
  <path d="M 312.967 139.762 C 312.967 139.13 318.024 135.337 318.024 135.337" style="stroke: black; fill: none;"/>
  <path d="M 312.967 146.715 C 312.967 146.083 319.92 142.29 319.92 142.29" style="stroke: black; fill: none;"/>
  <path d="M 313.599 153.035 C 313.599 152.403 319.288 147.979 319.288 147.979" style="stroke: black; fill: none;"/>
  <path d="M 298.43 142.29 C 298.43 142.922 289.581 146.23 289.581 146.715 C 289.581 148.821 287.474 153.035 289.581 153.035 C 290.256 153.035 297.798 153.277 297.798 151.139 C 297.798 150.674 297.798 145.45 297.798 145.45" style="stroke: black; fill: none;"/>
  <path d="M 289.581 153.035 C 289.581 153.667 294.005 165.96 294.005 163.148 C 295.821 164.964 298.43 162.516 298.43 162.516 C 297.798 162.516 297.798 153.667 297.798 153.035" style="stroke: black; fill: none;"/>
  <path d="M 297.798 163.78 C 298.43 163.78 301.59 161.884 301.59 161.884" style="stroke: black; fill: none;"/>
  <text x="240.911" y="185.908" style="font-family: Abel; white-space: pre; font-size: 16px;" transform="matrix(1.000001, 0, 0, 1, 56.254856, -8.222251)">DC4</text>
  <path d="M 150.134 168.464 C 150.766 168.464 146.342 170.069 146.342 171.624 C 146.342 173.644 153.094 175.617 154.558 174.152 C 158.374 170.337 150.766 167.832 150.766 167.832 Z" style="stroke: black; fill: none;"/>
  <path d="M 211.444 153.926 C 210.812 153.926 210.766 165.349 217.133 158.983 C 222.274 153.841 212.708 152.662 212.708 152.662 Z" style="stroke: black; fill: none;"/>
  <path d="M 263.273 167.2 C 263.905 167.2 257.382 168.261 260.113 170.992 C 267.331 178.21 265.169 166.568 265.169 166.568 Z" style="stroke: black; fill: none;"/>
  <path d="M 319.527 158.983 C 319.527 159.615 315.148 164.671 319.527 164.671 C 325.527 164.671 329.558 158.351 322.055 158.351 Z" style="stroke: black; fill: none;"/>
  <path d="M 153.926 170.992 C 153.294 170.992 169.316 174.564 163.407 180.473 C 160.44 183.44 141.664 201.078 146.342 205.756 C 147.877 207.291 153.114 211.444 156.455 211.444 C 158.631 211.444 165.303 211.344 165.303 211.444 C 167.01 208.034 158.706 209.271 162.775 213.34 C 167.385 217.95 166.568 208.916 166.568 208.916" style="stroke: black; fill: none;"/>
  <path d="M 215.237 157.087 C 215.869 157.087 233.743 165.759 226.614 172.888 C 219.762 179.74 212.761 187.373 206.388 193.746 C 203.2 196.934 201.493 201.169 199.435 203.227 C 197.128 205.535 200.699 209.21 200.699 207.652 C 200.072 206.398 198.228 202.538 196.275 204.491 C 195.14 205.626 192.774 208.916 194.378 208.916 C 197.941 208.916 209.957 204.491 199.435 204.491" style="stroke: black; fill: none;"/>
  <path d="M 264.537 170.36 C 264.537 169.728 271.332 170.281 271.49 170.36 C 274.027 171.629 285.707 181.426 279.707 187.426 C 274.344 192.789 263.169 191.322 258.217 196.275 C 257.87 196.621 247.424 207.652 253.792 207.652" style="stroke: black; fill: none;"/>
  <path d="M 322.687 160.879 C 323.319 160.879 354.892 171.654 344.809 181.737 C 336.283 190.264 324.472 191.33 316.999 198.803 C 316.176 199.626 310.678 206.388 310.678 206.388 C 310.678 198.076 303.461 208.916 304.99 208.916 C 308.231 208.916 316.466 204.491 311.31 204.491" style="stroke: black; fill: none;"/>
  <path d="M 167.832 206.388 C 167.832 207.02 162.048 217.765 163.407 217.765 C 202.891 217.765 237.848 217.765 276.547 217.765 C 283.232 217.765 305.855 219.427 310.046 215.237 C 311.394 213.888 319.531 202.595 319.527 202.595 C 284.179 202.595 241.928 197.62 204.491 203.859 C 196.786 205.144 179.869 200.671 175.417 205.124 C 175.08 205.46 167.832 205.756 167.832 205.756 Z" style="stroke: black; fill: none;"/>
  <path d="M 253.16 203.859 C 252.528 203.859 245.874 207.652 247.472 207.652 C 250.488 207.652 256.321 212.565 256.321 209.548 C 256.321 205.757 252.528 203.227 252.528 203.227 Z" style="stroke: black; fill: none;"/>
  <path d="M 376.57 376.565 C 376.57 376.565 371.609 379.388 370.826 379.834 C 367.197 381.899 352.773 388.778 352.773 390.575 C 352.773 390.575 332.258 378.9 332.258 378.9 C 331.848 378.9 335.735 376.336 336.361 376.098 C 340.557 374.506 347.769 371.986 350.721 368.625 C 351.733 367.474 355.669 365.824 354.825 365.824 C 356.85 363.518 370.949 372.502 372.467 374.23 C 373.477 375.38 377.801 376.565 377.801 376.565 Z" style="stroke: black; fill: none;"/>
  <path d="M 332.668 379.367 C 332.668 378.9 332.668 389.604 332.668 391.042 C 332.668 403.358 331.848 415.605 331.848 427.937 C 331.848 431.828 331.848 435.721 331.848 439.612 C 331.848 440.318 332.258 447.051 332.258 444.282 C 332.259 448.763 352.773 453.623 352.773 453.623 C 351.952 454.557 352.773 429.759 352.773 425.602 C 352.773 423.067 352.42 417.999 353.183 416.262 C 353.976 414.456 353.183 409.309 353.183 407.388 C 353.183 406.333 353.594 390.575 353.594 390.108" style="stroke: black; fill: none;"/>
  <path d="M 351.952 453.623 C 352.362 450.859 368.249 446.281 370.826 443.348 C 371.446 442.642 376.57 440.546 376.57 440.546 C 376.57 442.414 376.57 431.62 376.57 430.272 C 376.57 417.634 376.98 404.978 376.98 392.443 C 376.98 390.966 378.211 377.499 377.801 377.499" style="stroke: black; fill: none;"/>
  <path d="M 356.466 397.581 C 356.876 397.114 363.03 394.297 363.03 394.312 C 363.03 397.114 365.492 402.718 363.03 402.718 C 362.445 402.718 356.876 405.33 356.876 405.053 C 356.876 402.818 356.431 398.981 357.286 398.981 Z" style="stroke: black; fill: none;"/>
  <path d="M 366.723 393.845 C 366.312 393.845 372.057 388.138 372.057 390.575 C 372.057 393.533 374.655 399.448 372.057 399.448 C 370.023 399.448 366.312 404.098 366.312 401.784 C 366.312 400.624 366.545 394.109 366.723 394.312 Z" style="stroke: black; fill: none;"/>
  <path d="M 359.748 419.997 C 359.748 420.464 360.159 427.964 360.159 428.87 C 360.159 436.543 359.999 439.612 362.21 439.612 C 364.554 439.612 366.335 437.744 368.364 437.744 C 369.466 437.744 371.646 438.532 371.646 437.277 C 371.646 432.753 369.185 427.552 369.185 422.8 C 369.185 419.686 371.119 411.258 369.185 413.459 C 367.889 414.934 359.887 418.129 360.569 418.129 Z" style="stroke: black; fill: none;"/>
  <path d="M 335.131 391.042 C 332.311 390.575 346.155 392.91 343.336 392.91 C 342.081 392.91 341.486 400.85 341.285 400.85 C 341.17 400.85 334.31 398.636 334.31 398.514 C 334.31 396.338 335.541 392.443 335.541 392.443 Z" style="stroke: black; fill: none;"/>
  <path d="M 345.798 394.312 C 345.798 393.845 342.34 401.317 344.567 401.317 C 346.392 401.317 349.901 404.795 349.901 402.718 C 349.901 401 351.522 395.69 350.721 394.779 C 350.146 394.124 346.087 393.24 346.618 393.845 Z" style="stroke: black; fill: none;"/>
  <path d="M 335.951 407.388 C 335.541 407.388 348.67 407.402 348.67 407.855 C 348.67 410.849 350.07 416.729 347.439 416.729 C 345.709 416.729 334.72 414.041 334.72 412.992 C 334.72 412.018 334.967 406.454 335.951 406.454 Z" style="stroke: black; fill: none;"/>
  <path d="M 337.592 394.779 C 337.592 394.312 340.875 395.713 340.875 395.713" style="stroke: black; fill: none;"/>
  <path d="M 345.798 396.647 C 345.798 396.18 349.901 397.114 349.901 397.114" style="stroke: black; fill: none;"/>
  <path d="M 362.21 427.937 C 362.62 427.47 369.595 426.069 369.595 426.069" style="stroke: black; fill: none;"/>
  <path d="M 364.671 416.729 C 364.671 417.195 367.544 437.744 367.544 437.744" style="stroke: black; fill: none;"/>
  <path d="M 357.696 400.85 C 357.696 400.382 363.03 398.981 363.03 398.981" style="stroke: black; fill: none;"/>
  <path d="M 367.954 397.581 C 368.364 396.997 372.057 396.18 372.057 396.18" style="stroke: black; fill: none;"/>
  <path d="M 38.114 400.105 C 38.114 400.105 48.372 404.098 48.372 403.841 C 48.372 402.414 48.519 399.302 49.193 397.77 C 49.393 397.315 50.684 391.995 50.423 391.698 C 48.001 388.942 36.473 391.698 36.473 391.698 C 36.473 391.231 37.704 401.988 37.704 400.105 Z" style="stroke: black; fill: none;"/>
  <path d="M 30.319 404.775 C 30.319 405.242 44.972 409.445 46.32 409.445 C 47.85 409.445 51.953 411.78 50.423 411.78 C 47.948 411.78 46.043 418.786 45.5 418.786 C 42.22 418.786 38.999 414.115 36.473 414.115 C 33.043 414.115 30.374 411.78 28.268 411.78 C 27.165 411.78 23.882 411.313 24.985 411.313 C 27.893 411.313 31.55 404.775 31.55 404.775 Z" style="stroke: black; fill: none;"/>
  <path d="M 35.653 407.578 C 35.653 407.11 32.781 410.379 32.781 410.379" style="stroke: black; fill: none;"/>
  <path d="M 40.577 408.512 C 40.166 408.512 35.323 413.181 36.884 413.181" style="stroke: black; fill: none;"/>
  <path d="M 47.141 410.379 C 46.73 410.379 42.222 416.445 42.628 415.984" style="stroke: black; fill: none;"/>
  <path d="M 30.319 408.045 C 30.729 408.045 47.552 413.648 47.552 413.648" style="stroke: black; fill: none;"/>
  <path d="M 27.447 410.379 C 27.036 410.379 31.733 411.522 31.96 411.78 C 32.991 412.954 45.91 415.517 45.91 415.517" style="stroke: black; fill: none;"/>
  <path d="M 45.089 403.841 C 45.089 403.841 49.962 407.169 50.423 406.643 C 51.928 404.93 53.17 390.297 52.885 390.297 C 48.292 390.297 44.365 388.897 39.755 388.897 C 39.465 388.897 35.243 390.764 35.243 390.764 C 35.243 390.297 35.76 401.506 36.063 401.506 C 36.334 401.506 40.987 401.506 40.987 401.506 C 40.577 401.973 40.577 409.445 40.577 407.577 C 40.577 406.21 43.859 407.52 43.859 407.11 C 43.859 404.933 43.448 402.907 43.448 402.907 Z" style="stroke: black; fill: none;"/>
  <path d="M 240.722 377.608 C 240.312 377.608 235.552 378.075 234.978 378.075 C 233.794 378.075 220.618 380.459 220.618 381.344 C 220.618 390.533 222.259 398.166 222.259 407.03 C 222.259 408.165 222.266 415.903 223.079 415.903 C 225.341 415.903 243.594 418.005 243.594 413.569 C 243.594 406.169 245.157 391.996 241.543 387.882 C 240.566 386.77 241.543 378.542 241.543 378.542 Z" style="stroke: black; fill: none;"/>
  <path d="M 223.49 383.68 C 223.49 384.146 224.311 403.724 224.311 404.695 C 224.311 406.563 222.669 410.299 224.311 410.299 C 227.084 410.299 231.63 410.299 233.747 410.299 C 234.546 410.299 239.902 409.984 239.902 409.832 C 239.902 403.137 239.491 394.084 239.491 386.014 C 239.491 385.245 239.846 380.41 239.491 380.41 C 238.013 380.41 224.721 382.746 224.721 382.746 Z" style="stroke: black; fill: none;"/>
  <path d="M 231.696 411.7 C 231.286 411.7 227.046 415.436 230.875 415.436 C 234.598 415.436 235.462 410.766 231.696 410.766 Z" style="stroke: black; fill: none;"/>
  <text x="74.918" y="468.317" style="white-space: pre; font-size: 16px;" transform="matrix(0.649133, 0, 0, 0.738876, 285.267792, 117.590652)">Company</text>
  <defs>
    <style id="bx-google-fonts">@import url(https://fonts.googleapis.com/css?family=Abel:400|Roboto:100,100italic,300,300italic,400,400italic,500,500italic,700,700italic,900,900italic);</style>
  </defs>
  <text x="-109.311" y="436.929" style="white-space: pre; font-size: 16px;" transform="matrix(0.649133, 0, 0, 0.738876, 76.05484, 109.373833)">Home Computer</text>
  <text x="210.836" y="434.403" style="white-space: pre; font-size: 16px;" transform="matrix(0.649133, 0, 0, 0.738876, 65.309761, 114.430336)">Mobile Device</text>
  <text x="138.757" y="50.268" style="font-size: 36; font-family: Roboto; white-space: pre;">Private Cloud</text>
  <path d="M 84.401 322.033 C 85.222 321.099 71.507 320.031 68.81 321.566 C 62.654 325.069 64.023 327.948 60.194 332.308 C 57.382 335.509 51.964 329.519 47.885 331.841 C 43.449 334.365 38.576 340.86 42.961 345.851 C 49.727 353.552 55.171 346.496 62.245 350.521 C 73.128 356.714 80.709 360.328 90.966 348.653 C 93.277 346.021 97.746 351.111 99.171 351.922 C 103.696 354.497 109.091 356.514 114.352 355.658 C 121.783 354.45 125.408 345.687 133.226 348.653 C 151.089 355.43 167.082 364.681 184.512 351.455 C 188.063 348.761 194.269 352.441 197.231 353.791 C 206.628 358.069 229.645 358.082 229.645 343.049 C 229.645 320.771 209.025 335.964 199.283 328.571 C 194.62 325.033 190.268 318.457 184.923 316.429 C 177.219 313.506 171.893 320.165 165.639 320.165 C 160.075 320.165 154.799 316.331 150.868 314.094 C 145.853 311.239 137.043 323.972 130.354 320.165 C 120.432 314.519 116.84 313.379 106.557 319.231 C 102.694 321.429 98.615 314.177 94.658 316.429 C 90.442 318.828 88.977 322.033 84.811 322.033 L 84.401 322.033 Z" style="stroke: rgb(83, 163, 255); stroke-width: 3; fill: url(#gradient-0);"/>
  <text x="78.711" y="313.206" transform="matrix(0.649133, 0, 0, 0.738876, 65.309761, 114.430336)" style="white-space: pre;">Internet</text>
  <ellipse cx="67.095" cy="215.074" rx="8.206" ry="5.604" style="stroke: rgb(0, 0, 0); stroke-width: 2; fill: rgb(255, 255, 255);" transform="matrix(1.000001, 0, 0, 1.000003, 65.309691, 114.430902)"/>
  <path d="M 36.807 391.619 C 36.807 391.152 36.734 385.327 36.807 385.08 C 38.129 380.565 39.616 372.542 42.961 368.735 C 46.867 364.288 51.524 359.993 56.911 358.46 C 59.25 357.794 64.883 359.193 66.758 357.059 C 71.741 351.388 73.808 343.43 79.477 336.977 C 83.851 331.998 92.147 337.939 97.12 335.11 C 101.381 332.685 105.637 329.094 110.659 326.236 C 112.494 325.192 124.609 329.038 124.609 329.038" style="stroke: black; fill: none;"/>
  <path d="M 226.362 377.608 C 226.362 377.141 220.712 369.416 219.797 367.333 C 215.85 358.346 225.196 347.523 216.515 342.582 C 212.282 340.173 195.44 337.148 191.898 341.181 C 191.204 341.969 183.649 345.336 182.05 343.516 C 177.395 338.217 173.325 332.651 168.921 327.637 C 168.091 326.692 161.551 326.219 160.715 327.17 C 155.434 333.182 147.568 324.835 143.893 324.835 C 142.036 324.835 139.79 326.703 139.79 326.703" style="stroke: black; fill: none;"/>
  <path d="M 374.013 98.82 C 374.013 103.746 369.903 107.739 364.833 107.739 C 363.068 107.739 361.419 107.255 360.019 106.416 C 357.603 107.635 354.923 108.313 352.102 108.313 C 348.757 108.313 345.61 107.359 342.865 105.68 C 341.514 106.441 339.945 106.876 338.271 106.876 C 333.201 106.876 329.091 102.883 329.091 97.957 C 329.091 94.899 330.675 92.2 333.09 90.594 C 332.875 89.297 332.763 87.96 332.763 86.593 C 332.763 74.597 341.421 64.872 352.102 64.872 C 362.783 64.872 371.442 74.597 371.442 86.593 C 371.442 88.482 371.227 90.315 370.823 92.062 C 372.777 93.697 374.013 96.118 374.013 98.82 Z" style="stroke: rgb(0, 0, 0); fill: rgb(234, 194, 16); stroke-width: 2;"/>
  <ellipse cx="338.271" cy="97.957" rx="3.305" ry="3.452" style="fill: rgb(255, 98, 0); stroke-width: 2;"/>
  <ellipse cx="364.098" cy="97.67" rx="3.305" ry="3.452" style="fill: rgb(255, 98, 0); stroke-width: 2;"/>
  <path d="M 375.401 82.262 C 375.401 89.438 370.002 95.258 363.339 95.258 C 358.62 95.258 357.979 96.369 352.551 93.458 C 348.448 95.716 346.739 95.706 342.088 95.706 C 335.744 95.706 330.601 89.888 330.601 82.709 C 330.601 75.532 335.744 69.715 342.088 69.715 C 346.58 69.715 345.874 69.046 352.356 71.951 C 359.426 69.7 358.46 69.267 363.339 69.267 C 370.002 69.267 375.401 75.085 375.401 82.262 Z" style="fill: rgb(255, 255, 255); stroke-linecap: round; stroke: rgb(0, 0, 0); stroke-width: 2;"/>
  <path d="M 365.995 107.792 C 362.812 108.079 361.801 108.065 359.14 110.093 C 357.299 111.497 357.196 111.237 356.447 113.258 C 355.271 116.435 355.196 115.907 355.958 117.573 C 357.147 120.176 357.888 120.122 359.63 120.738 C 362.453 121.736 364.037 117.573 364.037 117.573 C 364.83 120.372 361.65 120.627 365.26 123.04 C 367.982 124.858 369.912 120.738 369.912 120.738 C 370.449 122.631 369.728 124.282 372.115 125.629 C 374.715 127.096 375.717 125.099 376.521 123.04 C 377.627 120.21 377.8 119.963 377.256 116.998 C 376.619 113.533 376.477 113.554 375.052 111.531 C 373.446 109.251 371.38 108.655 371.38 108.655 L 365.995 107.792 Z" style="stroke: rgb(0, 0, 0); fill: rgb(234, 194, 16); stroke-width: 2;"/>
  <ellipse cx="47.036" cy="88.053" rx="2.081" ry="4.028" style="stroke-width: 2;" transform="matrix(1.000002, 0, 0, 1, 298.334207, -5.056511)"/>
  <ellipse cx="113.512" cy="90.581" rx="2.081" ry="4.028" style="stroke-width: 2;" transform="matrix(0.999993, 0, 0, 1, 243.977265, -7.584763)"/>
  <ellipse cx="351.002" cy="94.505" rx="4.039" ry="4.028" style="stroke: rgb(0, 0, 0); fill: rgb(234, 194, 16); stroke-width: 2;"/>
  <path style="fill: none; stroke: black; stroke-linecap: round; stroke-width: 2;" d="M 347.185 102.728 L 355.753 102.728"/>
  <path d="M 322.632 102.195 C 319.259 101.869 318.187 101.885 315.367 99.584 C 313.415 97.99 313.306 98.286 312.513 95.992 C 311.266 92.388 311.187 92.986 311.994 91.095 C 313.254 88.142 314.039 88.203 315.886 87.504 C 318.877 86.371 320.556 91.095 320.556 91.095 C 321.396 87.92 318.027 87.631 321.853 84.893 C 324.737 82.829 326.782 87.504 326.782 87.504 C 327.352 85.356 326.588 83.482 329.118 81.954 C 331.873 80.29 332.935 82.556 333.787 84.892 C 334.959 88.104 335.143 88.384 334.565 91.748 C 333.892 95.681 333.741 95.656 332.231 97.952 C 330.528 100.539 328.339 101.216 328.339 101.216 L 322.632 102.195 Z" style="stroke: rgb(0, 0, 0); fill: rgb(234, 194, 16); stroke-width: 2;" transform="matrix(-1, 0, 0, -1, 646.330043, 182.485009)"/>
  <path d="M 348.818 56.536 C 348.818 56.241 351.228 59.561 351.511 60.072 C 352.849 62.488 352.735 65.688 352.735 68.324 C 353.225 67.145 353.369 64.856 353.47 64.493 C 354.189 61.896 356.069 59.891 357.631 58.01" style="fill: none; stroke-linecap: round; stroke: rgb(0, 0, 0); stroke-width: 2;"/>
  <path d="M 345.881 60.844 C 345.881 60.557 348.173 61.813 348.574 62.283 C 350.068 64.039 351.266 64.374 351.266 67.461" style="stroke: black; fill: none; stroke-linecap: round; stroke-width: 2;"/>
  <text x="78.711" y="313.206" transform="matrix(0.649133, 0, 0, 0.738876, 159.029099, -15.318694)" style="white-space: pre;">Intranet</text>
  <path d="M 347.97 370.724 C 347.338 370.724 330.469 367.662 330.272 367.564 C 319.973 362.414 308.875 359.625 304.357 346.074 C 298.633 328.902 319.052 310.836 304.357 296.141 C 294.416 286.198 273.631 293.857 265.169 285.396 C 263.196 283.422 258.217 282.44 258.217 279.707 C 258.217 273.92 256.111 264.958 258.849 259.481 C 262.605 251.969 272.122 241.055 272.122 232.934 C 272.122 228.234 267.066 212.076 267.066 212.076" style="stroke: black; fill: none;"/>
  <path d="M 267.066 213.34 C 266.434 213.34 260.602 212.565 263.273 215.237 C 263.977 215.94 272.122 218.242 272.122 217.133 C 272.122 212.857 267.066 212.076 267.066 212.076 Z" style="stroke: black; fill: none;"/>
  <text x="177.945" y="291.084" style="white-space: pre; font-size: 16px;">VPN</text>
  <path d="M 146.342 282.235 C 148.87 281.603 140.578 286.585 146.342 292.348 C 151.578 297.584 164.862 279.707 148.87 279.707 L 146.342 282.235 Z" style="stroke: black; fill: rgb(204, 204, 204); stroke-width: 2;"/>
  <path d="M 148.87 280.971 C 149.502 278.245 154.558 275.337 154.558 272.754 C 154.558 266.692 176.596 240.519 177.313 240.519 C 179.34 240.519 192.482 232.064 192.482 241.151 C 192.482 248.685 186.895 244.842 184.265 247.472 C 176.637 255.1 172.694 267.892 165.936 274.65 C 165.052 275.534 156.455 286.028 156.455 286.028" style="stroke: black; stroke-width: 2; fill: rgb(204, 204, 204);"/>
  <path d="M 191.85 241.783 C 192.482 241.783 206.388 242.167 206.388 235.463 C 206.388 227.471 200.699 224.91 200.699 220.925 C 200.699 220.748 200.699 213.34 200.699 213.34" style="stroke: black; fill: none;"/>
  <path d="M 149.502 287.292 C 148.87 287.292 140.021 293.738 140.021 294.876 C 140.021 300.503 134.964 312.407 134.964 315.735 C 134.964 319.969 133.068 328.187 133.068 323.952" style="stroke: black; fill: none;"/>
  <path d="M 156.455 287.924 C 155.823 287.924 156.474 280.339 153.926 280.339 C 150.212 280.339 146.342 284.763 146.342 284.763" style="stroke: black; fill: none;"/>
  <path d="M 201.963 213.972 C 201.963 213.34 193.75 212.712 197.539 216.501 C 200.521 219.483 202.595 214.604 202.595 214.604 Z" style="stroke: black; fill: none;"/>
</svg>