<?xml version="1.0" encoding="utf-8"?>
<svg viewBox="0 0 500 500" xmlns="http://www.w3.org/2000/svg">
  <defs>
    <style id="bx-google-fonts">@import url(https://fonts.googleapis.com/css?family=Abel:400|Roboto:100,300,500,700,900,100italic,300italic,400,400italic,500italic,700italic,900italic);</style>
    <radialGradient id="gradient-0" gradientUnits="userSpaceOnUse" cx="230.505" cy="293.678" r="147.172" gradientTransform="matrix(1, 0, 0, 1, 5.688512, -9.480957)">
      <stop offset="0" style="stop-color: rgb(255, 255, 255);"/>
      <stop offset="1" style="stop-color: rgb(77, 181, 255);"/>
    </radialGradient>
    <radialGradient id="gradient-1" gradientUnits="userSpaceOnUse" cx="236.185" cy="152.682" r="153.445" gradientTransform="matrix(-0.090145, 1.091547, -3.10631, -0.256534, 731.748426, -65.956945)">
      <stop offset="0" style="stop-color: rgb(255, 255, 255);"/>
      <stop offset="1" style="stop-color: rgb(46, 185, 39);"/>
    </radialGradient>
  </defs>
  <path d="M 88.191 153.294 C 87.559 153.294 86.761 135.762 88.191 134.332 C 94.939 127.584 99.678 115.892 107.153 108.418 C 114.398 101.172 127.978 97.041 139.388 97.041 C 142.476 97.041 150.231 96.214 152.662 97.673 C 154.277 98.642 157.718 102.085 157.718 100.201 C 157.718 78.373 199.881 73.505 216.5 67.966 C 225.711 64.895 255.96 71.671 259.48 78.711 C 261.293 82.337 266.033 84.232 267.697 87.56 C 267.903 87.972 270.747 94.512 270.857 94.512 C 270.892 94.512 277.703 87.666 278.442 86.928 C 284.985 80.385 311.695 82.842 320.158 85.663 C 332.128 89.653 349.617 93.632 357.45 101.465 C 366.687 110.702 367.563 121.299 367.563 135.596 C 367.563 139.267 367.095 144.75 365.667 147.606 C 364.862 149.216 361.971 152.662 363.771 152.662 C 377.165 152.662 382.599 170.092 387.789 180.473 C 388.515 181.924 389.626 192.541 388.421 193.746 C 383.722 198.445 383.707 219.029 373.252 219.029 C 366.088 219.029 356.658 225.586 348.601 221.557 C 346.749 220.631 339.81 220.982 338.488 219.661 C 337.619 218.792 335.328 216.536 335.328 217.765 C 335.328 220.374 324.583 222.759 324.583 224.085 C 324.583 225.79 318.475 227.033 316.998 228.51 C 311.074 234.433 292.643 236.541 282.235 238.623 C 260.366 242.996 235.151 242.812 213.34 237.359 C 208.447 236.135 198.202 227.878 196.274 227.878 C 192.627 227.878 180.43 230.743 176.048 232.934 C 163.34 239.288 134.983 227.566 123.587 224.717 C 115.998 222.82 109.401 214.956 104.625 210.18 C 102.153 207.708 104.002 200.076 101.464 197.539 C 100.598 196.672 103.557 183.001 102.729 183.001 C 94.45 183.001 88.514 176.371 83.767 171.624 C 82.735 170.592 87.559 153.294 87.559 153.294 Z" style="fill: url(#gradient-1); stroke-width: 3; stroke: rgb(0, 0, 0);"/>
  <path d="M 127.38 143.181 C 127.38 143.181 134.963 132.435 134.964 132.436 C 137.944 135.416 147.606 128.222 147.606 132.436 C 147.606 134.276 141.744 142.723 140.021 144.445 C 138.258 146.209 125.484 144.445 125.484 144.445 C 126.116 144.445 132.436 173.52 132.436 173.52 C 133.861 172.808 141.917 172.888 141.917 172.888 C 143.181 172.888 140.021 145.077 140.021 144.445" style="stroke: black; fill: none;"/>
  <path d="M 142.549 172.888 C 141.917 172.888 148.87 168.464 148.87 168.464 C 150.134 170.992 148.87 148.438 148.87 142.549 C 148.87 140.579 147.606 132.436 147.606 131.804" style="stroke: black; fill: none;"/>
  <path d="M 135.597 150.766 C 135.597 150.766 137.791 155.823 133.068 155.823 C 132.938 155.823 129.908 150.134 129.908 150.134 C 130.54 150.134 137.493 149.502 137.493 149.502 Z" style="stroke: black; fill: none;"/>
  <path d="M 133.068 157.087 C 133.068 157.719 138.125 155.388 138.125 157.087 C 138.125 158.983 140.021 162.775 138.125 162.775 C 136.52 162.775 133.7 166.276 133.7 164.671 C 133.7 163.28 132.436 158.351 132.436 158.351 Z" style="stroke: black; fill: none;"/>
  <path d="M 142.549 148.87 C 142.549 148.238 147.606 144.445 147.606 144.445" style="stroke: black; fill: none;"/>
  <path d="M 142.549 155.823 C 142.549 155.191 149.502 151.398 149.502 151.398" style="stroke: black; fill: none;"/>
  <path d="M 143.181 162.143 C 143.181 161.511 148.87 157.087 148.87 157.087" style="stroke: black; fill: none;"/>
  <path d="M 128.012 151.398 C 128.012 152.03 119.163 155.338 119.163 155.823 C 119.163 157.929 117.056 162.143 119.163 162.143 C 119.838 162.143 127.38 162.385 127.38 160.247 C 127.38 159.782 127.38 154.558 127.38 154.558" style="stroke: black; fill: none;"/>
  <path d="M 119.163 162.143 C 119.163 162.775 123.587 175.068 123.587 172.256 C 125.403 174.072 128.012 171.624 128.012 171.624 C 127.38 171.624 127.38 162.775 127.38 162.143" style="stroke: black; fill: none;"/>
  <path d="M 127.38 172.888 C 128.012 172.888 131.172 170.992 131.172 170.992" style="stroke: black; fill: none;"/>
  <text x="126.748" y="186.794" style="font-family: Abel; white-space: pre;">DC1</text>
  <path d="M 190.352 127.758 C 190.352 127.758 197.935 117.012 197.936 117.013 C 200.916 119.993 210.578 112.799 210.578 117.013 C 210.578 118.853 204.716 127.3 202.993 129.022 C 201.23 130.786 188.456 129.022 188.456 129.022 C 189.088 129.022 195.408 158.097 195.408 158.097 C 196.833 157.385 204.889 157.465 204.889 157.465 C 206.153 157.465 202.993 129.654 202.993 129.022" style="stroke: black; fill: none;"/>
  <path d="M 205.521 157.465 C 204.889 157.465 211.842 153.041 211.842 153.041 C 213.106 155.569 211.842 133.015 211.842 127.126 C 211.842 125.156 210.578 117.013 210.578 116.381" style="stroke: black; fill: none;"/>
  <path d="M 198.569 135.343 C 198.569 135.343 200.763 140.4 196.04 140.4 C 195.91 140.4 192.88 134.711 192.88 134.711 C 193.512 134.711 200.465 134.079 200.465 134.079 Z" style="stroke: black; fill: none;"/>
  <path d="M 196.04 141.664 C 196.04 142.296 201.097 139.965 201.097 141.664 C 201.097 143.56 202.993 147.352 201.097 147.352 C 199.492 147.352 196.672 150.853 196.672 149.248 C 196.672 147.857 195.408 142.928 195.408 142.928 Z" style="stroke: black; fill: none;"/>
  <path d="M 205.521 133.447 C 205.521 132.815 210.578 129.022 210.578 129.022" style="stroke: black; fill: none;"/>
  <path d="M 205.521 140.4 C 205.521 139.768 212.474 135.975 212.474 135.975" style="stroke: black; fill: none;"/>
  <path d="M 206.153 146.72 C 206.153 146.088 211.842 141.664 211.842 141.664" style="stroke: black; fill: none;"/>
  <path d="M 190.984 135.975 C 190.984 136.607 182.135 139.915 182.135 140.4 C 182.135 142.506 180.028 146.72 182.135 146.72 C 182.81 146.72 190.352 146.962 190.352 144.824 C 190.352 144.359 190.352 139.135 190.352 139.135" style="stroke: black; fill: none;"/>
  <path d="M 182.135 146.72 C 182.135 147.352 186.559 159.645 186.559 156.833 C 188.375 158.649 190.984 156.201 190.984 156.201 C 190.352 156.201 190.352 147.352 190.352 146.72" style="stroke: black; fill: none;"/>
  <path d="M 190.352 157.465 C 190.984 157.465 194.144 155.569 194.144 155.569" style="stroke: black; fill: none;"/>
  <text x="189.72" y="171.371" style="font-family: Abel; white-space: pre; font-size: 16px;">DC2</text>
  <path d="M 241.543 142.295 C 241.543 142.295 249.126 131.549 249.127 131.55 C 252.107 134.53 261.769 127.336 261.769 131.55 C 261.769 133.39 255.907 141.837 254.184 143.559 C 252.421 145.323 239.647 143.559 239.647 143.559 C 240.279 143.559 246.599 172.634 246.599 172.634 C 248.024 171.922 256.08 172.002 256.08 172.002 C 257.344 172.002 254.184 144.191 254.184 143.559" style="stroke: black; fill: none;"/>
  <path d="M 256.712 172.002 C 256.08 172.002 263.033 167.578 263.033 167.578 C 264.297 170.106 263.033 147.552 263.033 141.663 C 263.033 139.693 261.769 131.55 261.769 130.918" style="stroke: black; fill: none;"/>
  <path d="M 249.76 149.88 C 249.76 149.88 251.954 154.937 247.231 154.937 C 247.101 154.937 244.071 149.248 244.071 149.248 C 244.703 149.248 251.656 148.616 251.656 148.616 Z" style="stroke: black; fill: none;"/>
  <path d="M 247.231 156.201 C 247.231 156.833 252.288 154.502 252.288 156.201 C 252.288 158.097 254.184 161.889 252.288 161.889 C 250.683 161.889 247.863 165.39 247.863 163.785 C 247.863 162.394 246.599 157.465 246.599 157.465 Z" style="stroke: black; fill: none;"/>
  <path d="M 256.712 147.984 C 256.712 147.352 261.769 143.559 261.769 143.559" style="stroke: black; fill: none;"/>
  <path d="M 256.712 154.937 C 256.712 154.305 263.665 150.512 263.665 150.512" style="stroke: black; fill: none;"/>
  <path d="M 257.344 161.257 C 257.344 160.625 263.033 156.201 263.033 156.201" style="stroke: black; fill: none;"/>
  <path d="M 242.175 150.512 C 242.175 151.144 233.326 154.452 233.326 154.937 C 233.326 157.043 231.219 161.257 233.326 161.257 C 234.001 161.257 241.543 161.499 241.543 159.361 C 241.543 158.896 241.543 153.672 241.543 153.672" style="stroke: black; fill: none;"/>
  <path d="M 233.326 161.257 C 233.326 161.889 237.75 174.182 237.75 171.37 C 239.566 173.186 242.175 170.738 242.175 170.738 C 241.543 170.738 241.543 161.889 241.543 161.257" style="stroke: black; fill: none;"/>
  <path d="M 241.543 172.002 C 242.175 172.002 245.335 170.106 245.335 170.106" style="stroke: black; fill: none;"/>
  <text x="240.911" y="185.908" style="font-family: Abel; white-space: pre; font-size: 16px;">DC3</text>
  <path d="M 297.798 134.073 C 297.798 134.073 305.381 123.327 305.382 123.328 C 308.362 126.308 318.024 119.114 318.024 123.328 C 318.024 125.168 312.162 133.615 310.439 135.337 C 308.676 137.101 295.902 135.337 295.902 135.337 C 296.534 135.337 302.854 164.412 302.854 164.412 C 304.279 163.7 312.335 163.78 312.335 163.78 C 313.599 163.78 310.439 135.969 310.439 135.337" style="stroke: black; fill: none;"/>
  <path d="M 312.967 163.78 C 312.335 163.78 319.288 159.356 319.288 159.356 C 320.552 161.884 319.288 139.33 319.288 133.441 C 319.288 131.471 318.024 123.328 318.024 122.696" style="stroke: black; fill: none;"/>
  <path d="M 306.015 141.658 C 306.015 141.658 308.209 146.715 303.486 146.715 C 303.356 146.715 300.326 141.026 300.326 141.026 C 300.958 141.026 307.911 140.394 307.911 140.394 Z" style="stroke: black; fill: none;"/>
  <path d="M 303.486 147.979 C 303.486 148.611 308.543 146.28 308.543 147.979 C 308.543 149.875 310.439 153.667 308.543 153.667 C 306.938 153.667 304.118 157.168 304.118 155.563 C 304.118 154.172 302.854 149.243 302.854 149.243 Z" style="stroke: black; fill: none;"/>
  <path d="M 312.967 139.762 C 312.967 139.13 318.024 135.337 318.024 135.337" style="stroke: black; fill: none;"/>
  <path d="M 312.967 146.715 C 312.967 146.083 319.92 142.29 319.92 142.29" style="stroke: black; fill: none;"/>
  <path d="M 313.599 153.035 C 313.599 152.403 319.288 147.979 319.288 147.979" style="stroke: black; fill: none;"/>
  <path d="M 298.43 142.29 C 298.43 142.922 289.581 146.23 289.581 146.715 C 289.581 148.821 287.474 153.035 289.581 153.035 C 290.256 153.035 297.798 153.277 297.798 151.139 C 297.798 150.674 297.798 145.45 297.798 145.45" style="stroke: black; fill: none;"/>
  <path d="M 289.581 153.035 C 289.581 153.667 294.005 165.96 294.005 163.148 C 295.821 164.964 298.43 162.516 298.43 162.516 C 297.798 162.516 297.798 153.667 297.798 153.035" style="stroke: black; fill: none;"/>
  <path d="M 297.798 163.78 C 298.43 163.78 301.59 161.884 301.59 161.884" style="stroke: black; fill: none;"/>
  <text x="240.911" y="185.908" style="font-family: Abel; white-space: pre; font-size: 16px;" transform="matrix(1.000001, 0, 0, 1, 56.254856, -8.222251)">DC4</text>
  <path d="M 150.134 168.464 C 150.766 168.464 146.342 170.069 146.342 171.624 C 146.342 173.644 153.094 175.617 154.558 174.152 C 158.374 170.337 150.766 167.832 150.766 167.832 Z" style="stroke: black; fill: none;"/>
  <path d="M 211.444 153.926 C 210.812 153.926 210.766 165.349 217.133 158.983 C 222.274 153.841 212.708 152.662 212.708 152.662 Z" style="stroke: black; fill: none;"/>
  <path d="M 263.273 167.2 C 263.905 167.2 257.382 168.261 260.113 170.992 C 267.331 178.21 265.169 166.568 265.169 166.568 Z" style="stroke: black; fill: none;"/>
  <path d="M 319.527 158.983 C 319.527 159.615 315.148 164.671 319.527 164.671 C 325.527 164.671 329.558 158.351 322.055 158.351 Z" style="stroke: black; fill: none;"/>
  <path d="M 153.926 170.992 C 153.294 170.992 169.316 174.564 163.407 180.473 C 160.44 183.44 141.664 201.078 146.342 205.756 C 147.877 207.291 153.114 211.444 156.455 211.444 C 158.631 211.444 165.303 211.344 165.303 211.444 C 167.01 208.034 158.706 209.271 162.775 213.34 C 167.385 217.95 166.568 208.916 166.568 208.916" style="stroke: black; fill: none;"/>
  <path d="M 215.237 157.087 C 215.869 157.087 233.743 165.759 226.614 172.888 C 219.762 179.74 212.761 187.373 206.388 193.746 C 203.2 196.934 201.493 201.169 199.435 203.227 C 197.128 205.535 200.699 209.21 200.699 207.652 C 200.072 206.398 198.228 202.538 196.275 204.491 C 195.14 205.626 192.774 208.916 194.378 208.916 C 197.941 208.916 209.957 204.491 199.435 204.491" style="stroke: black; fill: none;"/>
  <path d="M 264.537 170.36 C 264.537 169.728 271.332 170.281 271.49 170.36 C 274.027 171.629 285.707 181.426 279.707 187.426 C 274.344 192.789 263.169 191.322 258.217 196.275 C 257.87 196.621 247.424 207.652 253.792 207.652" style="stroke: black; fill: none;"/>
  <path d="M 322.687 160.879 C 323.319 160.879 354.892 171.654 344.809 181.737 C 336.283 190.264 324.472 191.33 316.999 198.803 C 316.176 199.626 310.678 206.388 310.678 206.388 C 310.678 198.076 303.461 208.916 304.99 208.916 C 308.231 208.916 316.466 204.491 311.31 204.491" style="stroke: black; fill: none;"/>
  <path d="M 167.832 206.388 C 167.832 207.02 162.048 217.765 163.407 217.765 C 202.891 217.765 237.848 217.765 276.547 217.765 C 283.232 217.765 305.855 219.427 310.046 215.237 C 311.394 213.888 319.531 202.595 319.527 202.595 C 284.179 202.595 241.928 197.62 204.491 203.859 C 196.786 205.144 179.869 200.671 175.417 205.124 C 175.08 205.46 167.832 205.756 167.832 205.756 Z" style="stroke: black; fill: none;"/>
  <path d="M 253.16 203.859 C 252.528 203.859 245.874 207.652 247.472 207.652 C 250.488 207.652 256.321 212.565 256.321 209.548 C 256.321 205.757 252.528 203.227 252.528 203.227 Z" style="stroke: black; fill: none;"/>
  <path d="M 270.858 332.168 C 270.858 332.168 263.216 335.989 262.009 336.593 C 256.419 339.388 234.198 348.698 234.198 351.13 C 234.198 351.13 202.595 335.329 202.595 335.329 C 201.963 335.329 207.951 331.858 208.916 331.536 C 215.379 329.382 226.49 325.971 231.038 321.423 C 232.597 319.864 238.66 317.631 237.359 317.631 C 240.479 314.51 262.199 326.669 264.537 329.008 C 266.094 330.564 272.754 332.168 272.754 332.168 Z" style="stroke: black; fill: none;"/>
  <path d="M 203.227 335.961 C 203.227 335.329 203.227 349.816 203.227 351.762 C 203.227 368.43 201.963 385.005 201.963 401.695 C 201.963 406.962 201.963 412.23 201.963 417.497 C 201.963 418.452 202.595 427.565 202.595 423.817 C 202.596 429.882 234.198 436.459 234.198 436.459 C 232.934 437.723 234.198 404.162 234.198 398.535 C 234.198 395.105 233.654 388.246 234.83 385.894 C 236.052 383.45 234.83 376.484 234.83 373.884 C 234.83 372.457 235.463 351.13 235.463 350.498" style="stroke: black; fill: none;"/>
  <path d="M 232.934 436.459 C 233.566 432.719 258.039 426.523 262.009 422.553 C 262.965 421.598 270.858 418.761 270.858 418.761 C 270.858 421.289 270.858 406.68 270.858 404.856 C 270.858 387.751 271.49 370.623 271.49 353.658 C 271.49 351.659 273.386 333.432 272.754 333.432" style="stroke: black; fill: none;"/>
  <path d="M 239.887 360.611 C 240.519 359.979 250 356.167 250 356.187 C 250 359.979 253.792 367.564 250 367.564 C 249.098 367.564 240.519 371.099 240.519 370.724 C 240.519 367.699 239.833 362.507 241.151 362.507 Z" style="stroke: black; fill: none;"/>
  <path d="M 255.689 355.555 C 255.056 355.555 263.905 347.832 263.905 351.13 C 263.905 355.133 267.908 363.139 263.905 363.139 C 260.773 363.139 255.056 369.432 255.056 366.3 C 255.056 364.73 255.415 355.913 255.689 356.187 Z" style="stroke: black; fill: none;"/>
  <path d="M 244.943 390.95 C 244.943 391.582 245.576 401.732 245.576 402.959 C 245.576 413.343 245.33 417.497 248.736 417.497 C 252.348 417.497 255.091 414.969 258.217 414.969 C 259.915 414.969 263.273 416.035 263.273 414.336 C 263.273 408.213 259.481 401.174 259.481 394.743 C 259.481 390.529 262.461 379.122 259.481 382.101 C 257.485 384.097 245.158 388.422 246.208 388.422 Z" style="stroke: black; fill: none;"/>
  <path d="M 207.02 351.762 C 202.676 351.13 224.004 354.29 219.661 354.29 C 217.728 354.29 216.811 365.036 216.501 365.036 C 216.324 365.036 205.756 362.039 205.756 361.875 C 205.756 358.929 207.652 353.658 207.652 353.658 Z" style="stroke: black; fill: none;"/>
  <path d="M 223.453 356.187 C 223.453 355.555 218.127 365.668 221.557 365.668 C 224.368 365.668 229.774 370.375 229.774 367.564 C 229.774 365.239 232.272 358.052 231.038 356.819 C 230.152 355.933 223.899 354.736 224.717 355.555 Z" style="stroke: black; fill: none;"/>
  <path d="M 208.284 373.884 C 207.652 373.884 227.878 373.904 227.878 374.516 C 227.878 378.569 230.034 386.526 225.982 386.526 C 223.317 386.526 206.388 382.889 206.388 381.469 C 206.388 380.151 206.768 372.62 208.284 372.62 Z" style="stroke: black; fill: none;"/>
  <path d="M 210.812 356.819 C 210.812 356.187 215.869 358.083 215.869 358.083" style="stroke: black; fill: none;"/>
  <path d="M 223.453 359.347 C 223.453 358.715 229.774 359.979 229.774 359.979" style="stroke: black; fill: none;"/>
  <path d="M 248.736 401.695 C 249.368 401.063 260.113 399.167 260.113 399.167" style="stroke: black; fill: none;"/>
  <path d="M 252.528 386.526 C 252.528 387.158 256.953 414.969 256.953 414.969" style="stroke: black; fill: none;"/>
  <path d="M 241.783 365.036 C 241.783 364.403 250 362.507 250 362.507" style="stroke: black; fill: none;"/>
  <path d="M 257.585 360.611 C 258.217 359.821 263.905 358.715 263.905 358.715" style="stroke: black; fill: none;"/>
  <path d="M 71.758 375.149 C 71.758 375.149 87.56 380.553 87.56 380.205 C 87.56 378.274 87.787 374.062 88.824 371.988 C 89.132 371.372 91.121 364.173 90.72 363.771 C 86.988 360.04 69.23 363.771 69.23 363.771 C 69.23 363.139 71.126 377.697 71.126 375.149 Z" style="stroke: black; fill: none;"/>
  <path d="M 59.749 381.469 C 59.749 382.101 82.322 387.79 84.399 387.79 C 86.755 387.79 93.076 390.95 90.72 390.95 C 86.906 390.95 83.972 400.431 83.135 400.431 C 78.082 400.431 73.12 394.11 69.23 394.11 C 63.946 394.11 59.833 390.95 56.589 390.95 C 54.89 390.95 49.833 390.318 51.532 390.318 C 56.011 390.318 61.645 381.469 61.645 381.469 Z" style="stroke: black; fill: none;"/>
  <path d="M 67.966 385.262 C 67.966 384.629 63.541 389.054 63.541 389.054" style="stroke: black; fill: none;"/>
  <path d="M 75.551 386.526 C 74.918 386.526 67.458 392.846 69.862 392.846" style="stroke: black; fill: none;"/>
  <path d="M 85.664 389.054 C 85.031 389.054 78.086 397.263 78.711 396.639" style="stroke: black; fill: none;"/>
  <path d="M 59.749 385.894 C 60.381 385.894 86.296 393.478 86.296 393.478" style="stroke: black; fill: none;"/>
  <path d="M 55.324 389.054 C 54.692 389.054 61.927 390.6 62.277 390.95 C 63.865 392.538 83.767 396.007 83.767 396.007" style="stroke: black; fill: none;"/>
  <path d="M 82.503 380.205 C 82.503 380.205 90.009 384.709 90.72 383.997 C 93.038 381.679 94.951 361.875 94.512 361.875 C 87.436 361.875 81.387 359.979 74.286 359.979 C 73.839 359.979 67.334 362.507 67.334 362.507 C 67.334 361.875 68.131 377.045 68.598 377.045 C 69.015 377.045 76.183 377.045 76.183 377.045 C 75.551 377.677 75.551 387.79 75.551 385.261 C 75.551 383.411 80.607 385.184 80.607 384.629 C 80.607 381.683 79.975 378.941 79.975 378.941 Z" style="stroke: black; fill: none;"/>
  <path d="M 400.431 337.857 C 399.799 337.857 392.467 338.489 391.582 338.489 C 389.758 338.489 369.46 341.715 369.46 342.913 C 369.46 355.349 371.988 365.68 371.988 377.677 C 371.988 379.213 371.999 389.686 373.252 389.686 C 376.736 389.686 404.855 392.53 404.855 386.526 C 404.855 376.511 407.263 357.33 401.695 351.762 C 400.19 350.257 401.695 339.121 401.695 339.121 Z" style="stroke: black; fill: none;"/>
  <path d="M 373.884 346.074 C 373.884 346.706 375.149 373.203 375.149 374.516 C 375.149 377.045 372.62 382.101 375.149 382.101 C 379.421 382.101 386.425 382.101 389.686 382.101 C 390.916 382.101 399.167 381.675 399.167 381.469 C 399.167 372.408 398.535 360.155 398.535 349.234 C 398.535 348.193 399.082 341.649 398.535 341.649 C 396.258 341.649 375.781 344.81 375.781 344.81 Z" style="stroke: black; fill: none;"/>
  <path d="M 386.526 383.997 C 385.894 383.997 379.363 389.054 385.262 389.054 C 390.996 389.054 392.328 382.733 386.526 382.733 Z" style="stroke: black; fill: none;"/>
  <text x="205.123" y="449.987" style="white-space: pre; font-size: 16px;">Company</text>
  <defs>
    <style id="bx-google-fonts">@import url(https://fonts.googleapis.com/css?family=Abel:400|Roboto:100,100italic,300,300italic,400,400italic,500,500italic,700,700italic,900,900italic);</style>
  </defs>
  <text x="20.894" y="418.599" style="white-space: pre; font-size: 16px;">Private Computer</text>
  <text x="341.041" y="416.073" style="white-space: pre; font-size: 16px;">Mobile Device</text>
  <text x="138.757" y="50.268" style="font-size: 36; font-family: Roboto; white-space: pre;">Public Cloud</text>
  <path d="M 159.616 262.641 C 160.88 261.377 139.752 259.932 135.597 262.009 C 126.115 266.75 128.224 270.646 122.324 276.547 C 117.992 280.879 109.646 272.773 103.362 275.915 C 96.528 279.332 89.022 288.122 95.777 294.876 C 106.2 305.299 114.587 295.749 125.484 301.197 C 142.249 309.579 153.928 314.47 169.729 298.669 C 173.29 295.107 180.174 301.996 182.37 303.093 C 189.34 306.578 197.651 309.308 205.756 308.15 C 217.203 306.515 222.788 294.655 234.831 298.669 C 262.35 307.841 286.988 320.361 313.839 302.461 C 319.309 298.815 328.87 303.796 333.433 305.622 C 347.909 311.412 383.366 311.43 383.366 291.084 C 383.366 260.933 351.601 281.495 336.593 271.49 C 329.41 266.701 322.706 257.801 314.471 255.056 C 302.604 251.101 294.398 260.113 284.764 260.113 C 276.193 260.113 268.065 254.924 262.01 251.896 C 254.283 248.033 240.711 265.265 230.407 260.113 C 215.123 252.471 209.588 250.929 193.747 258.849 C 187.797 261.824 181.513 252.009 175.417 255.056 C 168.922 258.304 166.666 262.641 160.248 262.641 L 159.616 262.641 Z" style="stroke: rgb(83, 163, 255); stroke-width: 3; fill: url(#gradient-0);"/>
  <text x="208.916" y="294.876" style="white-space: pre; font-size: 16px;">Internet</text>
  <ellipse cx="233.566" cy="272.754" rx="12.641" ry="7.585" style="stroke: rgb(0, 0, 0); stroke-width: 2; fill: rgb(255, 255, 255);"/>
  <path d="M 233.566 216.501 C 233.566 217.133 227.405 228.67 229.774 231.038 C 230.841 232.105 238.947 244.62 236.095 247.472 C 234.569 248.998 231.038 250.724 231.038 253.792 C 231.038 255.245 232.934 263.905 232.934 263.905" style="stroke: black; fill: none;"/>
  <path d="M 86.296 356.819 C 86.296 356.187 86.184 348.304 86.296 347.97 C 88.333 341.859 90.624 331 95.777 325.848 C 101.795 319.829 108.968 314.017 117.267 311.942 C 120.871 311.041 129.548 312.934 132.436 310.046 C 140.113 302.37 143.297 291.6 152.03 282.867 C 158.769 276.128 171.548 284.169 179.209 280.339 C 185.774 277.057 192.33 272.198 200.067 268.33 C 202.894 266.916 221.557 272.122 221.557 272.122" style="stroke: black; fill: none;"/>
  <path d="M 270.858 401.063 C 270.226 401.063 275.513 395.545 275.915 394.743 C 278.92 388.732 290.334 379.691 295.509 374.516 C 310.663 359.363 277.863 354.818 284.763 341.017 C 288.857 332.831 308.224 319.676 302.461 308.15 C 298.963 301.153 291.099 296.479 286.66 289.82 C 285.12 287.51 287.387 276.547 282.867 276.547 C 275.75 276.547 244.943 272.956 244.943 273.386" style="stroke: black; fill: none;"/>
  <path d="M 378.309 337.857 C 378.309 337.225 369.605 326.77 368.196 323.951 C 362.115 311.788 376.512 297.139 363.139 290.452 C 356.618 287.192 330.673 283.098 325.216 288.556 C 324.148 289.623 312.509 294.179 310.046 291.716 C 302.875 284.545 296.605 277.011 289.82 270.226 C 288.541 268.947 278.466 268.306 277.179 269.594 C 269.043 277.73 256.926 266.434 251.264 266.434 C 248.403 266.434 244.943 268.962 244.943 268.962" style="stroke: black; fill: none;"/>
  <path d="M 130.036 106.404 C 130.036 111.33 125.926 115.323 120.856 115.323 C 119.091 115.323 117.442 114.839 116.042 114 C 113.626 115.219 110.946 115.897 108.125 115.897 C 104.78 115.897 101.633 114.943 98.888 113.264 C 97.537 114.025 95.968 114.46 94.294 114.46 C 89.224 114.46 85.114 110.467 85.114 105.541 C 85.114 102.483 86.698 99.784 89.113 98.178 C 88.898 96.881 88.786 95.544 88.786 94.177 C 88.786 82.181 97.444 72.456 108.125 72.456 C 118.806 72.456 127.465 82.181 127.465 94.177 C 127.465 96.066 127.25 97.899 126.846 99.646 C 128.8 101.281 130.036 103.702 130.036 106.404 Z" style="stroke: rgb(0, 0, 0); fill: rgb(234, 194, 16); stroke-width: 2;"/>
  <ellipse cx="39.937" cy="103.013" rx="3.305" ry="3.452" style="fill: rgb(255, 98, 0); stroke-width: 2;" transform="matrix(0.999998, 0, 0, 1, 54.357541, 2.528252)"/>
  <ellipse cx="120.121" cy="105.254" rx="3.305" ry="3.452" style="fill: rgb(255, 98, 0); stroke-width: 2;"/>
  <path d="M 130.16 89.846 C 130.16 97.022 124.761 102.842 118.098 102.842 C 113.379 102.842 112.738 103.953 107.31 101.042 C 103.207 103.3 101.498 103.29 96.847 103.29 C 90.503 103.29 85.36 97.472 85.36 90.293 C 85.36 83.116 90.503 77.299 96.847 77.299 C 101.339 77.299 100.633 76.63 107.115 79.535 C 114.185 77.284 113.219 76.851 118.098 76.851 C 124.761 76.851 130.16 82.669 130.16 89.846 Z" style="fill: rgb(255, 255, 255); stroke-linecap: round; stroke: rgb(0, 0, 0); stroke-width: 2;"/>
  <path d="M 134.659 95.782 C 131.476 96.069 130.465 96.055 127.804 98.083 C 125.963 99.487 125.86 99.227 125.111 101.248 C 123.935 104.425 123.86 103.897 124.622 105.563 C 125.811 108.166 126.552 108.112 128.294 108.728 C 131.117 109.726 132.701 105.563 132.701 105.563 C 133.494 108.362 130.314 108.617 133.924 111.03 C 136.646 112.848 138.576 108.728 138.576 108.728 C 139.113 110.621 138.392 112.272 140.779 113.619 C 143.379 115.086 144.381 113.089 145.185 111.03 C 146.291 108.2 146.464 107.953 145.92 104.988 C 145.283 101.523 145.141 101.544 143.716 99.521 C 142.11 97.241 140.044 96.645 140.044 96.645 L 134.659 95.782 Z" style="stroke: rgb(0, 0, 0); fill: rgb(234, 194, 16); stroke-width: 2;"/>
  <ellipse cx="47.036" cy="88.053" rx="2.081" ry="4.028" style="stroke-width: 2;" transform="matrix(0.999996, 0, 0, 1, 54.357621, 2.528252)"/>
  <ellipse cx="113.512" cy="90.581" rx="2.081" ry="4.028" style="stroke-width: 2;"/>
  <ellipse cx="107.025" cy="102.089" rx="4.039" ry="4.028" style="stroke: rgb(0, 0, 0); fill: rgb(234, 194, 16); stroke-width: 2;"/>
  <path style="fill: none; stroke: black; stroke-linecap: round; stroke-width: 2;" d="M 103.208 110.312 L 111.776 110.312"/>
  <path d="M 95.089 132.534 C 91.716 132.208 90.644 132.224 87.824 129.923 C 85.872 128.329 85.763 128.625 84.97 126.331 C 83.723 122.727 83.644 123.325 84.451 121.434 C 85.711 118.481 86.496 118.542 88.343 117.843 C 91.334 116.71 93.013 121.434 93.013 121.434 C 93.853 118.259 90.484 117.97 94.31 115.232 C 97.194 113.168 99.239 117.843 99.239 117.843 C 99.809 115.695 99.045 113.821 101.575 112.293 C 104.33 110.629 105.392 112.895 106.244 115.231 C 107.416 118.443 107.6 118.723 107.022 122.087 C 106.349 126.02 106.198 125.995 104.688 128.291 C 102.985 130.878 100.796 131.555 100.796 131.555 L 95.089 132.534 Z" style="stroke: rgb(0, 0, 0); fill: rgb(234, 194, 16); stroke-width: 2;" transform="matrix(-1, 0, 0, -1, 191.243984, 243.162992)"/>
  <path d="M 104.209 64.12 C 104.209 63.825 106.619 67.145 106.902 67.656 C 108.24 70.072 108.126 73.272 108.126 75.908 C 108.616 74.729 108.76 72.44 108.861 72.077 C 109.58 69.48 111.46 67.475 113.022 65.594" style="fill: none; stroke-linecap: round; stroke: rgb(0, 0, 0); stroke-width: 2;"/>
  <path d="M 101.272 68.428 C 101.272 68.141 103.564 69.397 103.965 69.867 C 105.459 71.623 106.657 71.958 106.657 75.045" style="stroke: black; fill: none; stroke-linecap: round; stroke-width: 2;"/>
</svg>