<?xml version="1.0" encoding="utf-8"?>
<svg viewBox="0 0 500 500" xmlns="http://www.w3.org/2000/svg" xmlns:bx="https://boxy-svg.com">
  <defs>
    <style id="bx-google-fonts">@import url(https://fonts.googleapis.com/css?family=Abel:400);</style>
  </defs>
  <path d="M 19.93 480.439 L 79.476 413.137 L 425.787 413.137 L 485.129 480.439 L 19.93 480.439 Z" style="stroke: black; fill: rgb(134, 170, 247); stroke-width: 3;"/>
  <path d="M 100.925 384.486 L 140.544 317.184 L 370.716 317.184 L 410.46 384.486 L 100.925 384.486 Z" style="stroke: black; stroke-width: 3; fill: rgb(255, 201, 85);"/>
  <path d="M 151.459 287.186 L 178.333 221.348 L 336.262 221.348 L 361.434 287.186 L 151.459 287.186 Z" style="stroke: black; stroke-width: 3; fill: rgb(255, 103, 89);"/>
  <text x="191.954" y="286.659" style="font-family: Abel; font-size: 20px; white-space: pre;" transform="matrix(2.863816, 0, 0, 2.314836, -346.673828, -204.465973)">IaaS</text>
  <text x="191.153" y="246.687" style="font-family: Abel; font-size: 20px; white-space: pre;" transform="matrix(2.863816, 0, 0, 2.314836, -346.673828, -204.465973)" bx:origin="0.462 -0.784">PaaS</text>
  <text x="191.418" y="204.983" style="font-family: Abel; font-size: 20px; white-space: pre;" transform="matrix(2.863816, 0, 0, 2.314836, -346.673828, -204.465973)" bx:origin="0.462 -0.784">SaaS</text>
  <path d="M 331.619 179.116 C 325.282 180.128 326.818 179.855 321.012 180.001 C 313.528 180.187 316.186 179.954 310.129 180.128 C 307.351 180.214 300.023 180.419 293.322 180.257 C 283.987 180.028 283.889 180.605 275.411 180.129 C 267.619 179.69 267.094 180.105 262.05 178.859 C 259.139 178.14 257.641 177.936 253.646 176.954 C 252.114 176.068 247.813 174.181 247.037 173.146 C 243.952 169.035 243.92 171.055 243.591 165.401 C 243.393 162.025 243.826 159.771 245.659 157.276 C 247.695 154.498 248.884 153.056 254.062 151.942 C 254.47 151.856 254.911 147.759 255.161 146.612 C 255.813 143.61 255.903 143.468 258.054 141.153 C 260.609 138.407 261.567 137.644 264.53 136.326 C 267.639 134.944 268.375 134.725 274.724 134.296 C 276.649 130.32 277.178 130.469 280.235 129.218 C 283.581 127.844 285.283 126.423 293.596 126.803 C 302.049 127.191 301.675 127.039 306.271 129.346 C 309.354 130.893 310.541 133.41 310.541 133.41 C 316.172 134.386 316.08 133.78 319.219 134.676 C 323.541 135.907 324.041 135.287 327.484 138.612 C 330.54 141.56 330.792 144.579 330.792 144.579 L 330.101 150.674 C 334.743 151.605 334.114 150.521 338.094 152.832 C 341.975 155.085 341.817 154.586 344.154 159.053 C 346.233 163.029 345.603 163.797 344.292 168.322 C 343.375 171.496 341.677 173.021 338.507 176.193 L 331.619 179.116 Z" style="stroke-linecap: round; stroke-linejoin: round; stroke: rgb(0, 0, 0); fill: rgb(255, 255, 255); stroke-width: 2;"/>
  <path d="M 343.742 164.769 C 343.742 164.769 341.4 173.652 337.361 175.558 C 333.323 177.464 332.296 178.224 328.028 178.859 C 323.762 179.495 314.488 179.285 315.224 178.732 C 315.963 178.179 320.004 177.59 324.277 176.701 C 328.549 175.813 330.548 175.306 333.438 174.038 C 336.331 172.765 337.748 171.368 339.401 169.59 C 341.053 167.813 342.371 166.674 343.742 164.769 Z" style="fill: rgb(145, 146, 143); stroke-width: 2;"/>
  <path d="M 329.551 147.498 C 329.551 147.498 328.586 151.688 328.586 151.818 C 328.586 151.942 331.066 151.563 333.271 152.326 C 335.477 153.086 336.164 153.723 336.164 153.723 C 336.164 153.723 334.073 153.065 331.066 152.958 C 327.484 152.832 326.247 153.467 326.108 153.34 C 325.97 153.215 328.312 150.674 329.551 147.498 Z" style="fill: rgb(145, 146, 143); stroke-width: 2;"/>
  <path d="M 379.94 95.425 C 369.175 96.926 371.787 96.523 361.918 96.738 C 349.206 97.015 353.722 96.664 343.428 96.926 C 338.707 97.048 326.258 97.356 314.871 97.116 C 299.015 96.777 298.84 97.632 284.44 96.928 C 271.201 96.278 270.308 96.891 261.738 95.05 C 256.79 93.986 254.248 93.686 247.46 92.233 C 244.855 90.921 237.547 88.134 236.226 86.601 C 230.987 80.524 230.936 83.513 230.372 75.152 C 230.037 70.161 230.773 66.826 233.886 63.136 C 237.348 59.03 239.364 56.899 248.163 55.251 C 248.861 55.122 249.611 49.066 250.035 47.37 C 251.144 42.929 251.295 42.723 254.949 39.297 C 259.284 35.236 260.917 34.112 265.952 32.163 C 271.233 30.117 272.481 29.795 283.273 29.161 C 286.542 23.28 287.439 23.503 292.634 21.652 C 298.321 19.624 301.211 17.522 315.338 18.084 C 329.701 18.657 329.065 18.432 336.874 21.839 C 342.112 24.126 344.128 27.846 344.128 27.846 C 353.696 29.296 353.542 28.4 358.874 29.724 C 366.214 31.543 367.068 30.626 372.919 35.544 C 378.108 39.902 378.538 44.365 378.538 44.365 L 377.365 53.376 C 385.25 54.752 384.182 53.149 390.943 56.566 C 397.535 59.899 397.27 59.159 401.241 65.766 C 404.775 71.644 403.701 72.779 401.475 79.469 C 399.915 84.162 397.031 86.414 391.645 91.107 L 379.94 95.425 Z" style="stroke-linecap: round; stroke-linejoin: round; stroke: rgb(0, 0, 0); fill: rgb(255, 255, 255); stroke-width: 2;"/>
  <ellipse cx="22.75" cy="25.463" rx="3.629" ry="5.913" transform="matrix(1.000003, 0, 0, 1, 283.105355, 16.553459)" style="stroke-width: 2;"/>
  <ellipse cx="37.613" cy="25.745" rx="3.629" ry="5.913" transform="matrix(0.999999, 0, 0, 1, 283.104707, 16.553488)" style="stroke-width: 2;"/>
  <path d="M 292.634 62.949 C 292.634 62.949 309.826 75.527 335.468 63.487" style="fill: none; stroke: rgb(0, 0, 0); stroke-width: 2;"/>
  <path d="M 288.186 71.022 C 288.186 71.022 296.38 65.371 289.412 56.004" style="fill: none; stroke: black; stroke-linecap: round; stroke-width: 2;"/>
  <path d="M 338.194 56.942 C 339.391 55.006 331.252 64.03 340.852 71.022" style="fill: none; stroke: black; stroke-linecap: round; stroke-width: 2;"/>
  <path d="M 400.54 74.213 C 400.54 74.213 396.559 87.354 389.699 90.169 C 382.838 92.986 381.092 94.112 373.841 95.05 C 366.588 95.989 350.832 95.679 352.086 94.863 C 353.34 94.044 360.206 93.173 367.465 91.858 C 374.726 90.546 378.125 89.794 383.033 87.916 C 387.944 86.039 390.353 83.973 393.161 81.347 C 395.969 78.717 398.208 77.03 400.54 74.213 Z" style="fill: rgb(145, 146, 143); stroke-width: 2;"/>
  <path d="M 376.43 48.682 C 376.43 48.682 374.792 54.876 374.792 55.064 C 374.792 55.251 379.004 54.689 382.75 55.817 C 386.495 56.942 387.665 57.881 387.665 57.881 C 387.665 57.881 384.113 56.911 379.004 56.753 C 372.919 56.566 370.814 57.506 370.578 57.319 C 370.343 57.131 374.325 53.376 376.43 48.682 Z" style="fill: rgb(145, 146, 143); stroke-width: 2;"/>
  <path d="M 254.657 247.979 C 254.657 247.979 254.897 248.039 254.086 248.082 C 253.276 248.126 252.622 248.134 251.686 248.151 C 250.75 248.167 248.656 248.171 249.2 248.167 C 249.745 248.162 250.476 248.157 251.305 248.142 C 252.135 248.128 252.363 248.126 252.923 248.111 C 253.486 248.096 253.706 248.086 254.001 248.06 C 254.296 248.033 254.391 248.003 254.657 247.979 Z" style="fill: rgb(145, 146, 143); stroke-width: 2;"/>
  <path d="M 264.886 192.282 C 259.331 193.157 260.679 192.921 255.588 193.047 C 249.027 193.209 251.355 193.008 246.045 193.157 C 243.608 193.232 237.185 193.41 231.309 193.27 C 223.124 193.073 223.038 193.569 215.603 193.159 C 208.772 192.778 208.311 193.137 203.89 192.06 C 201.338 191.438 200.024 191.262 196.521 190.413 C 195.177 189.646 191.407 188.014 190.724 187.118 C 188.022 183.563 187.993 185.311 187.703 180.419 C 187.532 177.501 187.909 175.55 189.52 173.392 C 191.303 170.989 192.346 169.741 196.885 168.777 C 197.243 168.703 197.629 165.16 197.85 164.166 C 198.423 161.569 198.501 161.447 200.385 159.444 C 202.625 157.069 203.466 156.409 206.068 155.271 C 208.791 154.074 209.434 153.885 215.002 153.514 C 216.688 150.074 217.152 150.204 219.833 149.12 C 222.768 147.934 224.261 146.704 231.549 147.033 C 238.96 147.368 238.634 147.237 242.664 149.233 C 245.364 150.571 246.407 152.747 246.407 152.747 C 251.344 153.592 251.263 153.068 254.015 153.842 C 257.805 154.907 258.242 154.371 261.261 157.245 C 263.942 159.797 264.162 162.408 264.162 162.408 L 263.557 167.681 C 267.626 168.486 267.074 167.549 270.566 169.545 C 273.967 171.496 273.831 171.064 275.878 174.929 C 277.702 178.366 277.15 179.03 275.999 182.945 C 275.193 185.69 273.707 187.01 270.926 189.753 L 264.886 192.282 Z" style="stroke-linecap: round; stroke-linejoin: round; stroke: rgb(0, 0, 0); fill: rgb(255, 255, 255); stroke-width: 2;"/>
  <path d="M 275.517 179.874 C 275.517 179.874 273.463 187.556 269.922 189.205 C 266.381 190.852 265.48 191.512 261.738 192.06 C 257.996 192.612 249.866 192.43 250.513 191.95 C 251.16 191.471 254.703 190.962 258.448 190.194 C 262.195 189.423 263.946 188.987 266.482 187.889 C 269.019 186.788 270.262 185.581 271.711 184.042 C 273.158 182.506 274.314 181.521 275.517 179.874 Z" style="fill: rgb(145, 146, 143); stroke-width: 2;"/>
  <path d="M 284.532 120.75 C 279.644 121.517 280.83 121.31 276.351 121.418 C 270.579 121.562 272.631 121.383 267.96 121.517 C 265.817 121.58 260.163 121.736 254.998 121.613 C 247.801 121.442 247.724 121.877 241.185 121.519 C 235.174 121.184 234.772 121.498 230.881 120.555 C 228.637 120.011 227.482 119.856 224.402 119.113 C 223.218 118.442 219.902 117.014 219.303 116.231 C 216.923 113.121 216.901 114.65 216.646 110.368 C 216.493 107.815 216.826 106.106 218.241 104.217 C 219.81 102.116 220.726 101.024 224.721 100.179 C 225.037 100.116 225.377 97.013 225.569 96.145 C 226.073 93.872 226.142 93.765 227.801 92.013 C 229.769 89.935 230.51 89.359 232.795 88.361 C 235.191 87.314 235.758 87.148 240.655 86.824 C 242.139 83.814 242.549 83.928 244.907 82.978 C 247.486 81.939 248.798 80.865 255.211 81.153 C 261.727 81.446 261.439 81.331 264.984 83.079 C 267.361 84.247 268.277 86.152 268.277 86.152 C 272.62 86.893 272.547 86.433 274.97 87.111 C 278.301 88.044 278.688 87.574 281.342 90.089 C 283.699 92.321 283.893 94.605 283.893 94.605 L 283.361 99.22 C 286.94 99.926 286.457 99.105 289.524 100.853 C 292.517 102.559 292.396 102.182 294.197 105.565 C 295.801 108.572 295.318 109.155 294.304 112.58 C 293.6 114.981 292.287 116.137 289.845 118.537 L 284.532 120.75 Z" style="stroke-linecap: round; stroke-linejoin: round; stroke: rgb(0, 0, 0); fill: rgb(255, 255, 255); stroke-width: 2;"/>
  <path d="M 293.88 109.891 C 293.88 109.891 292.072 116.615 288.959 118.058 C 285.846 119.5 285.053 120.076 281.763 120.555 C 278.472 121.037 271.321 120.88 271.888 120.461 C 272.457 120.042 275.575 119.595 278.87 118.924 C 282.164 118.25 283.704 117.866 285.936 116.907 C 288.164 115.943 289.257 114.886 290.532 113.539 C 291.807 112.194 292.824 111.334 293.88 109.891 Z" style="fill: rgb(145, 146, 143); stroke-width: 2;"/>
  <path d="M 282.937 96.817 C 282.937 96.817 282.192 99.988 282.192 100.085 C 282.192 100.179 284.105 99.893 285.806 100.472 C 287.507 101.046 288.038 101.527 288.038 101.527 C 288.038 101.527 286.426 101.03 284.105 100.951 C 281.342 100.853 280.389 101.335 280.282 101.241 C 280.174 101.145 281.981 99.22 282.937 96.817 Z" style="fill: rgb(145, 146, 143); stroke-width: 2;"/>
</svg>