<?xml version="1.0" encoding="utf-8"?>
<svg viewBox="0 0 500 500" xmlns="http://www.w3.org/2000/svg" xmlns:bx="https://boxy-svg.com">
  <defs>
    <style id="bx-google-fonts">@import url(https://fonts.googleapis.com/css?family=Abel:400);</style>
  </defs>
  <path d="M 19.93 480.439 L 79.476 413.137 L 425.787 413.137 L 485.129 480.439 L 19.93 480.439 Z" style="stroke: black; fill: rgb(134, 170, 247); stroke-width: 3;"/>
  <path d="M 133.16 316.185 L 163.799 248.883 L 341.801 248.883 L 372.536 316.185 L 133.16 316.185 Z" style="stroke: black; stroke-width: 3; fill: rgb(255, 201, 85);"/>
  <path d="M 170.073 237.885 L 191.603 172.047 L 318.125 172.047 L 338.292 237.885 L 170.073 237.885 Z" style="stroke: black; stroke-width: 3; fill: rgb(255, 103, 89);"/>
  <text x="191.954" y="286.659" style="font-family: Abel; font-size: 20px; white-space: pre;" transform="matrix(2.863816, 0, 0, 2.314836, -346.673828, -204.465973)">IaaS</text>
  <text x="191.153" y="246.687" style="font-family: Abel; font-size: 20px; white-space: pre;" transform="matrix(2.664989, 0, 0, 2.314836, -307.38147, -272.096741)" bx:origin="0.462 -0.784">PaaS</text>
  <text x="191.418" y="204.983" style="font-family: Abel; font-size: 20px; white-space: pre;" transform="matrix(2.664989, 0, 0, 2.314836, -306.74942, -253.766907)" bx:origin="0.462 -0.784">SaaS</text>
  <path d="M 338.463 143.112 C 332.992 143.99 334.319 143.754 329.307 143.88 C 322.846 144.041 325.14 143.839 319.912 143.99 C 317.513 144.065 311.188 144.243 305.403 144.102 C 297.345 143.903 297.26 144.404 289.941 143.991 C 283.215 143.61 282.761 143.971 278.407 142.89 C 275.894 142.267 274.601 142.089 271.153 141.237 C 269.83 140.469 266.117 138.833 265.447 137.936 C 262.784 134.371 262.756 136.122 262.472 131.22 C 262.302 128.292 262.675 126.338 264.258 124.174 C 266.015 121.765 267.041 120.515 271.512 119.549 C 271.863 119.474 272.244 115.922 272.46 114.926 C 273.023 112.324 273.1 112.2 274.958 110.193 C 277.163 107.811 277.99 107.15 280.548 106.007 C 283.232 104.809 283.867 104.619 289.348 104.246 C 291.01 100.799 291.466 100.928 294.105 99.843 C 296.994 98.652 298.463 97.419 305.639 97.749 C 312.937 98.086 312.613 97.953 316.581 99.954 C 319.242 101.296 320.267 103.478 320.267 103.478 C 325.128 104.325 325.049 103.799 327.759 104.576 C 331.489 105.644 331.921 105.106 334.894 107.989 C 337.532 110.545 337.749 113.163 337.749 113.163 L 337.153 118.449 C 341.16 119.256 340.617 118.317 344.052 120.32 C 347.403 122.274 347.266 121.841 349.284 125.715 C 351.079 129.162 350.535 129.828 349.402 133.752 C 348.611 136.505 347.145 137.827 344.409 140.578 L 338.463 143.112 Z" style="stroke-linecap: round; stroke-linejoin: round; stroke: rgb(0, 0, 0); fill: rgb(255, 255, 255); stroke-width: 2;"/>
  <path d="M 348.928 130.672 C 348.928 130.672 346.906 138.375 343.419 140.027 C 339.934 141.68 339.048 142.339 335.363 142.89 C 331.681 143.442 323.674 143.259 324.31 142.78 C 324.948 142.3 328.436 141.79 332.125 141.018 C 335.813 140.248 337.538 139.809 340.033 138.709 C 342.53 137.605 343.754 136.394 345.181 134.852 C 346.607 133.312 347.745 132.324 348.928 130.672 Z" style="fill: rgb(145, 146, 143); stroke-width: 2;"/>
  <path d="M 336.677 115.695 C 336.677 115.695 335.845 119.329 335.845 119.441 C 335.845 119.549 337.985 119.22 339.889 119.881 C 341.793 120.541 342.386 121.093 342.386 121.093 C 342.386 121.093 340.582 120.523 337.985 120.429 C 334.894 120.32 333.825 120.871 333.706 120.761 C 333.586 120.652 335.608 118.449 336.677 115.695 Z" style="fill: rgb(145, 146, 143); stroke-width: 2;"/>
  <path d="M 380.177 70.54 C 370.883 71.841 373.139 71.492 364.618 71.677 C 353.645 71.918 357.544 71.614 348.657 71.841 C 344.582 71.947 333.835 72.214 324.005 72.006 C 310.318 71.712 310.166 72.453 297.735 71.843 C 286.306 71.279 285.536 71.811 278.138 70.214 C 273.866 69.292 271.672 69.031 265.813 67.771 C 263.563 66.634 257.255 64.217 256.114 62.887 C 251.592 57.618 251.548 60.21 251.06 52.959 C 250.772 48.631 251.407 45.739 254.094 42.54 C 257.083 38.979 258.824 37.131 266.419 35.702 C 267.021 35.59 267.669 30.338 268.035 28.868 C 268.993 25.017 269.123 24.838 272.277 21.867 C 276.019 18.346 277.429 17.372 281.775 15.682 C 286.335 13.907 287.412 13.628 296.728 13.078 C 299.55 7.978 300.324 8.171 304.809 6.567 C 309.718 4.808 312.213 2.985 324.408 3.472 C 336.808 3.969 336.258 3.774 342.999 6.728 C 347.521 8.712 349.261 11.937 349.261 11.937 C 357.521 13.195 357.388 12.418 361.991 13.566 C 368.327 15.143 369.065 14.348 374.115 18.613 C 378.595 22.392 378.966 26.262 378.966 26.262 L 377.953 34.076 C 384.76 35.27 383.838 33.879 389.674 36.842 C 395.365 39.732 395.136 39.09 398.564 44.82 C 401.615 49.917 400.688 50.901 398.767 56.702 C 397.419 60.772 394.931 62.725 390.281 66.795 L 380.177 70.54 Z" style="stroke-linecap: round; stroke-linejoin: round; stroke: rgb(0, 0, 0); fill: rgb(255, 255, 255); stroke-width: 2;"/>
  <ellipse cx="19.639" cy="22.08" rx="3.133" ry="5.127" transform="matrix(0.999997, 0, 0, 1, 296.582761, 2.144648)" style="stroke-width: 2;"/>
  <ellipse cx="329.051" cy="24.47" rx="3.133" ry="5.127" style="stroke-width: 2;"/>
  <path d="M 304.809 42.377 C 304.809 42.377 319.65 53.284 341.786 42.844" style="fill: none; stroke: rgb(0, 0, 0); stroke-width: 2;"/>
  <path d="M 300.969 49.378 C 300.969 49.378 308.043 44.478 302.028 36.355" style="fill: none; stroke: black; stroke-linecap: round; stroke-width: 2;"/>
  <path d="M 344.139 37.169 C 345.172 35.49 338.146 43.315 346.434 49.378" style="fill: none; stroke: black; stroke-linecap: round; stroke-width: 2;"/>
  <path d="M 397.96 52.146 C 397.96 52.146 394.522 63.541 388.6 65.982 C 382.678 68.424 381.17 69.401 374.911 70.214 C 368.65 71.029 355.049 70.76 356.131 70.052 C 357.214 69.342 363.141 68.587 369.407 67.446 C 375.676 66.308 378.61 65.656 382.847 64.028 C 387.085 62.4 389.165 60.609 391.589 58.331 C 394.013 56.051 395.946 54.588 397.96 52.146 Z" style="fill: rgb(145, 146, 143); stroke-width: 2;"/>
  <path d="M 377.146 30.006 C 377.146 30.006 375.732 35.377 375.732 35.54 C 375.732 35.702 379.369 35.214 382.602 36.192 C 385.835 37.169 386.845 37.983 386.845 37.983 C 386.845 37.983 383.779 37.141 379.369 37.005 C 374.115 36.842 372.298 37.658 372.095 37.495 C 371.891 37.332 375.329 34.076 377.146 30.006 Z" style="fill: rgb(145, 146, 143); stroke-width: 2;"/>
  <path d="M 252.833 198.678 C 252.833 198.678 253.056 198.738 252.301 198.781 C 251.548 198.825 250.939 198.833 250.068 198.85 C 249.197 198.866 247.248 198.87 247.755 198.866 C 248.262 198.861 248.942 198.856 249.714 198.841 C 250.486 198.827 250.698 198.825 251.219 198.81 C 251.743 198.795 251.948 198.785 252.222 198.759 C 252.497 198.732 252.585 198.702 252.833 198.678 Z" style="fill: rgb(145, 146, 143); stroke-width: 2;"/>
  <path d="M 280.855 154.529 C 276.06 155.289 277.223 155.084 272.829 155.193 C 267.165 155.334 269.175 155.159 264.591 155.289 C 262.487 155.354 256.943 155.507 251.869 155.386 C 244.804 155.215 244.73 155.646 238.312 155.291 C 232.415 154.96 232.017 155.272 228.2 154.337 C 225.997 153.797 224.863 153.645 221.839 152.909 C 220.679 152.244 217.424 150.829 216.835 150.052 C 214.502 146.969 214.477 148.484 214.227 144.243 C 214.079 141.712 214.404 140.02 215.795 138.149 C 217.335 136.065 218.235 134.984 222.153 134.147 C 222.462 134.083 222.795 131.011 222.986 130.149 C 223.481 127.896 223.548 127.791 225.175 126.054 C 227.109 123.994 227.835 123.422 230.08 122.436 C 232.431 121.397 232.986 121.234 237.792 120.911 C 239.248 117.929 239.649 118.041 241.963 117.101 C 244.497 116.073 245.786 115.006 252.077 115.292 C 258.475 115.582 258.193 115.469 261.672 117.199 C 264.002 118.36 264.903 120.247 264.903 120.247 C 269.165 120.98 269.095 120.525 271.471 121.196 C 274.743 122.119 275.12 121.654 277.726 124.147 C 280.04 126.36 280.23 128.624 280.23 128.624 L 279.708 133.197 C 283.22 133.895 282.744 133.083 285.759 134.813 C 288.694 136.505 288.578 136.13 290.344 139.482 C 291.919 142.462 291.443 143.038 290.449 146.433 C 289.753 148.814 288.47 149.958 286.07 152.336 L 280.855 154.529 Z" style="stroke-linecap: round; stroke-linejoin: round; stroke: rgb(0, 0, 0); fill: rgb(255, 255, 255); stroke-width: 2;"/>
  <path d="M 290.032 143.77 C 290.032 143.77 288.26 150.431 285.202 151.861 C 282.146 153.289 281.368 153.862 278.138 154.337 C 274.908 154.816 267.89 154.658 268.448 154.241 C 269.006 153.827 272.065 153.385 275.298 152.719 C 278.532 152.05 280.044 151.673 282.233 150.721 C 284.424 149.766 285.496 148.718 286.747 147.384 C 287.996 146.052 288.994 145.198 290.032 143.77 Z" style="fill: rgb(145, 146, 143); stroke-width: 2;"/>
  <path d="M 297.815 92.5 C 293.595 93.165 294.619 92.986 290.753 93.079 C 285.77 93.205 287.541 93.049 283.509 93.165 C 281.659 93.22 276.778 93.355 272.32 93.249 C 266.107 93.1 266.04 93.478 260.395 93.167 C 255.206 92.876 254.859 93.148 251.5 92.331 C 249.563 91.859 248.566 91.724 245.907 91.081 C 244.885 90.498 242.023 89.26 241.505 88.581 C 239.451 85.884 239.432 87.211 239.212 83.497 C 239.079 81.283 239.367 79.801 240.589 78.163 C 241.944 76.342 242.734 75.395 246.182 74.662 C 246.456 74.608 246.749 71.916 246.915 71.163 C 247.35 69.192 247.409 69.1 248.841 67.58 C 250.54 65.779 251.18 65.279 253.153 64.413 C 255.221 63.506 255.71 63.362 259.938 63.081 C 261.219 60.471 261.573 60.569 263.608 59.746 C 265.834 58.844 266.968 57.913 272.504 58.163 C 278.128 58.418 277.879 58.317 280.94 59.833 C 282.991 60.847 283.782 62.498 283.782 62.498 C 287.532 63.141 287.469 62.741 289.56 63.33 C 292.435 64.139 292.77 63.732 295.061 65.913 C 297.096 67.848 297.264 69.828 297.264 69.828 L 296.804 73.83 C 299.893 74.442 299.476 73.731 302.124 75.246 C 304.708 76.725 304.603 76.399 306.158 79.332 C 307.543 81.94 307.126 82.445 306.25 85.415 C 305.643 87.498 304.509 88.5 302.401 90.581 L 297.815 92.5 Z" style="stroke-linecap: round; stroke-linejoin: round; stroke: rgb(0, 0, 0); fill: rgb(255, 255, 255); stroke-width: 2;"/>
  <path d="M 305.885 83.084 C 305.885 83.084 304.323 88.915 301.636 90.166 C 298.949 91.416 298.265 91.915 295.424 92.331 C 292.583 92.749 286.41 92.613 286.9 92.25 C 287.391 91.886 290.082 91.498 292.927 90.917 C 295.77 90.333 297.1 89.999 299.027 89.168 C 300.95 88.331 301.894 87.415 302.994 86.247 C 304.095 85.081 304.973 84.335 305.885 83.084 Z" style="fill: rgb(145, 146, 143); stroke-width: 2;"/>
  <path d="M 296.438 71.747 C 296.438 71.747 295.795 74.496 295.795 74.58 C 295.795 74.662 297.446 74.414 298.914 74.916 C 300.383 75.414 300.842 75.831 300.842 75.831 C 300.842 75.831 299.45 75.4 297.446 75.332 C 295.061 75.246 294.238 75.664 294.146 75.583 C 294.052 75.499 295.613 73.83 296.438 71.747 Z" style="fill: rgb(145, 146, 143); stroke-width: 2;"/>
  <path d="M 83.855 401.167 L 127.195 333.865 L 378.988 333.865 L 422.466 401.167 L 83.855 401.167 Z" style="stroke: black; stroke-width: 3; fill: rgb(128, 255, 111);"/>
  <text x="191.153" y="246.687" style="font-family: Abel; font-size: 20px; white-space: pre;" transform="matrix(2.664989, 0, 0, 2.314836, -307.38559, -188.784424)" bx:origin="0.462 -0.784">CaaS</text>
</svg>