<?xml version="1.0" encoding="utf-8"?>
<svg viewBox="0 0 500 500" xmlns="http://www.w3.org/2000/svg" xmlns:bx="https://boxy-svg.com">
  <defs>
    <style id="bx-google-fonts">@import url(https://fonts.googleapis.com/css?family=Roboto:100,300,500,700,900,100italic,300italic,400,400italic,500italic,700italic,900italic);</style>
    <radialGradient id="gradient-0" gradientUnits="userSpaceOnUse" cx="145.97" cy="261.399" r="24.654" gradientTransform="matrix(8.229735, 0.23073, -0.028028, 0.999606, -1035.340369, 5.627582)">
      <stop offset="0" style="stop-color: rgb(228, 255, 121);"/>
      <stop offset="1" style="stop-color: rgb(94, 232, 98);"/>
    </radialGradient>
    <radialGradient id="gradient-1" gradientUnits="userSpaceOnUse" cx="145.97" cy="261.399" r="24.654" gradientTransform="matrix(8.229737, 0.23073, -0.028028, 0.999608, -947.79732, 4.53772)">
      <stop offset="0" style="stop-color: rgb(228, 255, 121);"/>
      <stop offset="1" style="stop-color: rgb(94, 232, 98);"/>
    </radialGradient>
    <radialGradient id="gradient-2" gradientUnits="userSpaceOnUse" cx="145.97" cy="261.399" r="24.654" gradientTransform="matrix(8.229737, 0.23073, -0.028027, 0.999608, -856.151983, 4.539551)">
      <stop offset="0" style="stop-color: rgb(228, 255, 121);"/>
      <stop offset="1" style="stop-color: rgb(94, 232, 98);"/>
    </radialGradient>
    <radialGradient id="gradient-3" gradientUnits="userSpaceOnUse" cx="145.97" cy="261.399" r="24.654" gradientTransform="matrix(8.229735, 0.23073, -0.028028, 0.999608, -770.185661, 3.268616)">
      <stop offset="0" style="stop-color: rgb(228, 255, 121);"/>
      <stop offset="1" style="stop-color: rgb(94, 232, 98);"/>
    </radialGradient>
  </defs>
  <path d="M 83.135 392.215 C 83.767 392.215 97.288 391.005 97.672 390.951 C 113.78 388.649 129.943 388.422 146.341 388.422 C 212.414 388.422 283.123 384.662 348.602 392.847 C 368.827 395.375 389.804 392.502 409.912 395.375 C 416.56 396.325 424.035 395.375 430.77 395.375 C 432.055 395.375 443.082 396.007 438.987 396.007 C 438.983 419.05 439.619 441.525 439.619 464.902 C 439.619 468.734 437.251 488.288 439.619 488.288 C 438.355 487.024 426.313 488.288 419.393 488.288 C 399.748 488.288 376.034 493.092 356.818 488.288 C 292.242 472.145 220.247 489.124 154.558 478.175 C 131.481 474.329 103.417 486.626 81.871 479.439 C 81.871 479.439 86.339 437.897 84.399 430.138 C 83.162 425.19 81.871 420.226 81.871 414.969 C 81.871 413.621 81.239 394.743 80.607 394.743" style="stroke: black; stroke-width: 3; fill: rgb(255, 195, 179);"/>
  <path d="M 170.992 412.44 C 170.992 412.44 164.574 416.476 163.407 416.865 C 158.055 418.649 144.146 420.136 138.125 418.129 C 135.597 417.286 120.427 411.176 120.427 411.176 C 121.059 411.176 141.502 400.082 150.134 402.959 C 154.116 404.287 170.36 411.176 170.36 411.176 Z" style="stroke: black; stroke-width: 3; fill: rgb(255, 213, 0);"/>
  <path d="M 121.059 412.44 C 121.691 412.44 121.691 419.333 121.691 420.025 C 121.691 428.905 120.427 436.998 120.427 445.94 C 120.427 449.528 119.795 460.273 119.795 456.685 C 119.794 466.968 148.717 465.534 157.718 465.534 C 158.69 465.534 169.728 461.741 169.728 461.741 C 168.464 461.109 167.199 453.234 167.199 452.26 C 167.199 442.282 169.096 432.947 169.096 423.185 C 169.096 421.574 168.781 413.072 170.36 412.44" style="stroke: black; stroke-width: 3; fill: rgb(255, 213, 0);"/>
  <path d="M 122.323 428.242 C 122.955 428.242 134.57 435.195 137.492 435.195 C 140.611 435.195 155.079 439.098 157.718 436.459 C 158.484 435.693 167.831 431.402 167.831 431.402" style="stroke: black; stroke-width: 3; fill: rgb(255, 213, 0);"/>
  <path d="M 121.691 445.308 C 122.323 445.308 148.033 460.049 154.558 453.524 C 155.219 452.863 167.831 445.94 167.831 445.94" style="stroke: black; stroke-width: 3; fill: rgb(255, 213, 0);"/>
  <path d="M 122.955 413.072 C 123.587 413.072 129.908 414.492 129.908 414.969 C 129.908 418.612 153.746 418.761 158.351 418.761 C 161.857 418.761 170.36 413.704 170.36 413.704" style="stroke: black; fill: none; stroke-width: 3;"/>
  <path d="M 280.656 410.949 C 280.656 410.949 274.238 414.985 273.071 415.374 C 267.719 417.158 253.81 418.645 247.789 416.638 C 245.261 415.795 230.091 409.685 230.091 409.685 C 230.723 409.685 251.166 398.591 259.798 401.468 C 263.78 402.796 280.024 409.685 280.024 409.685 Z" style="stroke: black; stroke-width: 3; fill: rgb(255, 213, 0);"/>
  <path d="M 230.723 410.949 C 231.355 410.949 231.355 417.842 231.355 418.534 C 231.355 427.414 230.091 435.507 230.091 444.449 C 230.091 448.037 229.459 458.782 229.459 455.194 C 229.458 465.477 258.381 464.043 267.382 464.043 C 268.354 464.043 279.392 460.25 279.392 460.25 C 278.128 459.618 276.863 451.743 276.863 450.769 C 276.863 440.791 278.76 431.456 278.76 421.694 C 278.76 420.083 278.445 411.581 280.024 410.949" style="stroke: black; stroke-width: 3; fill: rgb(255, 213, 0);"/>
  <path d="M 231.987 426.751 C 232.619 426.751 244.234 433.704 247.156 433.704 C 250.275 433.704 264.743 437.607 267.382 434.968 C 268.148 434.202 277.495 429.911 277.495 429.911" style="stroke: black; stroke-width: 3; fill: rgb(255, 213, 0);"/>
  <path d="M 231.355 443.817 C 231.987 443.817 257.697 458.558 264.222 452.033 C 264.883 451.372 277.495 444.449 277.495 444.449" style="stroke: black; stroke-width: 3; fill: rgb(255, 213, 0);"/>
  <path d="M 232.619 411.581 C 233.251 411.581 239.572 413.001 239.572 413.478 C 239.572 417.121 263.41 417.27 268.015 417.27 C 271.521 417.27 280.024 412.213 280.024 412.213" style="stroke: black; fill: none; stroke-width: 3;"/>
  <path d="M 381.153 411.581 C 381.153 411.581 374.735 415.617 373.568 416.006 C 368.216 417.79 354.307 419.277 348.286 417.27 C 345.758 416.427 330.588 410.317 330.588 410.317 C 331.22 410.317 351.663 399.223 360.295 402.1 C 364.277 403.428 380.521 410.317 380.521 410.317 Z" style="stroke: black; stroke-width: 3; fill: rgb(255, 213, 0);"/>
  <path d="M 331.22 411.581 C 331.852 411.581 331.852 418.474 331.852 419.166 C 331.852 428.046 330.588 436.139 330.588 445.081 C 330.588 448.669 329.956 459.414 329.956 455.826 C 329.955 466.109 358.878 464.675 367.879 464.675 C 368.851 464.675 379.889 460.882 379.889 460.882 C 378.625 460.25 377.36 452.375 377.36 451.401 C 377.36 441.423 379.257 432.088 379.257 422.326 C 379.257 420.715 378.942 412.213 380.521 411.581" style="stroke: black; stroke-width: 3; fill: rgb(255, 213, 0);"/>
  <path d="M 332.484 427.383 C 333.116 427.383 344.731 434.336 347.653 434.336 C 350.772 434.336 365.24 438.239 367.879 435.6 C 368.645 434.834 377.992 430.543 377.992 430.543" style="stroke: black; stroke-width: 3; fill: rgb(255, 213, 0);"/>
  <path d="M 331.852 444.449 C 332.484 444.449 358.194 459.19 364.719 452.665 C 365.38 452.004 377.992 445.081 377.992 445.081" style="stroke: black; stroke-width: 3; fill: rgb(255, 213, 0);"/>
  <path d="M 333.116 412.213 C 333.748 412.213 340.069 413.633 340.069 414.11 C 340.069 417.753 363.907 417.902 368.512 417.902 C 372.018 417.902 380.521 412.845 380.521 412.845" style="stroke: black; fill: none; stroke-width: 3;"/>
  <path d="M 488.92 354.291 C 488.92 354.291 486.391 334.276 486.391 332.168 C 486.391 316.824 485.127 300.159 485.127 285.396 C 485.127 281.951 481.987 272.734 484.495 270.226 C 484.8 269.922 486.391 255.689 486.391 255.689 C 486.391 255.689 467.844 256.321 465.533 256.321 C 441.35 256.321 417.165 256.321 392.846 256.321 C 289.931 256.321 184.289 258.217 83.135 258.217 C 83.135 258.849 83.135 281.562 83.135 284.131 C 83.135 299.731 85.528 324.222 78.711 337.857 C 77.257 340.764 74.918 363.606 74.918 358.715 C 82.909 364.041 94.743 360.113 102.729 357.451 C 112.688 354.131 135.87 352.967 147.606 354.923 C 190.624 362.093 244.029 362.227 287.292 356.819 C 321.439 352.55 358.527 357.451 392.846 357.451 C 417.992 357.451 441.594 358.715 466.798 358.715 C 470.761 358.715 489.552 358.083 489.552 358.083" style="stroke: black; stroke-width: 3; fill: rgb(190, 220, 236);"/>
  <path d="M 137.492 322.055 C 137.492 322.055 144.304 322.546 144.445 322.687 C 148.552 326.795 167.318 323.319 172.256 323.319 C 175.838 323.319 183.001 326.901 183.001 323.319 C 183.001 315.753 178.614 302.385 181.737 296.141 C 183.335 292.944 182.369 287.252 182.369 283.499 C 182.369 283.383 183.913 277.811 183.633 277.811 C 178.292 277.811 162.831 274.306 155.822 277.811 C 150.825 280.309 143.267 275.829 138.757 280.339 C 138.757 279.707 137.942 288.289 137.492 289.188 C 134.605 294.962 134.964 309.095 134.964 315.103 C 134.964 317.05 137.492 323.613 137.492 320.159 Z" style="stroke: black; stroke-width: 3; fill: url(#gradient-0);"/>
  <text x="128.012" y="340.385" style="white-space: pre; font-size: 16px;">Instance 1</text>
  <defs>
    <style id="bx-google-fonts">@import url(https://fonts.googleapis.com/css?family=Roboto:100,100italic,300,300italic,400,400italic,500,500italic,700,700italic,900,900italic);</style>
  </defs>
  <path d="M 225.035 320.966 C 225.035 320.966 231.847 321.457 231.988 321.598 C 236.095 325.706 254.861 322.23 259.799 322.23 C 263.381 322.23 270.544 325.812 270.544 322.23 C 270.544 314.664 266.157 301.296 269.28 295.052 C 270.878 291.855 269.912 286.163 269.912 282.41 C 269.912 282.294 271.456 276.722 271.176 276.722 C 265.835 276.722 250.374 273.217 243.365 276.722 C 238.368 279.22 230.81 274.74 226.3 279.25 C 226.3 278.618 225.485 287.2 225.035 288.099 C 222.148 293.873 222.507 308.006 222.507 314.014 C 222.507 315.961 225.035 322.524 225.035 319.07 Z" style="stroke: black; stroke-width: 3; fill: url(#gradient-1);"/>
  <text x="215.555" y="339.928" style="white-space: pre; font-size: 16px;">Instance 2</text>
  <text x="223.139" y="271.666" style="font-size: 36; font-family: Roboto; white-space: pre;" transform="matrix(1.000001, 0, 0, 1, 12.641119, 39.187916)">A</text>
  <path d="M 316.68 320.968 C 316.68 320.968 323.493 321.459 323.633 321.6 C 327.74 325.708 346.507 322.232 351.444 322.232 C 355.026 322.232 362.189 325.814 362.189 322.232 C 362.189 314.666 357.802 301.298 360.925 295.054 C 362.524 291.857 361.558 286.165 361.558 282.412 C 361.558 282.296 363.102 276.724 362.821 276.724 C 357.481 276.724 342.02 273.219 335.011 276.724 C 330.013 279.222 322.455 274.742 317.946 279.252 C 317.946 278.62 317.131 287.202 316.68 288.101 C 313.793 293.875 314.153 308.008 314.153 314.016 C 314.153 315.963 316.68 322.526 316.68 319.072 Z" style="stroke: black; stroke-width: 3; fill: url(#gradient-2);"/>
  <text x="307.201" y="339.298" style="white-space: pre; font-size: 16px;">Instance 3</text>
  <path d="M 402.645 319.697 C 402.645 319.697 409.458 320.188 409.598 320.329 C 413.705 324.437 432.472 320.961 437.409 320.961 C 440.991 320.961 448.154 324.543 448.154 320.961 C 448.154 313.395 443.767 300.027 446.89 293.783 C 448.489 290.586 447.523 284.894 447.523 281.141 C 447.523 281.025 449.067 275.453 448.786 275.453 C 443.446 275.453 427.985 271.948 420.976 275.453 C 415.978 277.951 408.42 273.471 403.911 277.981 C 403.911 277.349 403.096 285.931 402.645 286.83 C 399.758 292.604 400.118 306.737 400.118 312.745 C 400.118 314.692 402.645 321.255 402.645 317.801 Z" style="stroke: black; stroke-width: 3; fill: url(#gradient-3); fill-opacity: 0.6;"/>
  <text x="393.166" y="338.027" style="fill-opacity: 0.6; white-space: pre; font-size: 16px;">Instance ...</text>
  <text x="413.39" y="309.585" style="fill-opacity: 0.6; font-size: 36px; white-space: pre;">A</text>
  <path d="M 75.55 253.792 C 74.918 253.792 67.899 261.509 66.701 263.905 C 62.444 272.419 66.701 286.031 66.701 295.509 C 66.701 297.313 65.643 305.196 66.701 306.254 C 69.409 308.961 65.424 313.811 66.701 316.367 C 72.02 327.003 62.533 348.346 57.852 353.026 C 57.799 353.08 47.107 358.857 47.107 356.187 C 47.107 354.37 52.634 356.025 52.796 356.187 C 54.944 358.335 59.117 363.447 59.117 367.564 C 59.117 383.42 64.416 397.175 59.117 413.072 C 55.332 424.425 59.117 445.766 59.117 457.317 C 59.117 459.999 57.672 470.41 59.749 472.486 C 60.735 473.473 73.654 487.045 73.654 476.279" style="stroke: black; fill: none; stroke-width: 3;"/>
  <text x="16.769" y="315.103" style="font-size: 24px; white-space: pre;" transform="matrix(0, -1, 1, 0, -283.694336, 471.981585)">Cloud Backend</text>
  <path d="M 272.123 188.058 L 298.669 225.35 L 245.576 225.35 L 272.123 188.058 Z" style="stroke-width: 3; stroke: rgb(0, 0, 0); fill: rgb(166, 255, 148);" bx:shape="triangle 245.576 188.058 53.093 37.292 0.5 0 1@33bbd524"/>
  <path d="M 147.605 91.352 C 148.237 91.352 141.05 101.862 144.445 105.257 C 152.439 113.251 163.688 114.456 172.256 105.889 C 177.882 100.263 168.086 85.031 163.407 85.031 C 156.939 85.031 146.973 91.984 146.973 91.984 Z" style="stroke: black; fill: none;"/>
  <path d="M 158.35 86.927 C 157.718 86.927 145.077 76.679 145.077 83.767" style="stroke: black; fill: none;"/>
  <path d="M 155.822 84.399 C 155.19 84.399 152.03 74.918 152.03 74.918" style="stroke: black; fill: none;"/>
  <path d="M 159.614 74.286 C 159.871 74.286 160.879 84.399 160.879 84.399 C 160.879 83.767 172.256 73.532 172.256 77.446" style="stroke: black; fill: none;"/>
  <path d="M 150.134 102.097 C 149.501 102.097 153.831 105.257 155.19 105.257 C 158.791 105.257 168.463 102.097 168.463 102.097" style="stroke: black; fill: none;"/>
  <path d="M 150.766 95.144 C 150.766 94.512 158.35 95.144 158.35 95.144" style="stroke: black; fill: none;"/>
  <path d="M 161.511 94.512 C 162.143 93.88 169.727 94.512 169.727 94.512" style="stroke: black; fill: none;"/>
  <path d="M 154.558 113.474 C 154.558 114.106 143.813 111.346 143.813 111.578 C 143.813 114.527 140.863 120.427 143.813 120.427 C 145.766 120.427 155.822 114.738 155.822 114.738 Z" style="stroke: black; fill: none;"/>
  <path d="M 158.35 114.106 C 157.718 113.474 153.123 117.266 154.558 117.266 C 159.372 117.266 159.614 115.37 159.614 115.37 Z" style="stroke: black; fill: none;"/>
  <path d="M 160.247 114.738 C 159.614 114.738 173.52 107.499 173.52 112.21 C 173.52 129.118 159.614 116.002 159.614 116.002 Z" style="stroke: black; fill: none;"/>
  <path d="M 153.926 93.248 C 153.294 93.248 155.19 100.941 155.19 93.248 Z" style="stroke: black; fill: none;"/>
  <path d="M 165.303 92.616 C 165.303 93.248 166.567 99.495 166.567 97.672 C 166.567 96.699 165.935 93.248 165.935 93.248 Z" style="stroke: black; fill: none;"/>
  <path d="M 336.593 73.654 C 341.991 73.654 343.106 72.583 346.706 76.183 C 348.836 78.313 347.338 83.135 347.338 83.135 C 347.338 82.503 339.995 85.811 338.489 88.824 C 338.402 88.997 336.39 97.041 337.225 97.041 C 340.357 97.041 341.963 101.147 344.177 103.361 C 354.246 113.429 378.037 80.607 352.394 80.607 C 348.937 80.607 346.438 83.767 343.545 83.767" style="stroke: black; fill: none;"/>
  <path d="M 347.338 76.815 C 346.706 76.815 356.187 68.946 356.187 69.862 C 356.187 71.816 357.689 76.576 356.187 78.079 C 355.854 78.412 345.441 78.079 345.441 78.079 Z" style="stroke: black; fill: none;"/>
  <path d="M 346.706 76.183 C 346.074 76.183 336.421 78.54 336.593 78.711 C 337.11 79.228 339.05 83.838 341.017 81.871 C 343.256 79.632 345.441 76.752 345.441 78.079 Z" style="stroke: black; fill: none;"/>
  <path d="M 323.319 109.682" style="stroke: black; fill: none;"/>
  <path d="M 347.338 89.456 C 346.706 89.456 335.647 95.144 340.385 95.144 C 350.678 95.144 345.954 90.208 344.809 91.352" style="stroke: black; fill: none;"/>
  <path d="M 355.554 87.56 C 354.922 87.56 350.915 91.137 352.394 92.616 C 356.426 96.647 368.143 88.192 354.922 88.192 Z" style="stroke: black; fill: none;"/>
  <path d="M 346.074 99.569 C 346.074 98.937 354.29 99.569 354.29 99.569" style="stroke: black; fill: none;"/>
  <path d="M 344.177 103.993 C 344.177 103.361 334.21 110.168 333.432 110.946 C 333.196 111.182 332.168 119.795 332.168 119.795" style="stroke: black; fill: none;"/>
  <path d="M 354.922 103.993 C 355.554 105.565 362.507 106.685 362.507 109.05 C 362.507 112.687 364.403 119.795 364.403 119.795" style="stroke: black; fill: none;"/>
  <path d="M 152.03 117.898 C 151.398 121.967 146.973 129.275 146.973 129.275" style="stroke: black; fill: none;"/>
  <path d="M 164.671 120.427 C 165.303 120.427 170.36 131.804 170.36 131.804" style="stroke: black; fill: none;"/>
  <path d="M 131.172 164.04 C 140.579 164.04 152.545 164.04 164.039 164.04 C 165.131 164.04 182.369 165.142 182.369 164.672 C 182.369 157.844 183.181 148.511 186.162 142.549 C 187.651 139.57 192.653 133.068 189.322 133.068 C 170.447 133.068 150.634 134.333 131.172 134.333 C 131.172 133.701 131.172 162.143 131.172 162.143 Z" style="fill: rgb(40, 190, 255); stroke: rgb(0, 0, 0); stroke-width: 3;"/>
  <text x="146.341" y="157.087" style="font-size: 20px; white-space: pre;">UI</text>
  <path d="M 323.55 160.012 C 332.957 160.012 344.923 160.012 356.417 160.012 C 357.509 160.012 374.747 161.114 374.747 160.644 C 374.747 153.816 375.559 144.483 378.54 138.521 C 380.029 135.542 385.031 129.04 381.7 129.04 C 362.825 129.04 343.012 130.305 323.55 130.305 C 323.55 129.673 323.55 158.115 323.55 158.115 Z" style="stroke: rgb(0, 0, 0); stroke-width: 3; fill: rgb(255, 154, 211);"/>
  <text x="338.719" y="153.059" style="font-size: 20px; white-space: pre;">UI</text>
  <path d="M 253.792 81.871 C 253.792 81.239 244.311 83.533 244.311 86.928 C 244.311 93.877 241.949 94.678 247.472 100.201 C 248.359 101.089 252.679 104.625 253.16 104.625 C 265.604 104.625 266.14 102.391 272.754 95.777 C 276.88 91.65 270.355 81.429 267.066 80.607 C 260.873 79.059 257.575 81.871 252.528 81.871 Z" style="stroke: black; fill: none;"/>
  <path d="M 278.443 86.928 C 278.443 86.928 267.066 79.831 267.066 83.767 C 266.434 83.767 272.262 78.219 275.915 81.871" style="stroke: black; fill: none;"/>
  <path d="M 249.368 85.664 C 248.736 85.664 246.63 77.235 241.151 79.975" style="stroke: black; fill: none;"/>
  <path d="M 246.208 88.824 C 246.208 88.192 239.123 84.531 235.462 88.192" style="stroke: black; fill: none;"/>
  <path d="M 255.688 87.56 C 256.321 87.56 259.27 96.409 256.321 96.409 C 252.923 96.409 246.208 98.542 246.208 95.144 C 246.208 92.397 246.84 84.181 246.84 86.928 C 246.84 87.118 255.551 88.192 256.321 88.192 Z" style="stroke: black; fill: none;"/>
  <path d="M 260.745 87.56 C 260.745 88.192 260.07 94.512 260.745 94.512 C 263.695 94.512 269.594 97.462 269.594 94.512 C 269.594 91.773 272.333 86.296 269.594 86.296 C 269.242 86.296 262.641 86.296 262.641 86.296 Z" style="stroke: black; fill: none;"/>
  <path d="M 250.632 91.352 C 251.264 91.352 251.425 93.248 253.16 93.248" style="stroke: black; fill: none;"/>
  <path d="M 265.801 90.088 C 265.801 89.456 263.273 91.984 263.273 91.984 Z" style="stroke: black; fill: none;"/>
  <path d="M 253.792 100.833 C 253.16 100.833 265.589 99.569 262.641 99.569" style="stroke: black; fill: none;"/>
  <path d="M 257.585 87.56 C 258.217 87.56 260.728 88.192 262.009 88.192" style="stroke: black; fill: none;"/>
  <path d="M 269.594 87.56 C 270.226 87.56 275.915 92.616 275.915 92.616" style="stroke: black; fill: none;"/>
  <path d="M 246.208 90.088 C 245.575 90.088 235.413 95.144 241.783 95.144" style="stroke: black; fill: none;"/>
  <path d="M 273.386 130.54 C 273.386 130.54 277.409 117.497 273.386 113.474 C 272.794 112.882 263.273 104.625 263.273 104.625 C 262.641 104.625 255.688 113.787 255.688 111.578" style="stroke: black; fill: none;"/>
  <path d="M 238.623 129.908 C 238.623 129.276 235.404 117.957 237.359 116.003 C 238.87 114.491 251.264 103.993 251.264 103.993 C 250 104.625 260.113 116.635 260.113 116.635" style="stroke: black; fill: none;"/>
  <path d="M 258.849 119.795 C 258.849 120.427 260.113 130.54 260.113 130.54" style="stroke: black; fill: none;"/>
  <path d="M 252.528 121.059 C 251.896 122.257 256.321 124.219 256.321 124.219" style="stroke: black; fill: none;"/>
  <path d="M 252.528 129.276 C 251.896 129.276 255.688 131.172 255.688 131.172" style="stroke: black; fill: none;"/>
  <path d="M 230.005 163.172 C 239.412 163.172 251.378 163.172 262.872 163.172 C 263.964 163.172 281.202 164.274 281.202 163.804 C 281.202 156.976 282.014 147.643 284.995 141.681 C 286.484 138.702 291.486 132.2 288.155 132.2 C 269.28 132.2 249.467 133.465 230.005 133.465 C 230.005 132.833 230.005 161.275 230.005 161.275 Z" style="stroke: rgb(0, 0, 0); stroke-width: 3; fill: rgb(255, 151, 40);"/>
  <text x="244.542" y="125.88" style="font-size: 20px; white-space: pre;" transform="matrix(0.999999, 0, 0, 1, 0.632268, 30.339084)">UI</text>
  <text x="16.769" y="315.103" style="font-size: 24px; white-space: pre;" transform="matrix(0, -1, 1, 0, -282.693512, 213.938601)">Frontend</text>
  <path d="M 159.615 157.719 C 159.615 158.351 160.597 171.13 160.879 172.256 C 164.868 188.213 158.716 191.583 164.039 196.907 C 166.166 199.034 180.045 194.446 183.633 195.643 C 202.789 202.028 223.572 199.435 243.679 199.435 C 249.953 199.435 258.372 196.326 263.905 198.171 C 266.511 199.039 272.122 194.792 272.122 197.539 C 272.122 205.808 272.122 217.632 272.122 227.246 C 272.122 230.977 271.49 234.396 271.49 237.359 C 271.49 239.057 273.821 242.415 272.122 242.415 C 265.534 242.415 258.165 241.151 251.264 241.151 C 247.098 241.151 241.236 240.547 237.359 239.255 C 231.29 237.232 223.358 240.811 217.133 239.255 C 205.837 236.431 187.777 240.273 176.681 243.047 C 171.573 244.324 166.504 242.015 161.511 243.679 C 159.668 244.294 154.449 243.57 155.822 244.943 C 160.1 249.221 160.879 259.563 160.879 266.434 C 160.879 268.405 159.63 275.93 160.879 277.179 C 163.618 279.918 160.879 298.192 160.879 303.093 C 160.879 327.988 158.983 351.079 158.983 374.516 C 158.983 385.715 155.874 393.273 153.294 403.591 C 152.675 406.068 150.766 413.704 150.766 413.704" style="fill: none; stroke-width: 4; stroke: rgb(91, 146, 255); stroke-opacity: 0.7;"/>
  <path d="M 254.424 165.303 Z" style="fill: none; stroke-width: 4; stroke-opacity: 0.7; stroke: rgb(255, 146, 37);"/>
  <path d="M 254.424 165.303 C 255.056 165.303 263.905 175.439 263.905 176.681 C 263.905 179.012 273.399 193.127 275.915 195.643 C 277.777 197.504 274.018 209.724 274.018 212.708 C 274.018 215.167 276.345 229.976 274.65 231.67 C 274.079 232.242 274.374 246.208 274.65 246.208 C 286.479 246.208 303.263 246.84 318.263 246.84 C 323.784 246.84 328.5 246.84 332.8 246.84 C 335.156 246.84 339.753 243.22 339.753 245.576 C 339.753 259.421 338.489 299.524 338.489 308.782 C 338.489 316.767 331.335 337.023 337.857 343.545 C 338.676 344.365 338.489 354.765 338.489 355.555 C 338.489 358.083 341.017 363.139 338.489 363.139 C 337.676 363.139 336.914 370.092 337.225 370.092 C 340.271 370.092 353.658 372.202 353.658 373.884 C 353.658 381.281 352.394 393.121 352.394 402.327 C 352.394 402.739 353.026 411.808 353.026 411.808" style="fill: none; stroke-width: 4; stroke-opacity: 0.7; stroke: rgb(255, 146, 37);"/>
  <path d="M 350.498 162.143 C 349.866 162.143 347.97 181.702 347.97 185.53 C 347.97 187.77 348.495 196.275 347.97 196.275 C 331.021 196.275 312.097 196.907 296.141 196.907 C 294.428 196.907 277.179 198.518 277.179 200.067 C 277.179 208.991 277.811 217.494 277.811 227.878 C 277.811 232.532 271.892 241.783 276.547 241.783 C 285.083 241.783 300.709 244.943 311.942 244.943 C 317.074 244.943 322.183 245.576 327.112 245.576 C 329.64 245.576 334.696 243.047 334.696 245.576 C 334.696 272.521 335.878 311.555 326.48 339.753 C 324.52 345.632 323.951 356.56 323.951 362.507 C 323.951 365.036 326.48 370.092 323.951 370.092 C 284.945 370.092 239.456 366.3 197.539 366.3 C 192.607 366.3 174.94 369.538 169.728 366.932 C 167.955 366.045 153.926 365.963 153.926 366.3 C 153.926 374.627 150.421 391.639 146.342 399.799 C 144.354 403.774 140.633 413.072 145.077 413.072" style="fill: none; stroke-width: 4; stroke-opacity: 0.7; stroke: rgb(255, 76, 159);"/>
  <text x="327.425" y="310.856" style="font-size: 36; font-family: Roboto; white-space: pre;">A</text>
  <text x="148.237" y="311.943" style="font-size: 36; font-family: Roboto; white-space: pre;">A</text>
  <text x="262.009" y="217.765" style="white-space: pre; font-size: 16px;">api</text>
  <text x="138.757" y="39.523" style="font-size: 36; font-family: Roboto; white-space: pre;">Multi Tenancy</text>
</svg>