<?xml version="1.0" encoding="utf-8"?>
<svg viewBox="0 0 500 500" xmlns="http://www.w3.org/2000/svg">
  <defs>
    <pattern id="pattern-0" x="0" y="0" width="20" height="20" patternUnits="userSpaceOnUse" viewBox="0 0 100 100">
      <path d="M 0 0 L 50 0 L 50 100 L 0 100 Z" style="fill: black;"/>
      <ellipse cx="52.908" cy="51.075" rx="35.901" ry="32.931" style="fill: rgb(216, 216, 216);"/>
    </pattern>
    <linearGradient id="gradient-1" gradientUnits="userSpaceOnUse" x1="122.46" y1="510.579" x2="122.46" y2="719.332" spreadMethod="repeat" gradientTransform="matrix(-0.555547, -0.101009, 0.006055, -0.033306, 246.045034, 413.372568)">
      <stop offset="0" style="stop-color: rgb(97, 55, 0);"/>
      <stop offset="1" style="stop-color: rgb(255, 176, 19);"/>
    </linearGradient>
    <linearGradient id="gradient-2" gradientUnits="userSpaceOnUse" x1="175.416" y1="308.782" x2="175.416" y2="340.385" spreadMethod="repeat" gradientTransform="matrix(0.996544, -0.083047, 0.02, 0.239995, -6.201693, 273.262095)">
      <stop offset="0" style="stop-color: rgb(255, 153, 0);"/>
      <stop offset="1" style="stop-color: rgb(105, 61, 4);"/>
    </linearGradient>
    <style id="bx-google-fonts">@import url(https://fonts.googleapis.com/css?family=Abril+Fatface:400);</style>
    <linearGradient id="gradient-3" gradientUnits="userSpaceOnUse" x1="122.46" y1="510.579" x2="122.46" y2="719.332" spreadMethod="repeat" gradientTransform="matrix(-0.538038, 0.106293, 0.005864, 0.035048, 243.649699, 225.04328)">
      <stop offset="0" style="stop-color: rgb(97, 55, 0);"/>
      <stop offset="1" style="stop-color: rgb(255, 176, 19);"/>
    </linearGradient>
    <linearGradient id="gradient-4" gradientUnits="userSpaceOnUse" x1="175.416" y1="308.782" x2="175.416" y2="340.385" spreadMethod="repeat" gradientTransform="matrix(0.996546, 0.083047, 0.02, -0.239995, 8.334613, 375.273)">
      <stop offset="0" style="stop-color: rgb(255, 153, 0);"/>
      <stop offset="1" style="stop-color: rgb(105, 61, 4);"/>
    </linearGradient>
    <linearGradient id="gradient-0" gradientUnits="userSpaceOnUse" x1="89.456" y1="196.907" x2="89.456" y2="420.657" spreadMethod="repeat" gradientTransform="matrix(0.939787, -0.34176, 0.011299, 0.031072, 1.897326, 438.158915)">
      <stop offset="0" style="stop-color: rgb(255, 153, 0);"/>
      <stop offset="1" style="stop-color: rgb(107, 65, 1);"/>
    </linearGradient>
    <linearGradient id="gradient-5" gradientUnits="userSpaceOnUse" x1="89.456" y1="196.907" x2="89.456" y2="420.657" spreadMethod="repeat" gradientTransform="matrix(0.939787, 0.34176, 0.011299, -0.031072, 336.259644, 202.158934)">
      <stop offset="0" style="stop-color: rgb(255, 153, 0);"/>
      <stop offset="1" style="stop-color: rgb(107, 65, 1);"/>
    </linearGradient>
    <linearGradient id="gradient-6" gradientUnits="userSpaceOnUse" x1="262.326" y1="291.084" x2="262.326" y2="434.563" spreadMethod="repeat" gradientTransform="matrix(1, 0, 0, 0.052867, -0.000028, 411.588783)">
      <stop offset="0" style="stop-color: rgb(255, 174, 0);"/>
      <stop offset="1" style="stop-color: rgb(76, 43, 0);"/>
    </linearGradient>
  </defs>
  <g transform="matrix(0.564655, 0, 0, 0.520783, 108.481392, 4.957221)">
    <ellipse cx="254.108" cy="194.379" rx="69.844" ry="42.348" style="stroke-width: 5; stroke: rgb(0, 0, 0); fill: rgb(79, 179, 16);"/>
    <path d="M 433.298 457.948 C 404.223 463.005 411.276 461.647 384.63 462.373 C 350.303 463.308 362.499 462.119 334.696 463.005 C 321.948 463.411 288.333 464.454 257.585 463.638 C 214.769 462.501 214.291 465.382 175.415 463.006 C 139.661 460.821 137.244 462.886 114.106 456.685 C 100.748 453.105 93.881 452.087 75.551 447.204 C 68.511 442.78 48.777 433.401 45.212 428.242 C 31.069 407.778 30.932 417.845 29.409 389.686 C 28.501 372.888 30.488 361.655 38.892 349.233 C 48.247 335.405 53.69 328.233 77.447 322.687 C 79.332 322.247 81.359 301.858 82.503 296.141 C 85.493 281.192 85.903 280.498 95.776 268.963 C 107.484 255.284 111.889 251.504 125.483 244.943 C 139.748 238.058 143.117 236.974 172.256 234.832 C 181.085 215.042 183.507 215.786 197.539 209.549 C 212.892 202.725 220.697 195.647 258.848 197.541 C 297.63 199.467 295.912 198.71 316.999 210.182 C 331.149 217.88 336.591 230.408 336.591 230.408 C 362.428 235.286 362.01 232.275 376.411 236.727 C 396.228 242.853 398.535 239.768 414.337 256.321 C 428.349 270.999 429.506 286.027 429.506 286.027 L 426.346 316.368 C 447.63 320.997 444.75 315.605 463.004 327.112 C 480.806 338.333 480.091 335.838 490.816 358.084 C 500.358 377.875 497.456 381.697 491.449 404.222 C 487.236 420.021 479.45 427.61 464.902 443.412 L 433.298 457.948 Z" style="stroke-linecap: round; stroke-linejoin: round; stroke-width: 7; stroke: rgb(0, 0, 0); fill: rgb(255, 255, 255);"/>
    <path d="M 197.539 348.602 C 198.637 344.554 256.118 301.237 313.206 348.493" style="fill: none; stroke: rgb(0, 0, 0); stroke-width: 9;"/>
    <path d="M 185.53 375.781 C 185.53 375.781 207.652 356.753 188.84 325.216" style="fill: none; stroke: black; stroke-width: 9; stroke-linecap: round;"/>
    <path d="M 320.568 328.377 C 323.798 321.857 301.824 352.237 327.744 375.782" style="fill: none; stroke: black; stroke-width: 9; stroke-linecap: round;"/>
    <path d="M 488.919 386.526 C 488.919 386.526 478.175 430.769 459.65 440.251 C 441.125 449.733 436.404 453.525 416.822 456.685 C 397.24 459.845 354.696 458.808 358.083 456.053 C 361.47 453.298 380.005 450.363 399.61 445.94 C 419.215 441.517 428.391 438.988 441.651 432.667 C 454.911 426.346 461.413 419.393 468.998 410.544 C 476.583 401.695 482.624 396.008 488.919 386.526 Z" style="fill: rgb(145, 146, 143);"/>
    <path d="M 420.025 300.565 L 420.025 300.565 Z" style="fill: rgb(255, 255, 255);"/>
    <path d="M 423.817 300.565 C 423.817 300.565 419.393 321.423 419.393 322.055 C 419.393 322.687 430.769 320.791 440.882 324.584 C 450.995 328.377 454.156 331.536 454.156 331.536 C 454.156 331.536 444.564 328.274 430.769 327.744 C 414.335 327.112 408.647 330.273 408.015 329.641 C 407.383 329.009 418.128 316.367 423.817 300.565 Z" style="fill: rgb(145, 146, 143);"/>
    <path d="M 312.89 167.2 C 312.89 178.021 302.278 186.794 289.188 186.794 C 284.63 186.794 280.373 185.73 276.759 183.887 C 270.52 186.566 263.601 188.056 256.318 188.056 C 247.681 188.056 239.556 185.96 232.469 182.271 C 228.98 183.942 224.929 184.898 220.607 184.898 C 207.517 184.898 196.905 176.125 196.905 165.304 C 196.905 158.585 200.996 152.656 207.231 149.126 C 206.676 146.277 206.386 143.339 206.386 140.336 C 206.386 113.981 228.741 92.616 256.318 92.616 C 283.895 92.616 306.25 113.981 306.25 140.336 C 306.25 144.486 305.696 148.513 304.654 152.352 C 309.697 155.945 312.89 161.264 312.89 167.2 Z" style="stroke: rgb(0, 0, 0); stroke-width: 5; fill: rgb(234, 194, 16);"/>
    <ellipse cx="421.265" cy="171.921" rx="8.533" ry="7.585" style="fill: rgb(255, 98, 0);" transform="matrix(0.999998, 0, 0, 1, -200.656672, -6.618042)"/>
    <ellipse cx="287.292" cy="164.672" rx="8.533" ry="7.585" style="fill: rgb(255, 98, 0);"/>
    <path d="M 313.21 130.821 C 313.21 146.588 299.269 159.373 282.068 159.373 C 269.882 159.373 268.228 161.814 254.214 155.419 C 243.621 160.379 239.208 160.357 227.199 160.357 C 210.819 160.357 197.541 147.575 197.541 131.804 C 197.541 116.037 210.819 103.255 227.199 103.255 C 238.796 103.255 236.973 101.786 253.711 108.168 C 271.963 103.224 269.471 102.272 282.068 102.272 C 299.269 102.272 313.21 115.054 313.21 130.821 Z" style="fill: rgb(255, 255, 255); stroke-linecap: round; stroke: rgb(0, 0, 0); stroke-width: 5;"/>
    <path d="M 287.292 178.577 C 279.075 179.209 276.464 179.177 269.595 183.633 C 264.841 186.717 264.574 186.146 262.642 190.586 C 259.605 197.565 259.412 196.406 261.378 200.067 C 264.448 205.784 266.36 205.666 270.859 207.02 C 278.147 209.213 282.236 200.067 282.236 200.067 C 284.284 206.215 276.075 206.775 285.396 212.076 C 292.423 216.072 297.405 207.02 297.405 207.02 C 298.791 211.178 296.93 214.806 303.093 217.765 C 309.806 220.988 312.394 216.6 314.47 212.077 C 317.324 205.859 317.772 205.316 316.366 198.803 C 314.723 191.19 314.355 191.236 310.677 186.793 C 306.529 181.782 301.197 180.473 301.197 180.473 L 287.292 178.577 Z" style="stroke: rgb(0, 0, 0); stroke-width: 5; fill: rgb(234, 194, 16);"/>
    <ellipse transform="matrix(0.999997, 0, 0, 0.999999, -205.085592, -9.14595)" cx="444.025" cy="141.582" rx="5.373" ry="8.849"/>
    <ellipse transform="matrix(1, 0, 0, 0.999999, -173.798065, -9.145782)" cx="444.024" cy="141.582" rx="5.373" ry="8.849"/>
    <ellipse transform="matrix(0.999999, 0, 0, 1, -210.769478, -11.673935)" cx="464.25" cy="169.393" rx="10.429" ry="8.849" style="stroke: rgb(0, 0, 0); stroke-width: 5.00001; fill: rgb(234, 194, 16);"/>
    <path style="fill: none; stroke: black; stroke-linecap: round; stroke-width: 2;" d="M 243.623 175.784 L 265.745 175.784"/>
    <path d="M 217.73 220.008 C 209.513 219.376 206.902 219.408 200.032 214.952 C 195.278 211.868 195.011 212.439 193.079 207.999 C 190.043 201.02 189.85 202.179 191.816 198.518 C 194.885 192.801 196.798 192.919 201.297 191.565 C 208.584 189.372 212.674 198.518 212.674 198.518 C 214.721 192.37 206.513 191.81 215.833 186.509 C 222.86 182.513 227.842 191.565 227.842 191.565 C 229.229 187.407 227.368 183.779 233.531 180.82 C 240.243 177.597 242.832 181.985 244.907 186.508 C 247.761 192.726 248.209 193.269 246.803 199.782 C 245.161 207.395 244.793 207.349 241.114 211.792 C 236.967 216.803 231.635 218.112 231.635 218.112 L 217.73 220.008 Z" style="stroke: rgb(0, 0, 0); stroke-width: 5; fill: rgb(234, 194, 16);" transform="matrix(-1, 0, 0, -1, 438.059004, 397.604985)"/>
    <path d="M 246.208 74.301 C 246.208 73.654 252.43 80.948 253.161 82.071 C 256.615 87.379 256.321 94.408 256.321 100.201 C 257.585 97.61 257.958 92.581 258.217 91.784 C 260.074 86.078 264.928 81.672 268.962 77.54" style="fill: none; stroke-linecap: round; stroke: rgb(0, 0, 0); stroke-width: 5;"/>
    <path d="M 238.623 83.767 C 238.623 83.135 244.543 85.895 245.576 86.928 C 249.434 90.786 252.528 91.521 252.528 98.305" style="stroke: black; fill: none; stroke-width: 5; stroke-linecap: round;"/>
    <path style="stroke: black; fill: none;" d="M 449.732 165.936 Z"/>
    <path d="M 170.471 460.073 C 170.471 460.073 176.162 435.424 157.004 417.093 C 137.846 398.762 122.381 395.602 100.271 388.65 C 78.161 381.698 28.664 379.574 41.532 381.697 C 54.4 383.82 71.671 385.491 91.276 391.81 C 110.881 398.129 116.265 398.762 129.525 405.083 C 142.785 411.404 148.022 415.197 154.975 426.574 C 161.928 437.951 164.176 450.591 170.471 460.073 Z" style="fill: rgb(145, 146, 143);" transform="matrix(-1, 0, 0, -1, 204.826016, 839.646945)"/>
    <path d="M 64.173 341.966 C 64.173 341.966 67.966 317.948 67.966 317.316 C 67.966 316.684 76.182 316.684 86.295 312.891 C 96.408 309.098 96.409 302.146 96.409 302.146 C 96.409 302.146 89.977 309.201 76.182 309.731 C 59.748 310.363 54.06 310.362 59.749 313.522 C 65.438 316.682 63.541 324.9 64.173 341.966 Z" style="fill: rgb(145, 146, 143);" transform="matrix(-1, 0, 0, -1, 150.468994, 644.111997)"/>
    <path d="M 202.495 248.424 L 231.599 276.755 L 202.495 300.612 L 218.502 276.755 L 202.495 248.424 Z" style="stroke: black;"/>
    <path d="M 221.525 301.219 L 250.629 272.888 L 221.525 249.031 L 237.532 272.888 L 221.525 301.219 Z" style="stroke: black;" transform="matrix(-1, 0, 0, -1, 472.153939, 550.249997)"/>
    <path d="M 261.263 246.301 L 290.367 274.632 L 261.263 298.489 L 277.27 274.632 L 261.263 246.301 Z" style="stroke: black;"/>
    <path d="M 280.292 299.096 L 309.396 270.765 L 280.292 246.908 L 296.299 270.765 L 280.292 299.096 Z" style="stroke: black;" transform="matrix(-1, 0, 0, -1, 589.687984, 546.004047)"/>
  </g>
  <path d="M 253.792 231.67 L 238.623 252.528 L 252.528 250.632 C 252.528 250.632 245.881 284.425 244.513 289.256 C 243.973 290.522 243.679 291.882 243.679 293.297 C 243.679 300.104 250.471 305.622 258.849 305.622 C 267.227 305.622 274.019 300.104 274.019 293.297 C 274.019 291.767 273.676 290.303 273.049 288.952 C 271.443 281.771 264.686 251.264 265.802 251.264 C 267.067 251.264 277.811 253.16 277.811 253.16 L 266.434 232.302 Z M 249.061 290.2 C 254.221 290.358 262.445 290.417 267.88 290.439 C 268.105 291.131 268.226 291.86 268.226 292.612 C 268.226 297.15 263.84 300.829 258.429 300.829 C 253.018 300.829 248.632 297.15 248.632 292.612 C 248.632 291.773 248.782 290.963 249.061 290.2 Z" style="stroke: black;"/>
  <g>
    <path d="M 199.435 215.869 L 224.085 222.821" style="stroke: black; stroke-width: 4; stroke-linecap: round;"/>
    <path d="M 205.756 219.661 C 209.996 216.633 195.66 225.214 190.564 224.822 C 193.846 225.617 201.907 227.494 203.227 226.614 C 204.837 225.54 189.121 252.737 184.35 260.955 C 178.696 261.075 174.152 265.556 174.152 271.066 C 174.152 276.651 178.821 281.179 184.581 281.179 C 190.341 281.179 195.01 276.651 195.01 271.066 C 195.01 268.78 194.228 266.671 192.909 264.978 L 214.604 222.19 L 205.756 219.661 Z M 191.218 225.35 C 191.402 225.403 190.343 224.805 190.564 224.822 C 189.132 224.475 189.874 224.966 191.218 225.35 Z M 190.586 271.066 C 190.586 274.208 187.898 276.755 184.581 276.755 C 181.265 276.755 178.576 274.208 178.576 271.066 C 178.576 267.924 181.265 265.377 184.581 265.377 C 187.898 265.377 190.586 267.924 190.586 271.066 Z" style="stroke: black;"/>
    <path d="M 191.534 271.489 L 186.477 268.329 L 180.157 273.386 L 176.364 283.499 L 178.261 299.3 L 182.685 312.574 L 178.261 330.272 L 179.525 337.224 C 179.525 337.224 175.733 354.29 175.101 354.29 C 174.469 354.29 170.044 366.931 170.044 366.931 L 175.733 377.044 L 184.581 366.299 L 182.685 356.818 L 185.214 349.234 L 187.742 341.017 L 188.374 331.536 L 189.638 322.687 L 194.694 313.206 L 192.798 304.989 L 188.374 294.876 L 185.214 287.291 L 187.11 282.867 L 187.11 276.546 L 191.534 271.489 Z" style="stroke: black; fill: url(#gradient-1); stroke-width: 2;"/>
    <g>
      <path d="M 263.907 428.112 C 263.907 432.442 260.37 435.951 256.006 435.951 C 251.642 435.951 248.105 432.442 248.105 428.112 C 248.105 423.782 251.642 420.273 256.006 420.273 C 260.37 420.273 263.907 423.782 263.907 428.112 Z M 177.313 486.392 L 332.801 486.392 L 332.801 416.865 L 177.313 416.865 Z" style="stroke-width: 4; stroke: rgb(0, 0, 0); fill: rgb(173, 213, 236);"/>
      <path d="M 266.434 294.244 L 260.113 291.084 L 253.16 296.773 L 258.217 301.829 L 266.434 320.791 L 262.009 338.489 L 246.84 385.262 L 251.896 403.591 L 260.113 408.648 L 256.321 416.233 L 248.104 424.449 C 248.104 424.449 251.264 434.563 251.896 434.563 C 252.528 434.563 261.377 433.93 261.377 433.93 L 265.802 427.61 L 260.745 420.657 L 268.33 413.704 L 265.802 404.856 L 261.377 389.686 C 261.377 389.686 261.377 372.62 262.009 371.988 C 262.641 371.356 270.858 349.866 270.858 349.866 L 274.018 332.8 C 274.018 332.8 277.811 322.055 277.811 321.423 C 277.811 320.791 272.754 305.622 272.754 305.622 L 266.434 294.244 Z" style="stroke: black; fill: url(#gradient-6);"/>
    </g>
    <path d="M 191.219 333.302 C 191.219 337.632 187.682 341.141 183.318 341.141 C 178.954 341.141 175.417 337.632 175.417 333.302 C 175.417 328.972 178.954 325.463 183.318 325.463 C 187.682 325.463 191.219 328.972 191.219 333.302 Z M 104.625 391.582 L 260.113 391.582 L 260.113 322.055 L 104.625 322.055 Z" style="stroke-width: 4; stroke: rgb(0, 0, 0); fill: rgb(173, 213, 236);"/>
    <path d="M 188.058 331.536 L 189.954 337.225 L 181.737 340.385 L 176.681 337.225 L 172.888 328.376 L 174.784 323.319 L 177.945 317.631 L 165.936 308.782 L 160.879 315.735 L 167.832 317.631 L 175.417 311.942 L 184.265 315.103 C 184.265 315.103 185.53 324.583 186.162 324.583 C 186.794 324.583 188.058 329.64 188.058 331.536 Z" style="stroke: black; fill: url(#gradient-2); stroke-width: 2;"/>
    <g>
      <text x="120.162" y="360.611" style="font-family: &quot;Abril Fatface&quot;; font-size: 20px; white-space: pre;">1.On Demand</text>
      <text x="128.829" y="383.041" style="font-family: &quot;Abril Fatface&quot;; font-size: 20px; white-space: pre;">Self Service</text>
    </g>
    <g transform="matrix(0, 1, -1, 0, 352.730286, 52.72419)">
      <path d="M 159.353 253.108 C 159.353 258.868 154.543 263.537 148.608 263.537 C 142.674 263.537 137.863 258.868 137.863 253.108 C 137.863 247.348 142.674 242.679 148.608 242.679 C 154.543 242.679 159.353 247.348 159.353 253.108 Z M 148.869 248.103 C 145.727 248.103 143.18 250.509 143.18 253.476 C 143.18 256.444 145.727 258.849 148.869 258.849 C 152.011 258.849 154.558 256.444 154.558 253.476 C 154.558 250.509 152.011 248.103 148.869 248.103 Z"/>
      <path d="M 150.134 203.228 C 150.134 203.228 152.663 196.907 129.908 198.171 C 107.153 199.435 102.73 219.661 102.73 219.661 C 102.73 219.661 99.569 239.887 103.362 241.152 C 107.155 242.415 102.73 225.982 109.682 217.764 C 116.634 209.548 118.531 210.813 118.531 210.813 L 141.286 246.84 L 146.342 243.68 L 124.852 207.652 C 124.852 207.652 133.701 199.436 150.134 203.228 Z" style="stroke: black; stroke-width: 4;"/>
    </g>
    <path d="M 100.202 415.47 C 100.202 419.8 96.665 423.309 92.301 423.309 C 87.937 423.309 84.4 419.8 84.4 415.47 C 84.4 411.14 87.937 407.631 92.301 407.631 C 96.665 407.631 100.202 411.14 100.202 415.47 Z M 13.608 473.75 L 169.096 473.75 L 169.096 404.223 L 13.608 404.223 Z" style="stroke-width: 4; stroke: rgb(0, 0, 0); fill: rgb(173, 213, 236);"/>
    <text x="19.305" y="450.054" style="font-family: &quot;Abril Fatface&quot;; font-size: 18px; white-space: pre;">3.Rapid Elasticity</text>
    <g transform="matrix(0, 1, 1, 0, 162.624298, 76.294586)">
      <path d="M 159.353 253.108 C 159.353 258.868 154.543 263.537 148.608 263.537 C 142.674 263.537 137.863 258.868 137.863 253.108 C 137.863 247.348 142.674 242.679 148.608 242.679 C 154.543 242.679 159.353 247.348 159.353 253.108 Z M 148.869 248.103 C 145.727 248.103 143.18 250.509 143.18 253.476 C 143.18 256.444 145.727 258.849 148.869 258.849 C 152.011 258.849 154.558 256.444 154.558 253.476 C 154.558 250.509 152.011 248.103 148.869 248.103 Z"/>
      <path d="M 150.134 203.228 C 150.134 203.228 152.663 196.907 129.908 198.171 C 107.153 199.435 102.73 219.661 102.73 219.661 C 102.73 219.661 99.569 239.887 103.362 241.152 C 107.155 242.415 102.73 225.982 109.682 217.764 C 116.634 209.548 118.531 210.813 118.531 210.813 L 141.286 246.84 L 146.342 243.68 L 124.852 207.652 C 124.852 207.652 133.701 199.436 150.134 203.228 Z" style="stroke: black; stroke-width: 4;"/>
    </g>
    <path d="M 426.979 431.904 C 426.979 436.234 423.442 439.743 419.078 439.743 C 414.714 439.743 411.177 436.234 411.177 431.904 C 411.177 427.574 414.714 424.065 419.078 424.065 C 423.442 424.065 426.979 427.574 426.979 431.904 Z M 340.385 490.184 L 495.873 490.184 L 495.873 420.657 L 340.385 420.657 Z" style="stroke-width: 4; stroke: rgb(0, 0, 0); fill: rgb(173, 213, 236);"/>
    <text style="font-family: &quot;Abril Fatface&quot;; font-size: 20px; white-space: pre;" x="365.906" y="457.339">5.Measured</text>
    <text style="font-family: &quot;Abril Fatface&quot;; font-size: 20px; white-space: pre;" x="382.327" y="478.336">Service</text>
    <text x="212.654" y="453.689" style="font-family: &quot;Abril Fatface&quot;; font-size: 20px; white-space: pre;">4. Resource</text>
    <text x="226.787" y="477.707" style="font-family: &quot;Abril Fatface&quot;; font-size: 20px; white-space: pre;">Pooling</text>
  </g>
  <defs>
    <style id="bx-google-fonts">@import url(https://fonts.googleapis.com/css?family=Roboto:100,100italic,300,300italic,400,400italic,500,500italic,700,700italic,900,900italic);</style>
  </defs>
  <path d="M 439.619 438.355 L 433.299 443.411 L 425.714 438.987 L 417.497 432.666 L 421.29 423.185 L 423.818 412.44 L 415.601 397.903 L 415.601 384.629 C 415.601 384.629 411.809 375.781 411.177 375.781 C 410.545 375.781 411.177 363.771 411.177 363.139 C 411.177 362.507 415.601 348.602 415.601 348.602 L 421.922 329.008 L 425.714 323.319 C 425.714 323.319 426.978 310.046 426.346 310.046 C 425.714 310.046 415.601 297.405 415.601 297.405 L 416.233 277.179 L 415.601 267.698 C 415.601 267.698 418.129 261.377 418.129 260.745 C 418.129 260.113 420.025 250.632 420.025 250.632 C 420.025 250.632 425.714 236.094 425.082 234.83 C 424.45 233.566 424.45 226.613 424.45 226.613 L 428.874 224.085 L 433.299 223.453 L 436.459 227.878 C 436.459 227.878 435.827 231.67 435.827 232.302 C 435.827 232.934 435.195 237.991 435.195 237.991 L 431.403 246.208 L 429.506 257.585 L 427.61 267.698 L 426.346 287.292 L 429.506 296.141 L 435.195 303.093 L 437.091 311.31 L 434.563 324.583 L 431.403 334.696 L 425.714 350.498 L 424.45 368.196 L 426.346 382.101 L 425.714 394.742 L 432.035 407.384 L 431.403 414.336 L 429.506 426.346 L 432.035 432.666 L 435.827 432.034 L 439.619 438.355 Z" style="stroke: black; fill: url(#gradient-5); stroke-width: 2; stroke-linecap: round;" transform="matrix(-1, 0, 0, -1, 850.163985, 663.072045)"/>
  <g transform="matrix(1, 0, 0, 1, 160.544296, 17.065596)">
    <path d="M 138.757 222.821 L 163.407 215.869" style="stroke: black; stroke-width: 4; stroke-linecap: round;" transform="matrix(-1, 0, 0, -1, 302.163963, 438.689985)"/>
    <path d="M 181.106 275.623 C 185.346 278.651 171.01 270.07 165.914 270.462 C 169.196 269.667 177.257 267.79 178.577 268.67 C 180.187 269.744 164.471 242.547 159.7 234.329 C 154.046 234.209 149.502 229.728 149.502 224.218 C 149.502 218.633 154.171 214.105 159.931 214.105 C 165.691 214.105 170.36 218.633 170.36 224.218 C 170.36 226.504 169.578 228.613 168.259 230.306 L 189.954 273.094 L 181.106 275.623 Z M 166.568 269.934 C 166.752 269.881 165.693 270.479 165.914 270.462 C 164.482 270.809 165.224 270.318 166.568 269.934 Z M 165.936 224.218 C 165.936 221.076 163.248 218.529 159.931 218.529 C 156.615 218.529 153.926 221.076 153.926 224.218 C 153.926 227.36 156.615 229.907 159.931 229.907 C 163.248 229.907 165.936 227.36 165.936 224.218 Z" style="stroke: black;" transform="matrix(-1, 0, 0, -1, 339.456008, 492.755974)"/>
    <path d="M 190.857 374.35 L 185.959 377.676 L 179.839 372.354 L 176.165 361.713 L 178.002 345.085 L 182.287 331.117 L 178.002 312.493 L 179.226 305.177 C 179.226 305.177 175.554 287.218 174.941 287.218 C 174.33 287.218 170.044 273.916 170.044 273.916 L 175.554 263.273 L 184.123 274.58 L 182.287 284.557 L 184.736 292.537 L 187.185 301.185 L 187.796 311.162 L 189.021 320.474 L 193.917 330.451 L 192.081 339.099 L 187.796 349.739 L 184.736 357.723 L 186.572 362.378 L 186.572 369.03 L 190.857 374.35 Z" style="stroke: black; fill: url(#gradient-3); stroke-width: 2; stroke-linecap: round;" transform="matrix(-1, 0, 0, -1, 363.960962, 640.948977)"/>
    <path d="M 190.361 334.566 C 190.361 338.896 187.168 341.141 181.669 341.141 C 176.17 341.141 172.345 338.896 172.345 334.566 C 172.345 330.236 176.17 327.991 181.669 327.991 C 187.168 327.991 190.361 330.236 190.361 334.566 Z M 104.625 391.582 L 300.565 391.582 L 300.565 322.055 L 104.625 322.055 L 104.625 391.582 Z" style="stroke-width: 4; stroke: rgb(0, 0, 0); fill: rgb(173, 213, 236);"/>
    <path d="M 202.595 316.999 L 204.491 311.31 L 196.274 308.15 L 191.218 311.31 L 187.425 320.159 L 189.321 325.216 L 192.482 330.904 L 180.473 339.753 L 175.416 332.8 L 182.369 330.904 L 189.954 336.593 L 198.802 333.432 C 198.802 333.432 200.067 323.952 200.699 323.952 C 201.331 323.952 202.595 318.895 202.595 316.999 Z" style="stroke: black; fill: url(#gradient-4); stroke-width: 2; stroke-linecap: round;" transform="matrix(-1, 0, 0, -1, 379.906981, 647.902985)"/>
    <text x="119.794" y="362.451" style="font-family: &quot;Abril Fatface&quot;; font-size: 20px; white-space: pre;">2.Broad Network</text>
    <text x="164.856" y="381.145" style="font-family: &quot;Abril Fatface&quot;; font-size: 20px; white-space: pre;">Access</text>
  </g>
  <path d="M 158.983 194.378 L 143.181 210.812" style="fill: none; stroke: black; stroke-width: 4;"/>
  <path d="M 105.257 201.963 L 98.937 196.907 L 91.352 201.331 L 83.135 207.652 L 86.928 217.133 L 89.456 227.878 L 81.239 242.415 L 81.239 255.689 C 81.239 255.689 77.447 264.537 76.815 264.537 C 76.183 264.537 76.815 276.547 76.815 277.179 C 76.815 277.811 81.239 291.716 81.239 291.716 L 87.56 311.31 L 91.352 316.999 C 91.352 316.999 92.616 330.272 91.984 330.272 C 91.352 330.272 81.239 342.913 81.239 342.913 L 81.871 363.139 L 81.239 372.62 C 81.239 372.62 83.767 378.941 83.767 379.573 C 83.767 380.205 85.663 389.686 85.663 389.686 C 85.663 389.686 79.975 397.271 79.343 398.535 C 78.711 399.799 86.928 418.129 86.928 418.129 L 92.616 420.657 L 97.041 418.761 L 98.305 413.704 C 98.305 413.704 95.144 409.912 95.144 409.28 C 95.144 408.648 91.984 399.799 91.984 399.799 L 97.041 394.11 L 95.144 382.733 L 93.248 372.62 L 91.984 353.026 L 95.144 344.177 L 100.833 337.225 L 102.729 329.008 L 100.201 315.735 L 97.041 305.622 L 91.352 289.82 L 90.088 272.122 L 91.984 258.217 L 91.352 245.576 L 97.673 232.934 L 97.041 225.982 L 95.144 213.972 L 97.673 207.652 L 101.465 208.284 L 105.257 201.963 Z" style="stroke: black; fill: url(#gradient-0); stroke-width: 2; stroke-linecap: round;"/>
  <path d="M 372.936 219.029 L 357.134 235.463" style="fill: none; stroke: black; stroke-width: 4;"/>
  <path d="M 282.868 164.671 C 282.867 169.095 282.868 159.615 279.075 157.719 C 275.682 156.023 281.899 157.867 286.415 158.275 C 287.076 157.916 287.799 157.719 288.556 157.719 C 291.698 157.719 294.245 161.115 294.245 165.304 C 294.245 169.493 293.594 171.625 290.452 171.625 C 285.632 171.625 288.279 171.211 284.167 168.69 L 282.868 164.671 Z" style="stroke: black; fill: rgb(88, 93, 237); stroke-linecap: round; stroke-width: 2;"/>
  <path d="M 242.415 230.406 L 277.179 230.406" style="fill: none; stroke: black; stroke-width: 4; stroke-linecap: round;"/>
  <path d="M 219.462 161.929 C 219.461 157.505 219.462 166.985 215.669 168.881 C 212.276 170.577 218.493 168.733 223.009 168.325 C 223.67 168.684 224.393 168.881 225.15 168.881 C 228.292 168.881 230.839 165.485 230.839 161.296 C 230.839 157.107 230.188 154.975 227.046 154.975 C 222.226 154.975 224.873 155.389 220.761 157.91 L 219.462 161.929 Z" style="stroke: black; fill: rgb(88, 93, 237); stroke-linecap: round; stroke-width: 2;" transform="matrix(-1, 0, 0, -1, 443.114971, 325.552003)"/>
</svg>