<?xml version="1.0" encoding="utf-8"?>
<svg viewBox="0 0 500 500" xmlns="http://www.w3.org/2000/svg">
  <defs>
    <style id="bx-google-fonts">@import url(https://fonts.googleapis.com/css?family=Roboto:100,300,500,700,900,100italic,300italic,400,400italic,500italic,700italic,900italic);</style>
    <radialGradient id="gradient-0" gradientUnits="userSpaceOnUse" cx="345.882" cy="259.749" r="129.762">
      <stop offset="0" style="stop-color: rgb(255, 255, 255);"/>
      <stop offset="1" style="stop-color: rgb(93, 188, 255);"/>
    </radialGradient>
  </defs>
  <path d="M 430.142 88.244 C 429.142 88.244 414.133 77.74 411.142 76.244 C 396.875 69.11 384.765 68.244 367.142 68.244 C 354.057 68.244 340.375 90.244 332.142 90.244 C 324.765 90.244 308.755 82.115 300.142 79.244 C 273.19 70.26 234.142 107.295 234.142 132.244 C 237.69 142.15 248.428 165.101 248.428 165.101 C 248.21 165.662 247.472 166.567 247.472 166.567 C 248.63 167.146 238.548 174.935 236.095 179.841 C 231.108 189.814 218.056 205.998 222.189 218.396 C 225.454 228.19 229.742 237.895 232.934 247.471 C 233.769 249.975 238.146 256.475 239.255 257.584 C 240.197 258.527 243.99 257.906 243.047 258.848 C 231.455 270.44 216.12 309.534 222.189 327.743 C 225.158 336.65 235.026 347.046 243.047 352.394 C 244.946 353.659 255.689 358.698 255.689 361.243 C 255.689 364.297 248.93 368.439 246.84 372.62 C 241.765 382.77 234.578 395.943 241.783 406.751 C 254.988 426.558 274.125 436.458 298.037 436.458 C 301.94 436.458 327.657 427.522 328.376 428.241 C 332.598 432.464 347.858 434.692 354.923 436.458 C 362.878 438.447 370.002 441.118 378.309 442.779 C 420.69 451.255 450.785 425.503 465.534 396.006 C 472.556 381.962 461.217 356.616 457.949 343.545 C 457.395 341.328 451.797 325.046 453.524 323.319 C 475.645 301.198 468.259 259.004 461.109 230.406 C 458.908 221.601 455.022 213.009 452.892 204.491 C 452.17 201.603 450.414 198.27 449.1 195.642 C 448.421 194.283 445.052 191.85 446.572 191.85 C 450.378 191.85 453.824 183.816 456.053 180.473 C 463.751 168.925 463.567 138.616 457.317 126.115 C 455.913 123.307 448.954 98.304 446.572 98.304 C 445.713 98.304 428.874 89.251 428.874 86.295 Z" style="stroke: black; stroke-width: 3; fill: url(#gradient-0);"/>
  <rect x="253.792" y="107.785" width="193.411" height="309.079" style="fill: rgb(216, 216, 216); stroke: rgb(0, 0, 0);"/>
  <path d="M 419.856 121.988 C 419.856 122.831 408.845 121.988 406.234 121.988 C 396.477 121.988 388.637 121.244 378.231 121.244 C 354.668 121.244 329.406 124.965 307.09 124.965 C 303.677 124.965 285.142 127.941 285.142 127.941 C 285.142 155.218 285.142 182.11 285.142 209.796 C 285.142 219.298 286.656 230.026 286.656 238.074 C 286.656 240.575 286.656 253.844 286.656 250.724 C 293.742 254.207 305.081 250.724 312.388 250.724 C 333.108 250.724 361.315 255.028 381.258 248.491 C 389.643 245.743 402.838 246.259 411.531 246.259 C 416.436 246.259 425.192 246.259 425.154 246.259 C 414.2 224.717 417.586 181.792 417.586 156.218 C 417.586 151.507 419.1 125.709 419.1 125.709" style="stroke: black; fill: rgb(255, 255, 255);"/>
  <path d="M 421.831 262.096 C 421.831 262.939 410.82 262.096 408.209 262.096 C 398.452 262.096 390.612 261.352 380.206 261.352 C 356.643 261.352 331.381 265.073 309.065 265.073 C 305.652 265.073 287.117 268.049 287.117 268.049 C 287.117 295.326 287.117 322.218 287.117 349.904 C 287.117 359.406 288.631 370.134 288.631 378.182 C 288.631 380.683 288.631 393.952 288.631 390.832 C 295.717 394.315 307.056 390.832 314.363 390.832 C 335.083 390.832 363.29 395.136 383.233 388.599 C 391.618 385.851 404.813 386.367 413.506 386.367 C 418.411 386.367 427.167 386.367 427.129 386.367 C 416.175 364.825 419.561 321.9 419.561 296.326 C 419.561 291.615 421.075 265.817 421.075 265.817" style="stroke: black; fill: rgb(255, 255, 255);"/>
  <path d="M 376.252 220.748 C 376.77 220.748 364.616 223.1 361.423 223.1 C 349.419 223.1 338.237 223.045 326.981 220.278 C 324.327 219.626 315.979 221.689 315.979 221.689 C 315.979 221.83 315.992 209.028 315.022 206.168 C 311.693 196.348 315.5 182.853 315.5 172.303 C 315.5 171.258 315.5 161.014 315.5 161.014 C 315.979 161.014 329.922 161.485 330.808 161.485 C 346.982 161.485 365.998 160.544 380.558 160.544 C 380.134 160.929 379.6 172.054 379.6 174.184 C 379.6 185.247 380.558 196.612 380.558 207.109 C 380.558 207.779 379.6 220.278 379.6 220.278" style="stroke: black; fill: none;"/>
  <path d="M 374.339 155.371 C 374.95 155.971 378.005 141.731 376.252 141.731 C 362.825 141.731 346.187 141.905 332.721 144.553 C 332.153 144.665 319.327 145.493 319.327 145.493 C 319.327 145.023 319.806 156.782 319.806 156.782 C 318.407 156.34 322.641 155.841 324.111 155.841 C 327.542 155.841 330.736 155.371 334.156 155.371 C 344.892 155.371 355.069 156.782 365.728 156.782 C 365.984 156.782 375.295 156.782 375.295 156.782 Z" style="stroke: black; fill: none;"/>
  <path d="M 298.28 165.248 C 298.28 165.718 298.082 177.118 297.801 177.947 C 296.799 180.905 297.323 184.659 297.323 187.824 C 297.323 196.915 297.323 206.874 297.323 215.575 C 297.323 218.314 295.522 225.867 301.15 223.1 C 302.133 222.616 308.325 221.522 308.325 220.748 C 308.325 208.284 303.246 188.405 308.803 177.477 C 309.408 176.288 310.467 161.485 308.803 161.485 C 306.922 161.485 298.998 162.66 297.323 164.307 Z" style="stroke: black; fill: none;"/>
  <path d="M 386.776 161.485 C 386.776 161.956 386.297 171.331 386.297 172.303 C 386.297 182.726 386.297 193.873 386.297 204.756 C 386.297 205.085 385.11 221.219 385.341 221.219 C 388.187 221.219 392.446 221.723 394.429 220.748 C 395.721 220.113 398.735 222.638 398.735 221.219 C 398.735 205.178 402.562 189.853 402.562 174.184 C 402.562 170.822 402.083 167.405 402.083 164.307 C 402.083 162.582 403.838 159.133 402.083 159.133 C 401.114 159.133 386.297 160.544 386.297 160.544 Z" style="stroke: black; fill: none;"/>
  <path d="M 317.414 227.333 C 317.892 227.333 326.082 227.803 327.46 227.803 C 338.357 227.803 349.819 228.744 360.945 228.744 C 364.931 228.744 368.917 228.744 372.904 228.744 C 374.665 228.744 378.165 226.542 378.165 228.273 C 378.165 228.953 377.687 233.556 377.687 235.328 C 377.687 237.21 379.6 240.973 377.687 240.973 C 362.142 240.973 347.087 239.092 331.765 239.092 C 330.027 239.092 316.457 239.115 316.457 238.621 C 316.457 238.089 316.935 228.273 316.935 228.273 Z" style="stroke: black; fill: none;"/>
  <text x="274.386" y="248.151" style="font-size: 14px; white-space: pre;" transform="matrix(0.756823, 0, 0, 0.744137, 118.640961, 53.527927)">Network</text>
  <text x="285" y="135" style="font-size: 14px; white-space: pre;" transform="matrix(0.756823, 0, 0, 0.744137, 118.640961, 53.527927)">JDK</text>
  <text x="230" y="387" style="font-size: 14px; white-space: pre;" transform="matrix(0, -0.744137, 0.756823, 0, 12.520267, 378.181152)">Storage</text>
  <path d="M 378.231 137.615 C 378.231 137.615 388.167 124.965 383.529 124.965 C 369.656 124.965 344.743 123.569 332.822 129.43 C 328.986 131.315 319.956 129.43 319.956 129.43 C 319.956 128.685 317.316 140.592 319.199 140.592 C 333.091 140.592 349.295 139.103 363.852 139.103 C 365.075 139.103 377.474 138.359 377.474 138.359 Z" style="stroke: black; fill: none;"/>
  <text x="273" y="112" style="font-size: 14px; white-space: pre;" transform="matrix(0.756823, 0, 0, 0.744137, 118.640961, 53.527927)">Monitoring</text>
  <defs>
    <style id="bx-google-fonts">@import url(https://fonts.googleapis.com/css?family=Roboto:100,100italic,300,300italic,400,400italic,500,500italic,700,700italic,900,900italic);</style>
  </defs>
  <path d="M 378.227 360.856 C 378.745 360.856 366.591 363.208 363.398 363.208 C 351.394 363.208 340.212 363.153 328.956 360.386 C 326.302 359.734 317.954 361.797 317.954 361.797 C 317.954 361.938 317.967 349.136 316.997 346.276 C 313.668 336.456 317.475 322.961 317.475 312.411 C 317.475 311.366 317.475 301.122 317.475 301.122 C 317.954 301.122 331.897 301.593 332.783 301.593 C 348.957 301.593 367.973 300.652 382.533 300.652 C 382.109 301.037 381.575 312.162 381.575 314.292 C 381.575 325.355 382.533 336.72 382.533 347.217 C 382.533 347.887 381.575 360.386 381.575 360.386" style="stroke: black; fill: none;"/>
  <path d="M 376.314 295.479 C 376.925 296.079 379.98 281.839 378.227 281.839 C 364.8 281.839 348.162 282.013 334.696 284.661 C 334.128 284.773 321.302 285.601 321.302 285.601 C 321.302 285.131 321.781 296.89 321.781 296.89 C 320.382 296.448 324.616 295.949 326.086 295.949 C 329.517 295.949 332.711 295.479 336.131 295.479 C 346.867 295.479 357.044 296.89 367.703 296.89 C 367.959 296.89 377.27 296.89 377.27 296.89 Z" style="stroke: black; fill: none;"/>
  <path d="M 300.255 305.356 C 300.255 305.826 300.057 317.226 299.776 318.055 C 298.774 321.013 299.298 324.767 299.298 327.932 C 299.298 337.023 299.298 346.982 299.298 355.683 C 299.298 358.422 297.497 365.975 303.125 363.208 C 304.108 362.724 310.3 361.63 310.3 360.856 C 310.3 348.392 305.221 328.513 310.778 317.585 C 311.383 316.396 312.442 301.593 310.778 301.593 C 308.897 301.593 300.973 302.768 299.298 304.415 Z" style="stroke: black; fill: none;"/>
  <path d="M 388.751 301.593 C 388.751 302.064 388.272 311.439 388.272 312.411 C 388.272 322.834 388.272 333.981 388.272 344.864 C 388.272 345.193 387.085 361.327 387.316 361.327 C 390.162 361.327 394.421 361.831 396.404 360.856 C 397.696 360.221 400.71 362.746 400.71 361.327 C 400.71 345.286 404.537 329.961 404.537 314.292 C 404.537 310.93 404.058 307.513 404.058 304.415 C 404.058 302.69 405.813 299.241 404.058 299.241 C 403.089 299.241 388.272 300.652 388.272 300.652 Z" style="stroke: black; fill: none;"/>
  <path d="M 319.389 367.441 C 319.867 367.441 328.057 367.911 329.435 367.911 C 340.332 367.911 351.794 368.852 362.92 368.852 C 366.906 368.852 370.892 368.852 374.879 368.852 C 376.64 368.852 380.14 366.65 380.14 368.381 C 380.14 369.061 379.662 373.664 379.662 375.436 C 379.662 377.318 381.575 381.081 379.662 381.081 C 364.117 381.081 349.062 379.2 333.74 379.2 C 332.002 379.2 318.432 379.223 318.432 378.729 C 318.432 378.197 318.91 368.381 318.91 368.381 Z" style="stroke: black; fill: none;"/>
  <text x="274.386" y="248.151" style="font-size: 14px; white-space: pre;" transform="matrix(0.756823, 0, 0, 0.744137, 120.615967, 193.635941)">Network</text>
  <text x="285" y="135" style="font-size: 14px; white-space: pre;" transform="matrix(0.756823, 0, 0, 0.744137, 120.615967, 193.635941)">JDK</text>
  <text x="365" y="160" style="font-size: 14px; white-space: pre;" transform="matrix(0, -0.744137, 0.756823, 0, 277.360992, 629.480103)">Middleware</text>
  <text x="230" y="387" style="font-size: 14px; white-space: pre;" transform="matrix(0, -0.744137, 0.756823, 0, 14.495274, 518.289124)">Storage</text>
  <path d="M 380.206 277.723 C 380.206 277.723 390.142 265.073 385.504 265.073 C 371.631 265.073 346.718 263.677 334.797 269.538 C 330.961 271.423 321.931 269.538 321.931 269.538 C 321.931 268.793 319.291 280.7 321.174 280.7 C 335.066 280.7 351.27 279.211 365.827 279.211 C 367.05 279.211 379.449 278.467 379.449 278.467 Z" style="stroke: black; fill: none;"/>
  <text x="273" y="112" style="font-size: 14px; white-space: pre;" transform="matrix(0.756823, 0, 0, 0.744137, 120.615967, 193.635941)">Monitoring</text>
  <path d="M 79.975 312.574 C 79.975 316.599 91.984 317.863 91.984 313.838 C 91.984 310.203 93.248 305.579 93.248 301.829 C 93.248 287.147 86.317 266.39 92.616 253.792 C 94.076 250.872 92.616 243.143 92.616 239.887 C 92.616 237.569 92.616 230.616 92.616 232.934 C 92.616 234.51 78.99 233.11 78.079 233.566 C 71.694 236.758 59.444 237.358 52.164 237.358 C 51.044 237.358 43.315 239.254 43.315 239.254 C 43.315 238.622 43.315 246.207 43.315 246.207" style="stroke: black; fill: rgb(247, 238, 114);"/>
  <path d="M 78.079 325.847 C 78.079 327.562 79.343 322.084 79.343 320.159 C 79.343 315.687 78.615 309.702 79.975 305.621 C 84.922 290.78 78.179 272.454 83.135 257.584 C 84.167 254.489 81.871 243.679 81.871 243.679 C 85.052 243.679 72.003 242.292 70.494 243.047 C 64.864 245.862 51.161 248.103 45.212 248.103 C 43.316 248.103 35.099 248.103 35.099 248.103 C 35.099 248.735 37.482 256.465 35.099 258.848 C 27.714 266.233 43.049 296.407 34.466 304.989 C 34.14 305.316 32.57 321.423 32.57 321.423 C 31.477 322.516 67.531 320.356 70.494 323.319 C 71.243 324.068 79.343 324.515 79.343 325.215 Z" style="stroke: rgb(0, 0, 0); fill: rgb(252, 255, 84);"/>
  <path d="M 42.051 256.32 C 44.99 256.32 69.23 255.688 69.23 255.688" style="stroke: black; fill: none;"/>
  <path d="M 41.419 266.433 C 40.787 266.433 71.758 263.905 71.758 263.905" style="stroke: black; fill: none;"/>
  <path d="M 43.315 276.546 C 43.947 276.546 49.946 277.417 50.9 277.178 C 58.692 275.23 67.766 275.282 74.919 275.282" style="stroke: black; fill: none;"/>
  <path d="M 43.947 286.659 C 44.58 286.659 51.475 287.923 52.164 287.923 C 54.177 287.923 76.183 286.659 76.183 286.659" style="stroke: black; fill: none;"/>
  <path d="M 45.212 296.14 C 45.844 296.14 74.919 296.772 74.919 296.772" style="stroke: black; fill: none;"/>
  <path d="M 44.58 306.885 C 45.212 307.517 52.184 308.149 52.796 308.149 C 56.351 308.149 74.919 308.781 74.919 308.781" style="stroke: black; fill: none;"/>
  <text x="31.938" y="344.177" style="font-size: 14px; white-space: pre;">Source Code</text>
  <path d="M 231.038 217.764 C 231.038 218.396 236.095 228.509 236.095 228.509 C 236.095 226.761 230.07 227.393 228.51 226.613 C 220.982 222.849 208.4 224.085 199.435 224.085 C 174.351 224.085 143.704 230.058 122.323 244.311 C 115.14 249.1 107.73 254.48 102.097 260.113 C 101.016 261.194 97.673 270.858 98.305 270.858" style="stroke: black; fill: none; stroke-width: 3;"/>
  <path d="M 227.246 231.038 C 227.878 230.053 234.831 227.245 234.831 227.245" style="stroke: black; fill: none; stroke-width: 3;"/>
  <rect x="245.576" y="202.595" width="22.754" height="127.677" style="stroke: rgb(0, 0, 0); fill: rgb(255, 255, 255);"/>
  <path d="M 316.999 214.604 C 317.631 214.604 327.744 212.076 327.744 212.076 C 327.112 211.444 321.423 218.66 321.423 219.028 C 321.423 224.044 297.636 240.863 291.084 243.047 C 289.599 243.542 271.49 251.896 270.858 251.264" style="stroke: black; fill: none;"/>
  <path d="M 326.48 211.444 C 326.48 212.076 327.112 219.028 327.112 219.028" style="stroke: black; fill: none;"/>
  <path d="M 328.376 307.517 C 328.376 306.885 327.112 314.47 327.112 314.47 C 326.48 314.47 319.57 307.223 318.895 306.885 C 308.479 301.677 299.348 297.841 288.556 294.244 C 286.369 293.515 268.962 293.612 269.594 293.612" style="stroke: black; fill: none;"/>
  <path d="M 320.159 312.574 C 320.791 312.574 328.376 314.47 328.376 314.47" style="stroke: black; fill: none;"/>
  <path d="M 356.819 329.007 C 356.819 329.007 375.14 318.894 377.677 318.894 C 377.677 318.894 358.715 307.517 358.715 307.517 C 358.715 307.517 333.432 317.63 333.432 317.63 C 334.064 317.63 360.611 330.076 360.611 329.007 C 358.73 330.889 357.451 354.922 357.451 354.922 C 355.555 354.29 333.433 341.633 333.432 345.441 C 333.432 345.441 335.329 317.63 335.961 317.63" style="stroke: black; fill: none;"/>
  <path d="M 377.045 320.791 C 377.045 320.159 378.309 344.809 378.309 344.809 C 376.413 349.677 358.083 351.434 357.451 356.186" style="stroke: black; fill: none;"/>
  <path d="M 348.602 312.574 C 348.602 311.942 364.404 322.687 364.404 322.687 C 368.165 325.508 367.564 350.498 367.564 350.498" style="stroke: black; fill: none;"/>
  <path d="M 368.828 314.47 C 368.828 312.739 353.03 322.055 353.026 322.055 C 352.275 322.055 344.81 324.583 344.81 324.583 C 344.81 323.951 344.178 348.601 344.178 348.601" style="stroke: black; fill: none;"/>
  <path d="M 358.715 317.63 C 358.715 316.998 353.184 312.416 349.866 315.734 C 345.594 320.006 359.347 317.63 359.347 317.63 Z" style="stroke: black; fill: none;"/>
  <path d="M 359.347 316.998 C 358.715 316.998 365.036 303.394 365.036 306.885 C 365.036 312.26 359.347 317.63 359.347 317.63 Z" style="stroke: black; fill: none;"/>
  <path d="M 335.961 331.536 C 335.329 331.536 358.083 341.017 358.083 341.017 C 362.747 341.016 377.677 334.696 377.677 334.696" style="stroke: black; fill: none;"/>
  <path d="M 351.446 188.374 C 351.446 188.374 369.767 178.261 372.304 178.261 C 372.304 178.261 353.342 166.884 353.342 166.884 C 353.342 166.884 328.059 176.997 328.059 176.997 C 328.691 176.997 355.238 189.443 355.238 188.374 C 353.357 190.256 352.078 214.289 352.078 214.289 C 350.182 213.657 328.06 201 328.059 204.808 C 328.059 204.808 329.956 176.997 330.588 176.997" style="stroke: black; fill: none;"/>
  <path d="M 371.672 180.158 C 371.672 179.526 372.936 204.176 372.936 204.176 C 371.04 209.044 352.71 210.801 352.078 215.553" style="stroke: black; fill: none;"/>
  <path d="M 343.229 171.941 C 343.229 171.309 359.031 182.054 359.031 182.054 C 362.792 184.875 362.191 209.865 362.191 209.865" style="stroke: black; fill: none;"/>
  <path d="M 363.455 173.837 C 363.455 172.106 347.657 181.422 347.653 181.422 C 346.902 181.422 339.437 183.95 339.437 183.95 C 339.437 183.318 338.805 207.968 338.805 207.968" style="stroke: black; fill: none;"/>
  <path d="M 353.342 176.997 C 353.342 176.365 347.811 171.783 344.493 175.101 C 340.221 179.373 353.974 176.997 353.974 176.997 Z" style="stroke: black; fill: none;"/>
  <path d="M 330.588 190.903 C 329.956 190.903 352.71 200.384 352.71 200.384 C 357.374 200.383 372.304 194.063 372.304 194.063" style="stroke: black; fill: none;"/>
  <text x="274.65" y="251.896" style="font-size: 24px; white-space: pre;" transform="matrix(0, -1, 1, 0, 14.856354, 570.174683)">PaaS</text>
  <text x="365" y="160" style="font-size: 14px; white-space: pre;" transform="matrix(0, -0.744137, 0.756823, 0, 275.414581, 489.118683)">Middleware</text>
</svg>